G04 #@! TF.FileFunction,Legend,Top*
%FSLAX46Y46*%
G04 Gerber Fmt 4.6, Leading zero omitted, Abs format (unit mm)*
G04 Created by KiCad (PCBNEW 0.201509101502+6177~30~ubuntu14.04.1-product) date Sat 12 Sep 2015 10:17:21 PM CEST*
%MOMM*%
G01*
G04 APERTURE LIST*
%ADD10C,0.100000*%
%ADD11C,0.150000*%
%ADD12C,0.160000*%
%ADD13C,0.200000*%
%ADD14C,0.300000*%
%ADD15C,0.254000*%
%ADD16C,0.381000*%
G04 APERTURE END LIST*
D10*
D11*
X21590000Y-36195000D02*
X23114000Y-34671000D01*
X27051000Y-33401000D02*
X22352000Y-33401000D01*
X27051000Y-34671000D02*
X27051000Y-33401000D01*
X22352000Y-34671000D02*
X27051000Y-34671000D01*
X22352000Y-33401000D02*
X22352000Y-34671000D01*
D12*
X48749000Y-25247523D02*
X48710905Y-25323714D01*
X48710905Y-25437999D01*
X48749000Y-25552285D01*
X48825190Y-25628476D01*
X48901381Y-25666571D01*
X49053762Y-25704666D01*
X49168048Y-25704666D01*
X49320429Y-25666571D01*
X49396619Y-25628476D01*
X49472810Y-25552285D01*
X49510905Y-25437999D01*
X49510905Y-25361809D01*
X49472810Y-25247523D01*
X49434714Y-25209428D01*
X49168048Y-25209428D01*
X49168048Y-25361809D01*
X49510905Y-24866571D02*
X48710905Y-24866571D01*
X49510905Y-24409428D01*
X48710905Y-24409428D01*
X49510905Y-24028476D02*
X48710905Y-24028476D01*
X48710905Y-23838000D01*
X48749000Y-23723714D01*
X48825190Y-23647523D01*
X48901381Y-23609428D01*
X49053762Y-23571333D01*
X49168048Y-23571333D01*
X49320429Y-23609428D01*
X49396619Y-23647523D01*
X49472810Y-23723714D01*
X49510905Y-23838000D01*
X49510905Y-24028476D01*
X49206143Y-4921000D02*
X49206143Y-4311476D01*
X49510905Y-4616238D02*
X48901381Y-4616238D01*
X48710905Y-4006714D02*
X48710905Y-3511476D01*
X49015667Y-3778143D01*
X49015667Y-3663857D01*
X49053762Y-3587667D01*
X49091857Y-3549571D01*
X49168048Y-3511476D01*
X49358524Y-3511476D01*
X49434714Y-3549571D01*
X49472810Y-3587667D01*
X49510905Y-3663857D01*
X49510905Y-3892429D01*
X49472810Y-3968619D01*
X49434714Y-4006714D01*
X49434714Y-3168619D02*
X49472810Y-3130524D01*
X49510905Y-3168619D01*
X49472810Y-3206714D01*
X49434714Y-3168619D01*
X49510905Y-3168619D01*
X48710905Y-2863857D02*
X48710905Y-2368619D01*
X49015667Y-2635286D01*
X49015667Y-2521000D01*
X49053762Y-2444810D01*
X49091857Y-2406714D01*
X49168048Y-2368619D01*
X49358524Y-2368619D01*
X49434714Y-2406714D01*
X49472810Y-2444810D01*
X49510905Y-2521000D01*
X49510905Y-2749572D01*
X49472810Y-2825762D01*
X49434714Y-2863857D01*
X48710905Y-2140048D02*
X49510905Y-1873381D01*
X48710905Y-1606714D01*
X49510905Y-1340048D02*
X48710905Y-1340048D01*
X48710905Y-1035286D01*
X48749000Y-959095D01*
X48787095Y-921000D01*
X48863286Y-882905D01*
X48977571Y-882905D01*
X49053762Y-921000D01*
X49091857Y-959095D01*
X49129952Y-1035286D01*
X49129952Y-1340048D01*
X30162476Y-66645905D02*
X30162476Y-65845905D01*
X30429143Y-66417333D01*
X30695810Y-65845905D01*
X30695810Y-66645905D01*
X31000572Y-66112571D02*
X31191048Y-66645905D01*
X31381524Y-66112571D02*
X31191048Y-66645905D01*
X31114857Y-66836381D01*
X31076762Y-66874476D01*
X31000572Y-66912571D01*
X31648191Y-66607810D02*
X31762477Y-66645905D01*
X31952953Y-66645905D01*
X32029143Y-66607810D01*
X32067239Y-66569714D01*
X32105334Y-66493524D01*
X32105334Y-66417333D01*
X32067239Y-66341143D01*
X32029143Y-66303048D01*
X31952953Y-66264952D01*
X31800572Y-66226857D01*
X31724381Y-66188762D01*
X31686286Y-66150667D01*
X31648191Y-66074476D01*
X31648191Y-65998286D01*
X31686286Y-65922095D01*
X31724381Y-65884000D01*
X31800572Y-65845905D01*
X31991048Y-65845905D01*
X32105334Y-65884000D01*
X32752953Y-66607810D02*
X32676763Y-66645905D01*
X32524382Y-66645905D01*
X32448191Y-66607810D01*
X32410096Y-66531619D01*
X32410096Y-66226857D01*
X32448191Y-66150667D01*
X32524382Y-66112571D01*
X32676763Y-66112571D01*
X32752953Y-66150667D01*
X32791048Y-66226857D01*
X32791048Y-66303048D01*
X32410096Y-66379238D01*
X33133905Y-66112571D02*
X33133905Y-66645905D01*
X33133905Y-66188762D02*
X33172000Y-66150667D01*
X33248191Y-66112571D01*
X33362477Y-66112571D01*
X33438667Y-66150667D01*
X33476762Y-66226857D01*
X33476762Y-66645905D01*
X33819620Y-66607810D02*
X33895810Y-66645905D01*
X34048191Y-66645905D01*
X34124382Y-66607810D01*
X34162477Y-66531619D01*
X34162477Y-66493524D01*
X34124382Y-66417333D01*
X34048191Y-66379238D01*
X33933906Y-66379238D01*
X33857715Y-66341143D01*
X33819620Y-66264952D01*
X33819620Y-66226857D01*
X33857715Y-66150667D01*
X33933906Y-66112571D01*
X34048191Y-66112571D01*
X34124382Y-66150667D01*
X34619620Y-66645905D02*
X34543429Y-66607810D01*
X34505334Y-66569714D01*
X34467239Y-66493524D01*
X34467239Y-66264952D01*
X34505334Y-66188762D01*
X34543429Y-66150667D01*
X34619620Y-66112571D01*
X34733906Y-66112571D01*
X34810096Y-66150667D01*
X34848191Y-66188762D01*
X34886287Y-66264952D01*
X34886287Y-66493524D01*
X34848191Y-66569714D01*
X34810096Y-66607810D01*
X34733906Y-66645905D01*
X34619620Y-66645905D01*
X35229144Y-66645905D02*
X35229144Y-66112571D01*
X35229144Y-66264952D02*
X35267239Y-66188762D01*
X35305335Y-66150667D01*
X35381525Y-66112571D01*
X35457716Y-66112571D01*
X35686287Y-66607810D02*
X35762477Y-66645905D01*
X35914858Y-66645905D01*
X35991049Y-66607810D01*
X36029144Y-66531619D01*
X36029144Y-66493524D01*
X35991049Y-66417333D01*
X35914858Y-66379238D01*
X35800573Y-66379238D01*
X35724382Y-66341143D01*
X35686287Y-66264952D01*
X35686287Y-66226857D01*
X35724382Y-66150667D01*
X35800573Y-66112571D01*
X35914858Y-66112571D01*
X35991049Y-66150667D01*
X36372001Y-66645905D02*
X36372001Y-65845905D01*
X36829144Y-66645905D01*
X36829144Y-65845905D01*
X37324382Y-66645905D02*
X37248191Y-66607810D01*
X37210096Y-66569714D01*
X37172001Y-66493524D01*
X37172001Y-66264952D01*
X37210096Y-66188762D01*
X37248191Y-66150667D01*
X37324382Y-66112571D01*
X37438668Y-66112571D01*
X37514858Y-66150667D01*
X37552953Y-66188762D01*
X37591049Y-66264952D01*
X37591049Y-66493524D01*
X37552953Y-66569714D01*
X37514858Y-66607810D01*
X37438668Y-66645905D01*
X37324382Y-66645905D01*
X38276763Y-66645905D02*
X38276763Y-65845905D01*
X38276763Y-66607810D02*
X38200573Y-66645905D01*
X38048192Y-66645905D01*
X37972001Y-66607810D01*
X37933906Y-66569714D01*
X37895811Y-66493524D01*
X37895811Y-66264952D01*
X37933906Y-66188762D01*
X37972001Y-66150667D01*
X38048192Y-66112571D01*
X38200573Y-66112571D01*
X38276763Y-66150667D01*
X38962478Y-66607810D02*
X38886288Y-66645905D01*
X38733907Y-66645905D01*
X38657716Y-66607810D01*
X38619621Y-66531619D01*
X38619621Y-66226857D01*
X38657716Y-66150667D01*
X38733907Y-66112571D01*
X38886288Y-66112571D01*
X38962478Y-66150667D01*
X39000573Y-66226857D01*
X39000573Y-66303048D01*
X38619621Y-66379238D01*
X30619619Y-67925905D02*
X30352952Y-67544952D01*
X30162476Y-67925905D02*
X30162476Y-67125905D01*
X30467238Y-67125905D01*
X30543429Y-67164000D01*
X30581524Y-67202095D01*
X30619619Y-67278286D01*
X30619619Y-67392571D01*
X30581524Y-67468762D01*
X30543429Y-67506857D01*
X30467238Y-67544952D01*
X30162476Y-67544952D01*
X31267238Y-67887810D02*
X31191048Y-67925905D01*
X31038667Y-67925905D01*
X30962476Y-67887810D01*
X30924381Y-67811619D01*
X30924381Y-67506857D01*
X30962476Y-67430667D01*
X31038667Y-67392571D01*
X31191048Y-67392571D01*
X31267238Y-67430667D01*
X31305333Y-67506857D01*
X31305333Y-67583048D01*
X30924381Y-67659238D01*
X31572000Y-67392571D02*
X31762476Y-67925905D01*
X31952952Y-67392571D01*
X32257714Y-67849714D02*
X32295809Y-67887810D01*
X32257714Y-67925905D01*
X32219619Y-67887810D01*
X32257714Y-67849714D01*
X32257714Y-67925905D01*
X33667238Y-67925905D02*
X33210095Y-67925905D01*
X33438666Y-67925905D02*
X33438666Y-67125905D01*
X33362476Y-67240190D01*
X33286285Y-67316381D01*
X33210095Y-67354476D01*
X34010095Y-67849714D02*
X34048190Y-67887810D01*
X34010095Y-67925905D01*
X33972000Y-67887810D01*
X34010095Y-67849714D01*
X34010095Y-67925905D01*
X34810095Y-67925905D02*
X34352952Y-67925905D01*
X34581523Y-67925905D02*
X34581523Y-67125905D01*
X34505333Y-67240190D01*
X34429142Y-67316381D01*
X34352952Y-67354476D01*
X30543429Y-69205905D02*
X30162476Y-69205905D01*
X30162476Y-68405905D01*
X30810095Y-69205905D02*
X30810095Y-68672571D01*
X30810095Y-68405905D02*
X30772000Y-68444000D01*
X30810095Y-68482095D01*
X30848190Y-68444000D01*
X30810095Y-68405905D01*
X30810095Y-68482095D01*
X31533904Y-69167810D02*
X31457714Y-69205905D01*
X31305333Y-69205905D01*
X31229142Y-69167810D01*
X31191047Y-69129714D01*
X31152952Y-69053524D01*
X31152952Y-68824952D01*
X31191047Y-68748762D01*
X31229142Y-68710667D01*
X31305333Y-68672571D01*
X31457714Y-68672571D01*
X31533904Y-68710667D01*
X32181523Y-69167810D02*
X32105333Y-69205905D01*
X31952952Y-69205905D01*
X31876761Y-69167810D01*
X31838666Y-69091619D01*
X31838666Y-68786857D01*
X31876761Y-68710667D01*
X31952952Y-68672571D01*
X32105333Y-68672571D01*
X32181523Y-68710667D01*
X32219618Y-68786857D01*
X32219618Y-68863048D01*
X31838666Y-68939238D01*
X32562475Y-68672571D02*
X32562475Y-69205905D01*
X32562475Y-68748762D02*
X32600570Y-68710667D01*
X32676761Y-68672571D01*
X32791047Y-68672571D01*
X32867237Y-68710667D01*
X32905332Y-68786857D01*
X32905332Y-69205905D01*
X33248190Y-69167810D02*
X33324380Y-69205905D01*
X33476761Y-69205905D01*
X33552952Y-69167810D01*
X33591047Y-69091619D01*
X33591047Y-69053524D01*
X33552952Y-68977333D01*
X33476761Y-68939238D01*
X33362476Y-68939238D01*
X33286285Y-68901143D01*
X33248190Y-68824952D01*
X33248190Y-68786857D01*
X33286285Y-68710667D01*
X33362476Y-68672571D01*
X33476761Y-68672571D01*
X33552952Y-68710667D01*
X34238666Y-69167810D02*
X34162476Y-69205905D01*
X34010095Y-69205905D01*
X33933904Y-69167810D01*
X33895809Y-69091619D01*
X33895809Y-68786857D01*
X33933904Y-68710667D01*
X34010095Y-68672571D01*
X34162476Y-68672571D01*
X34238666Y-68710667D01*
X34276761Y-68786857D01*
X34276761Y-68863048D01*
X33895809Y-68939238D01*
X34962475Y-69205905D02*
X34962475Y-68405905D01*
X34962475Y-69167810D02*
X34886285Y-69205905D01*
X34733904Y-69205905D01*
X34657713Y-69167810D01*
X34619618Y-69129714D01*
X34581523Y-69053524D01*
X34581523Y-68824952D01*
X34619618Y-68748762D01*
X34657713Y-68710667D01*
X34733904Y-68672571D01*
X34886285Y-68672571D01*
X34962475Y-68710667D01*
X36295809Y-68672571D02*
X36295809Y-69205905D01*
X35952952Y-68672571D02*
X35952952Y-69091619D01*
X35991047Y-69167810D01*
X36067238Y-69205905D01*
X36181524Y-69205905D01*
X36257714Y-69167810D01*
X36295809Y-69129714D01*
X36676762Y-68672571D02*
X36676762Y-69205905D01*
X36676762Y-68748762D02*
X36714857Y-68710667D01*
X36791048Y-68672571D01*
X36905334Y-68672571D01*
X36981524Y-68710667D01*
X37019619Y-68786857D01*
X37019619Y-69205905D01*
X37743429Y-69205905D02*
X37743429Y-68405905D01*
X37743429Y-69167810D02*
X37667239Y-69205905D01*
X37514858Y-69205905D01*
X37438667Y-69167810D01*
X37400572Y-69129714D01*
X37362477Y-69053524D01*
X37362477Y-68824952D01*
X37400572Y-68748762D01*
X37438667Y-68710667D01*
X37514858Y-68672571D01*
X37667239Y-68672571D01*
X37743429Y-68710667D01*
X38429144Y-69167810D02*
X38352954Y-69205905D01*
X38200573Y-69205905D01*
X38124382Y-69167810D01*
X38086287Y-69091619D01*
X38086287Y-68786857D01*
X38124382Y-68710667D01*
X38200573Y-68672571D01*
X38352954Y-68672571D01*
X38429144Y-68710667D01*
X38467239Y-68786857D01*
X38467239Y-68863048D01*
X38086287Y-68939238D01*
X38810096Y-69205905D02*
X38810096Y-68672571D01*
X38810096Y-68824952D02*
X38848191Y-68748762D01*
X38886287Y-68710667D01*
X38962477Y-68672571D01*
X39038668Y-68672571D01*
X40372001Y-69129714D02*
X40333906Y-69167810D01*
X40219620Y-69205905D01*
X40143430Y-69205905D01*
X40029144Y-69167810D01*
X39952953Y-69091619D01*
X39914858Y-69015429D01*
X39876763Y-68863048D01*
X39876763Y-68748762D01*
X39914858Y-68596381D01*
X39952953Y-68520190D01*
X40029144Y-68444000D01*
X40143430Y-68405905D01*
X40219620Y-68405905D01*
X40333906Y-68444000D01*
X40372001Y-68482095D01*
X40714858Y-68786857D02*
X40981525Y-68786857D01*
X41095811Y-69205905D02*
X40714858Y-69205905D01*
X40714858Y-68405905D01*
X41095811Y-68405905D01*
X41895811Y-69205905D02*
X41629144Y-68824952D01*
X41438668Y-69205905D02*
X41438668Y-68405905D01*
X41743430Y-68405905D01*
X41819621Y-68444000D01*
X41857716Y-68482095D01*
X41895811Y-68558286D01*
X41895811Y-68672571D01*
X41857716Y-68748762D01*
X41819621Y-68786857D01*
X41743430Y-68824952D01*
X41438668Y-68824952D01*
X42238668Y-69205905D02*
X42238668Y-68405905D01*
X42695811Y-69205905D01*
X42695811Y-68405905D01*
X43838668Y-68405905D02*
X43991049Y-68405905D01*
X44067240Y-68444000D01*
X44143430Y-68520190D01*
X44181525Y-68672571D01*
X44181525Y-68939238D01*
X44143430Y-69091619D01*
X44067240Y-69167810D01*
X43991049Y-69205905D01*
X43838668Y-69205905D01*
X43762478Y-69167810D01*
X43686287Y-69091619D01*
X43648192Y-68939238D01*
X43648192Y-68672571D01*
X43686287Y-68520190D01*
X43762478Y-68444000D01*
X43838668Y-68405905D01*
X44524382Y-69205905D02*
X44524382Y-68405905D01*
X44524382Y-68786857D02*
X44981525Y-68786857D01*
X44981525Y-69205905D02*
X44981525Y-68405905D01*
X45743430Y-69205905D02*
X45362477Y-69205905D01*
X45362477Y-68405905D01*
X46543430Y-68672571D02*
X46733906Y-69205905D01*
X46924382Y-68672571D01*
X47229144Y-69129714D02*
X47267239Y-69167810D01*
X47229144Y-69205905D01*
X47191049Y-69167810D01*
X47229144Y-69129714D01*
X47229144Y-69205905D01*
X48029144Y-69205905D02*
X47572001Y-69205905D01*
X47800572Y-69205905D02*
X47800572Y-68405905D01*
X47724382Y-68520190D01*
X47648191Y-68596381D01*
X47572001Y-68634476D01*
X48372001Y-69129714D02*
X48410096Y-69167810D01*
X48372001Y-69205905D01*
X48333906Y-69167810D01*
X48372001Y-69129714D01*
X48372001Y-69205905D01*
X48714858Y-68482095D02*
X48752953Y-68444000D01*
X48829144Y-68405905D01*
X49019620Y-68405905D01*
X49095810Y-68444000D01*
X49133906Y-68482095D01*
X49172001Y-68558286D01*
X49172001Y-68634476D01*
X49133906Y-68748762D01*
X48676763Y-69205905D01*
X49172001Y-69205905D01*
D13*
X39327469Y-66062957D02*
X39327469Y-67332957D01*
X43772469Y-67967957D02*
X39962469Y-67967957D01*
X44407469Y-66062957D02*
X44407469Y-67332957D01*
X39962469Y-67967957D02*
G75*
G03X39327469Y-67332957I-635000J0D01*
G01*
X39327469Y-66062957D02*
G75*
G03X39962469Y-65427957I0J635000D01*
G01*
X44407469Y-67332957D02*
G75*
G03X43772469Y-67967957I0J-635000D01*
G01*
X43772469Y-65427957D02*
G75*
G03X44407469Y-66062957I635000J0D01*
G01*
X39962469Y-65427957D02*
X43772469Y-65427957D01*
D14*
X40831755Y-67376528D02*
X40831755Y-65876528D01*
X41403183Y-65876528D01*
X41546041Y-65947957D01*
X41617469Y-66019386D01*
X41688898Y-66162243D01*
X41688898Y-66376528D01*
X41617469Y-66519386D01*
X41546041Y-66590814D01*
X41403183Y-66662243D01*
X40831755Y-66662243D01*
X42831755Y-66590814D02*
X42331755Y-66590814D01*
X42331755Y-67376528D02*
X42331755Y-65876528D01*
X43046041Y-65876528D01*
D15*
X48955960Y-55620920D02*
X48955960Y-61219080D01*
X49453800Y-61020960D02*
X48955960Y-61020960D01*
X48955960Y-55819040D02*
X49453800Y-55819040D01*
X49453800Y-58420000D02*
X48955960Y-58420000D01*
X43654980Y-61219080D02*
X43654980Y-55620920D01*
X49453800Y-61219080D02*
X49453800Y-55620920D01*
X49453800Y-55620920D02*
X43256200Y-55620920D01*
X43256200Y-55620920D02*
X43256200Y-61219080D01*
X43256200Y-61219080D02*
X49453800Y-61219080D01*
D16*
X20772120Y-65283080D02*
X29773880Y-65283080D01*
X20772120Y-69783960D02*
X29773880Y-69783960D01*
X29773880Y-69783960D02*
X29773880Y-55184040D01*
X29773880Y-55184040D02*
X20772120Y-55184040D01*
X20772120Y-55184040D02*
X20772120Y-69783960D01*
D11*
X13708380Y-4475480D02*
X7807960Y-10375900D01*
X8107680Y-9075420D02*
X8608060Y-8575040D01*
X12707620Y-7475220D02*
X12407900Y-7774940D01*
X10708640Y-10474960D02*
X10906760Y-10274300D01*
X9707880Y-5476240D02*
X9908540Y-5275580D01*
X9207500Y-5974080D02*
X8808720Y-6375400D01*
X10208260Y-5974080D02*
X10507980Y-5674360D01*
X11209020Y-5974080D02*
X11706860Y-5476240D01*
X13208000Y-3975100D02*
X13408660Y-3774440D01*
X13708380Y-4475480D02*
X14008100Y-4175760D01*
X13708380Y-5476240D02*
X14208760Y-4975860D01*
X15206980Y-5974080D02*
X15308580Y-5875020D01*
X14208760Y-5974080D02*
X14607540Y-5575300D01*
X16708120Y-5476240D02*
X17007840Y-5173980D01*
X17208500Y-5974080D02*
X17508220Y-5674360D01*
X9207500Y-10975340D02*
X8907780Y-11275060D01*
X10708640Y-9474200D02*
X11008360Y-9174480D01*
X8608060Y-13474700D02*
X8407400Y-13675360D01*
X10708640Y-11475720D02*
X11209020Y-10975340D01*
X9207500Y-13975080D02*
X9006840Y-14175740D01*
X11209020Y-11976100D02*
X11706860Y-11475720D01*
X11209020Y-12974320D02*
X11607800Y-12575540D01*
X16708120Y-8475980D02*
X17208500Y-7975600D01*
X17208500Y-8973820D02*
X17508220Y-8674100D01*
X16708120Y-12473940D02*
X17106900Y-12075160D01*
X18707100Y-9474200D02*
X19108420Y-9075420D01*
X17208500Y-12974320D02*
X16207740Y-13975080D01*
X16708120Y-12473940D02*
X15707360Y-13474700D01*
X18707100Y-9474200D02*
X14709140Y-13474700D01*
X18209260Y-8973820D02*
X14709140Y-12473940D01*
X17208500Y-8973820D02*
X14208760Y-11976100D01*
X11209020Y-12974320D02*
X10708640Y-13474700D01*
X11209020Y-11976100D02*
X9207500Y-13975080D01*
X10708640Y-11475720D02*
X8707120Y-13474700D01*
X10708640Y-10474960D02*
X9207500Y-11976100D01*
X10708640Y-9474200D02*
X9207500Y-10975340D01*
X13208000Y-3975100D02*
X12207240Y-4975860D01*
X9707880Y-5476240D02*
X9207500Y-5974080D01*
X10208260Y-5974080D02*
X9207500Y-6974840D01*
X8206740Y-8973820D02*
X7208520Y-9974580D01*
X11209020Y-5974080D02*
X8707120Y-8475980D01*
X13708380Y-5476240D02*
X8707120Y-10474960D01*
X16708120Y-8475980D02*
X15206980Y-9974580D01*
X16708120Y-7475220D02*
X15206980Y-8973820D01*
X14208760Y-5974080D02*
X12707620Y-7475220D01*
X17208500Y-5974080D02*
X14709140Y-8475980D01*
X16708120Y-5476240D02*
X14208760Y-7975600D01*
X15206980Y-5974080D02*
X13708380Y-7475220D01*
X18008600Y-17774920D02*
X18008600Y-18374360D01*
X16507460Y-16675100D02*
X17307560Y-19974560D01*
X17307560Y-19974560D02*
X17508220Y-19974560D01*
X17508220Y-19974560D02*
X17907000Y-18575020D01*
X17907000Y-18575020D02*
X18008600Y-18575020D01*
X18008600Y-18575020D02*
X18508980Y-19974560D01*
X18508980Y-19974560D02*
X18608040Y-19974560D01*
X18608040Y-19974560D02*
X19408140Y-16774160D01*
X19408140Y-16774160D02*
X19207480Y-16774160D01*
X19207480Y-16774160D02*
X18508980Y-19375120D01*
X18508980Y-19375120D02*
X18107660Y-17574260D01*
X18107660Y-17574260D02*
X17907000Y-17574260D01*
X17907000Y-17574260D02*
X17307560Y-19375120D01*
X17307560Y-19375120D02*
X16708120Y-16675100D01*
X16708120Y-16675100D02*
X16507460Y-16675100D01*
X13807440Y-18176240D02*
X15308580Y-18176240D01*
X15308580Y-18176240D02*
X15308580Y-18374360D01*
X15308580Y-18374360D02*
X13909040Y-18374360D01*
X15407640Y-16774160D02*
X15407640Y-19974560D01*
X15407640Y-19974560D02*
X15608300Y-19974560D01*
X15608300Y-19974560D02*
X15608300Y-16774160D01*
X15608300Y-16774160D02*
X15407640Y-16774160D01*
X13909040Y-16675100D02*
X13807440Y-16675100D01*
X13708380Y-16675100D02*
X13708380Y-19974560D01*
X13708380Y-19974560D02*
X13909040Y-19974560D01*
X13909040Y-19974560D02*
X13909040Y-16675100D01*
X12809220Y-16974820D02*
X12707620Y-16875760D01*
X12707620Y-16875760D02*
X12308840Y-16774160D01*
X12308840Y-16774160D02*
X11808460Y-16675100D01*
X11808460Y-16675100D02*
X11107420Y-16875760D01*
X11107420Y-16875760D02*
X10807700Y-17175480D01*
X10807700Y-17175480D02*
X10708640Y-17675860D01*
X10708640Y-17675860D02*
X10807700Y-18074640D01*
X10807700Y-18074640D02*
X11209020Y-18374360D01*
X11209020Y-18374360D02*
X11706860Y-18575020D01*
X11706860Y-18575020D02*
X12108180Y-18674080D01*
X12108180Y-18674080D02*
X12308840Y-18874740D01*
X12308840Y-18874740D02*
X12407900Y-19174460D01*
X12407900Y-19174460D02*
X12308840Y-19474180D01*
X12308840Y-19474180D02*
X12009120Y-19674840D01*
X12009120Y-19674840D02*
X11607800Y-19674840D01*
X11607800Y-19674840D02*
X11107420Y-19674840D01*
X11107420Y-19674840D02*
X10807700Y-19575780D01*
X10807700Y-19575780D02*
X10607040Y-19674840D01*
X10607040Y-19674840D02*
X10906760Y-19875500D01*
X10906760Y-19875500D02*
X11508740Y-19974560D01*
X11508740Y-19974560D02*
X12108180Y-19974560D01*
X12108180Y-19974560D02*
X12506960Y-19674840D01*
X12506960Y-19674840D02*
X12608560Y-19174460D01*
X12608560Y-19174460D02*
X12608560Y-18874740D01*
X12608560Y-18874740D02*
X12407900Y-18575020D01*
X12407900Y-18575020D02*
X11907520Y-18374360D01*
X11907520Y-18374360D02*
X11407140Y-18176240D01*
X11407140Y-18176240D02*
X11008360Y-17873980D01*
X11008360Y-17873980D02*
X10906760Y-17574260D01*
X10906760Y-17574260D02*
X11107420Y-17274540D01*
X11107420Y-17274540D02*
X11508740Y-16974820D01*
X11508740Y-16974820D02*
X12108180Y-16974820D01*
X12108180Y-16974820D02*
X12506960Y-17073880D01*
X12506960Y-17073880D02*
X12809220Y-17175480D01*
X8707120Y-17073880D02*
X8407400Y-17073880D01*
X8407400Y-17073880D02*
X8008620Y-17376140D01*
X8008620Y-17376140D02*
X7907020Y-17873980D01*
X7907020Y-17873980D02*
X7907020Y-18674080D01*
X7907020Y-18674080D02*
X8008620Y-19174460D01*
X8008620Y-19174460D02*
X8206740Y-19474180D01*
X8206740Y-19474180D02*
X8608060Y-19674840D01*
X8608060Y-19674840D02*
X9006840Y-19674840D01*
X9006840Y-19674840D02*
X9408160Y-19375120D01*
X9408160Y-19375120D02*
X9608820Y-18674080D01*
X9608820Y-18674080D02*
X9608820Y-17873980D01*
X9608820Y-17873980D02*
X9408160Y-17475200D01*
X9408160Y-17475200D02*
X9207500Y-17274540D01*
X9207500Y-17274540D02*
X8808720Y-17073880D01*
X8707120Y-16774160D02*
X8308340Y-16875760D01*
X8308340Y-16875760D02*
X8008620Y-16974820D01*
X8008620Y-16974820D02*
X7708900Y-17475200D01*
X7708900Y-17475200D02*
X7607300Y-18074640D01*
X7607300Y-18074640D02*
X7708900Y-19174460D01*
X7708900Y-19174460D02*
X8008620Y-19773900D01*
X8008620Y-19773900D02*
X8608060Y-19974560D01*
X8608060Y-19974560D02*
X9309100Y-19875500D01*
X9309100Y-19875500D02*
X9707880Y-19276060D01*
X9707880Y-19276060D02*
X9806940Y-18575020D01*
X9806940Y-18575020D02*
X9806940Y-17873980D01*
X9806940Y-17873980D02*
X9608820Y-17274540D01*
X9608820Y-17274540D02*
X9207500Y-16875760D01*
X9207500Y-16875760D02*
X8707120Y-16774160D01*
X12108180Y-11676380D02*
X11607800Y-11275060D01*
X11607800Y-11275060D02*
X11209020Y-10774680D01*
X11209020Y-10774680D02*
X11008360Y-10274300D01*
X11008360Y-10274300D02*
X11008360Y-9575800D01*
X11008360Y-9575800D02*
X11109960Y-8976360D01*
X11109960Y-8976360D02*
X11508740Y-8374380D01*
X11508740Y-8374380D02*
X12308840Y-7774940D01*
X12308840Y-7774940D02*
X13108940Y-7675880D01*
X13108940Y-7675880D02*
X13809980Y-7675880D01*
X13809980Y-7675880D02*
X14508480Y-8176260D01*
X14508480Y-8176260D02*
X15008860Y-8874760D01*
X15008860Y-8874760D02*
X15209520Y-9474200D01*
X15209520Y-9474200D02*
X15209520Y-10175240D01*
X15209520Y-10175240D02*
X14909800Y-10975340D01*
X14909800Y-10975340D02*
X14409420Y-11475720D01*
X14409420Y-11475720D02*
X14109700Y-11676380D01*
X14109700Y-11775440D02*
X14859000Y-14025880D01*
X14859000Y-14025880D02*
X15709900Y-13576300D01*
X15709900Y-13576300D02*
X17007840Y-14574520D01*
X17007840Y-14574520D02*
X18008600Y-13474700D01*
X18008600Y-13474700D02*
X17109440Y-12174220D01*
X17109440Y-12174220D02*
X17609820Y-10876280D01*
X17609820Y-10876280D02*
X17609820Y-10675620D01*
X17609820Y-10675620D02*
X19210020Y-10375900D01*
X19210020Y-10375900D02*
X19210020Y-8874760D01*
X19210020Y-8874760D02*
X17609820Y-8676640D01*
X17609820Y-8676640D02*
X17007840Y-7274560D01*
X17007840Y-7274560D02*
X17909540Y-5875020D01*
X17909540Y-5875020D02*
X16809720Y-4874260D01*
X16809720Y-4874260D02*
X15509240Y-5775960D01*
X15509240Y-5775960D02*
X14307820Y-5275580D01*
X14307820Y-5275580D02*
X13909040Y-3675380D01*
X13909040Y-3675380D02*
X12407900Y-3675380D01*
X12407900Y-3675380D02*
X12108180Y-5275580D01*
X12108180Y-5275580D02*
X10807700Y-5775960D01*
X10807700Y-5775960D02*
X9408160Y-4775200D01*
X9408160Y-4775200D02*
X8308340Y-5875020D01*
X8308340Y-5875020D02*
X9309100Y-7175500D01*
X9309100Y-7175500D02*
X8608060Y-8676640D01*
X8608060Y-8676640D02*
X7007860Y-8874760D01*
X7007860Y-8874760D02*
X6908800Y-10274300D01*
X6908800Y-10274300D02*
X8509000Y-10576560D01*
X8509000Y-10576560D02*
X9108440Y-12174220D01*
X9108440Y-12174220D02*
X8209280Y-13474700D01*
X8209280Y-13474700D02*
X9210040Y-14574520D01*
X9210040Y-14574520D02*
X10507980Y-13675360D01*
X10507980Y-13675360D02*
X11209020Y-13975080D01*
X11209020Y-13975080D02*
X12108180Y-11676380D01*
X381000Y-62865000D02*
X18415000Y-62865000D01*
X18415000Y-30099000D02*
X381000Y-30099000D01*
X381000Y-62865000D02*
X381000Y-30099000D01*
X18415000Y-30099000D02*
X18415000Y-62865000D01*
X26035000Y-53975000D02*
X48895000Y-53975000D01*
X48895000Y-53975000D02*
X48895000Y-48895000D01*
X48895000Y-48895000D02*
X23495000Y-48895000D01*
X23495000Y-48895000D02*
X23495000Y-51435000D01*
X23215000Y-52705000D02*
X23215000Y-54255000D01*
X23495000Y-51435000D02*
X26035000Y-51435000D01*
X26035000Y-51435000D02*
X26035000Y-53975000D01*
X23215000Y-54255000D02*
X24765000Y-54255000D01*
X33655000Y-635000D02*
X28575000Y-635000D01*
X28575000Y-635000D02*
X28575000Y-3175000D01*
X28575000Y-3175000D02*
X33655000Y-3175000D01*
X36475000Y-3455000D02*
X34925000Y-3455000D01*
X33655000Y-3175000D02*
X33655000Y-635000D01*
X34925000Y-355000D02*
X36475000Y-355000D01*
X36475000Y-355000D02*
X36475000Y-3455000D01*
X15875000Y-64389000D02*
X16891000Y-64389000D01*
X10795000Y-64389000D02*
X13335000Y-64389000D01*
X7239000Y-64389000D02*
X8255000Y-64389000D01*
X15621000Y-68326000D02*
X15621000Y-67056000D01*
X14833600Y-67576700D02*
X14871700Y-67830700D01*
X14871700Y-67830700D02*
X15049500Y-68110100D01*
X15049500Y-68110100D02*
X15367000Y-68326000D01*
X15367000Y-68326000D02*
X15811500Y-68338700D01*
X15811500Y-68338700D02*
X16167100Y-68135500D01*
X16167100Y-68135500D02*
X16344900Y-67843400D01*
X16344900Y-67843400D02*
X16395700Y-67525900D01*
X16395700Y-67525900D02*
X16294100Y-67119500D01*
X16294100Y-67119500D02*
X15951200Y-66865500D01*
X15951200Y-66865500D02*
X15773400Y-66776600D01*
X16891000Y-67564000D02*
X16891000Y-68834000D01*
X16891000Y-68834000D02*
X7239000Y-68834000D01*
X7239000Y-68834000D02*
X7239000Y-63754000D01*
X16891000Y-63754000D02*
X16891000Y-66294000D01*
X16891000Y-66294000D02*
X16891000Y-67564000D01*
X27355800Y-39091820D02*
X26654760Y-39091820D01*
X26654760Y-39091820D02*
X26654760Y-38842900D01*
X26654760Y-36292840D02*
X26654760Y-36092180D01*
X26654760Y-36092180D02*
X27355800Y-36092180D01*
X5715000Y-24130000D02*
X635000Y-24130000D01*
X8535000Y-23850000D02*
X8535000Y-25400000D01*
X8255000Y-26670000D02*
X5715000Y-26670000D01*
X5715000Y-26670000D02*
X5715000Y-24130000D01*
X635000Y-24130000D02*
X635000Y-29210000D01*
X635000Y-29210000D02*
X5715000Y-29210000D01*
X8535000Y-23850000D02*
X6985000Y-23850000D01*
X8255000Y-29210000D02*
X8255000Y-26670000D01*
X5715000Y-29210000D02*
X8255000Y-29210000D01*
X21590000Y-51435000D02*
X21590000Y-53975000D01*
X21870000Y-48615000D02*
X21870000Y-50165000D01*
X21590000Y-51435000D02*
X19050000Y-51435000D01*
X18770000Y-50165000D02*
X18770000Y-48615000D01*
X18770000Y-48615000D02*
X21870000Y-48615000D01*
X19050000Y-51435000D02*
X19050000Y-53975000D01*
X19050000Y-53975000D02*
X21590000Y-53975000D01*
X38735000Y-3175000D02*
X43815000Y-3175000D01*
X43815000Y-3175000D02*
X43815000Y-635000D01*
X43815000Y-635000D02*
X38735000Y-635000D01*
X35915000Y-355000D02*
X37465000Y-355000D01*
X38735000Y-635000D02*
X38735000Y-3175000D01*
X37465000Y-3455000D02*
X35915000Y-3455000D01*
X35915000Y-3455000D02*
X35915000Y-355000D01*
X19050000Y-38735000D02*
X19050000Y-36195000D01*
X18770000Y-41555000D02*
X18770000Y-40005000D01*
X19050000Y-38735000D02*
X21590000Y-38735000D01*
X21870000Y-40005000D02*
X21870000Y-41555000D01*
X21870000Y-41555000D02*
X18770000Y-41555000D01*
X21590000Y-38735000D02*
X21590000Y-36195000D01*
X21590000Y-36195000D02*
X19050000Y-36195000D01*
X19050000Y-32385000D02*
X19050000Y-29845000D01*
X18770000Y-35205000D02*
X18770000Y-33655000D01*
X19050000Y-32385000D02*
X21590000Y-32385000D01*
X21870000Y-33655000D02*
X21870000Y-35205000D01*
X21870000Y-35205000D02*
X18770000Y-35205000D01*
X21590000Y-32385000D02*
X21590000Y-29845000D01*
X21590000Y-29845000D02*
X19050000Y-29845000D01*
X21590000Y-38735000D02*
X21590000Y-36195000D01*
X21310000Y-41555000D02*
X21310000Y-40005000D01*
X21590000Y-38735000D02*
X24130000Y-38735000D01*
X24410000Y-40005000D02*
X24410000Y-41555000D01*
X24410000Y-41555000D02*
X21310000Y-41555000D01*
X24130000Y-38735000D02*
X24130000Y-36195000D01*
X24130000Y-36195000D02*
X21590000Y-36195000D01*
X17399000Y-66167000D02*
X17399000Y-63627000D01*
X17119000Y-68987000D02*
X17119000Y-67437000D01*
X17399000Y-66167000D02*
X19939000Y-66167000D01*
X20219000Y-67437000D02*
X20219000Y-68987000D01*
X20219000Y-68987000D02*
X17119000Y-68987000D01*
X19939000Y-66167000D02*
X19939000Y-63627000D01*
X19939000Y-63627000D02*
X17399000Y-63627000D01*
X19050000Y-27940000D02*
X16510000Y-27940000D01*
X21870000Y-28220000D02*
X20320000Y-28220000D01*
X19050000Y-27940000D02*
X19050000Y-25400000D01*
X20320000Y-25120000D02*
X21870000Y-25120000D01*
X21870000Y-25120000D02*
X21870000Y-28220000D01*
X19050000Y-25400000D02*
X16510000Y-25400000D01*
X16510000Y-25400000D02*
X16510000Y-27940000D01*
X32258000Y-58293000D02*
X32258000Y-63373000D01*
X32258000Y-63373000D02*
X34798000Y-63373000D01*
X34798000Y-63373000D02*
X34798000Y-58293000D01*
X35078000Y-55473000D02*
X35078000Y-57023000D01*
X34798000Y-58293000D02*
X32258000Y-58293000D01*
X31978000Y-57023000D02*
X31978000Y-55473000D01*
X31978000Y-55473000D02*
X35078000Y-55473000D01*
X21463000Y-45466000D02*
X18923000Y-45466000D01*
X24283000Y-45746000D02*
X22733000Y-45746000D01*
X21463000Y-45466000D02*
X21463000Y-42926000D01*
X22733000Y-42646000D02*
X24283000Y-42646000D01*
X24283000Y-42646000D02*
X24283000Y-45746000D01*
X21463000Y-42926000D02*
X18923000Y-42926000D01*
X18923000Y-42926000D02*
X18923000Y-45466000D01*
X11675000Y-26051000D02*
X11675000Y-28051000D01*
X13725000Y-28051000D02*
X13725000Y-26051000D01*
X23486000Y-25416000D02*
X23486000Y-27416000D01*
X25536000Y-27416000D02*
X25536000Y-25416000D01*
X26548080Y-47254160D02*
X30347920Y-47254160D01*
X26548080Y-40553640D02*
X26548080Y-45552360D01*
X30347920Y-40556180D02*
X30347920Y-45554900D01*
X25544780Y-47757080D02*
X26644600Y-47757080D01*
X26045160Y-48356520D02*
X26045160Y-47157640D01*
X19208000Y-60778000D02*
X19908000Y-60778000D01*
X19558000Y-60428000D02*
X19558000Y-61128000D01*
X19558000Y-56728000D02*
X19558000Y-57428000D01*
X19208000Y-58378000D02*
G75*
G03X19008000Y-59278000I350000J-550000D01*
G01*
X20108000Y-59278000D02*
G75*
G03X19908000Y-58378000I-550000J350000D01*
G01*
D14*
X19758000Y-58928000D02*
G75*
G03X19758000Y-58928000I-200000J0D01*
G01*
X19658000Y-58928000D02*
G75*
G03X19658000Y-58928000I-100000J0D01*
G01*
D11*
X19558000Y-60128000D02*
X19558000Y-59228000D01*
X20208000Y-60778000D02*
G75*
G03X20208000Y-60778000I-650000J0D01*
G01*
X20208000Y-57078000D02*
G75*
G03X20208000Y-57078000I-650000J0D01*
G01*
X19558000Y-58278000D02*
X19558000Y-57728000D01*
X19558000Y-58278000D02*
G75*
G03X18908000Y-58928000I0J-650000D01*
G01*
X20208000Y-58928000D02*
G75*
G03X19558000Y-58278000I-650000J0D01*
G01*
X24652000Y-43018000D02*
X24652000Y-41818000D01*
X26402000Y-41818000D02*
X26402000Y-43018000D01*
X14111000Y-26889000D02*
X14111000Y-25689000D01*
X15861000Y-25689000D02*
X15861000Y-26889000D01*
X29458920Y-22722840D02*
X25659080Y-22722840D01*
X29458920Y-29423360D02*
X29458920Y-24424640D01*
X25659080Y-29420820D02*
X25659080Y-24422100D01*
X30462220Y-22219920D02*
X29362400Y-22219920D01*
X29961840Y-21620480D02*
X29961840Y-22819360D01*
X47879000Y-17145000D02*
X47879000Y-22225000D01*
X47879000Y-22225000D02*
X50419000Y-22225000D01*
X50419000Y-22225000D02*
X50419000Y-17145000D01*
X50699000Y-14325000D02*
X50699000Y-15875000D01*
X50419000Y-17145000D02*
X47879000Y-17145000D01*
X47599000Y-15875000D02*
X47599000Y-14325000D01*
X47599000Y-14325000D02*
X50699000Y-14325000D01*
X47879000Y-9017000D02*
X47879000Y-14097000D01*
X47879000Y-14097000D02*
X50419000Y-14097000D01*
X50419000Y-14097000D02*
X50419000Y-9017000D01*
X50699000Y-6197000D02*
X50699000Y-7747000D01*
X50419000Y-9017000D02*
X47879000Y-9017000D01*
X47599000Y-7747000D02*
X47599000Y-6197000D01*
X47599000Y-6197000D02*
X50699000Y-6197000D01*
D16*
X38069520Y-62519560D02*
X38069520Y-64719200D01*
X38069520Y-64719200D02*
X37769800Y-64719200D01*
X37769800Y-64719200D02*
X37769800Y-62519560D01*
X39870380Y-60418980D02*
X39870380Y-64719200D01*
X38869620Y-60418980D02*
X38869620Y-64719200D01*
X39870380Y-60418980D02*
X38869620Y-60418980D01*
X40667940Y-62519560D02*
X40667940Y-60919360D01*
X41668700Y-62519560D02*
X40667940Y-62519560D01*
X41668700Y-60919360D02*
X41668700Y-62519560D01*
X40667940Y-60919360D02*
X41668700Y-60919360D01*
X37068760Y-60919360D02*
X38069520Y-60919360D01*
X38069520Y-60919360D02*
X38069520Y-62519560D01*
X38069520Y-62519560D02*
X37068760Y-62519560D01*
X37068760Y-62519560D02*
X37068760Y-60919360D01*
X42369740Y-58818780D02*
X36370260Y-58818780D01*
X42169080Y-57020460D02*
X42169080Y-58818780D01*
X36570920Y-57020460D02*
X36570920Y-58818780D01*
X36370260Y-64719200D02*
X42369740Y-64719200D01*
X42369740Y-64719200D02*
X42369740Y-57020460D01*
X42369740Y-57020460D02*
X41970960Y-57020460D01*
X41970960Y-57020460D02*
X41970960Y-58818780D01*
X36769040Y-58818780D02*
X36769040Y-57020460D01*
X36769040Y-57020460D02*
X36370260Y-57020460D01*
X36370260Y-57020460D02*
X36370260Y-64719200D01*
D11*
X508000Y-9017000D02*
X508000Y-6350000D01*
X508000Y-6350000D02*
X3175000Y-6350000D01*
X635000Y-14097000D02*
X635000Y-16637000D01*
X635000Y-16637000D02*
X3175000Y-16637000D01*
X635000Y-9017000D02*
X3175000Y-9017000D01*
X3175000Y-9017000D02*
X3175000Y-6477000D01*
X635000Y-14097000D02*
X635000Y-6477000D01*
X635000Y-6477000D02*
X5715000Y-6477000D01*
X5715000Y-6477000D02*
X5715000Y-16637000D01*
X5715000Y-16637000D02*
X3175000Y-16637000D01*
X35466020Y-10622280D02*
X34856420Y-10622280D01*
X34856420Y-10622280D02*
X34846260Y-11054080D01*
X33981000Y-34630000D02*
X42981000Y-34630000D01*
X42981000Y-34630000D02*
X42981000Y-17630000D01*
X42981000Y-17630000D02*
X41481000Y-17630000D01*
X41481000Y-17630000D02*
X41481000Y-16630000D01*
X41481000Y-16630000D02*
X35481000Y-16630000D01*
X35481000Y-16630000D02*
X35481000Y-17630000D01*
X35481000Y-17630000D02*
X33981000Y-17630000D01*
X33981000Y-17630000D02*
X33981000Y-34630000D01*
D12*
X45726429Y-54806857D02*
X45840715Y-54844952D01*
X45878810Y-54883048D01*
X45916905Y-54959238D01*
X45916905Y-55073524D01*
X45878810Y-55149714D01*
X45840715Y-55187810D01*
X45764524Y-55225905D01*
X45459762Y-55225905D01*
X45459762Y-54425905D01*
X45726429Y-54425905D01*
X45802619Y-54464000D01*
X45840715Y-54502095D01*
X45878810Y-54578286D01*
X45878810Y-54654476D01*
X45840715Y-54730667D01*
X45802619Y-54768762D01*
X45726429Y-54806857D01*
X45459762Y-54806857D01*
X46145476Y-54425905D02*
X46602619Y-54425905D01*
X46374048Y-55225905D02*
X46374048Y-54425905D01*
X46793096Y-54425905D02*
X47288334Y-54425905D01*
X47021667Y-54730667D01*
X47135953Y-54730667D01*
X47212143Y-54768762D01*
X47250239Y-54806857D01*
X47288334Y-54883048D01*
X47288334Y-55073524D01*
X47250239Y-55149714D01*
X47212143Y-55187810D01*
X47135953Y-55225905D01*
X46907381Y-55225905D01*
X46831191Y-55187810D01*
X46793096Y-55149714D01*
X18929429Y-55568857D02*
X19043715Y-55606952D01*
X19081810Y-55645048D01*
X19119905Y-55721238D01*
X19119905Y-55835524D01*
X19081810Y-55911714D01*
X19043715Y-55949810D01*
X18967524Y-55987905D01*
X18662762Y-55987905D01*
X18662762Y-55187905D01*
X18929429Y-55187905D01*
X19005619Y-55226000D01*
X19043715Y-55264095D01*
X19081810Y-55340286D01*
X19081810Y-55416476D01*
X19043715Y-55492667D01*
X19005619Y-55530762D01*
X18929429Y-55568857D01*
X18662762Y-55568857D01*
X19348476Y-55187905D02*
X19805619Y-55187905D01*
X19577048Y-55987905D02*
X19577048Y-55187905D01*
X20491334Y-55987905D02*
X20034191Y-55987905D01*
X20262762Y-55987905D02*
X20262762Y-55187905D01*
X20186572Y-55302190D01*
X20110381Y-55378381D01*
X20034191Y-55416476D01*
X9042476Y-29025905D02*
X9042476Y-29673524D01*
X9080571Y-29749714D01*
X9118667Y-29787810D01*
X9194857Y-29825905D01*
X9347238Y-29825905D01*
X9423429Y-29787810D01*
X9461524Y-29749714D01*
X9499619Y-29673524D01*
X9499619Y-29025905D01*
X9804381Y-29025905D02*
X10337714Y-29025905D01*
X9994857Y-29825905D01*
X23666524Y-48494905D02*
X23666524Y-47694905D01*
X23971286Y-47694905D01*
X24047477Y-47733000D01*
X24085572Y-47771095D01*
X24123667Y-47847286D01*
X24123667Y-47961571D01*
X24085572Y-48037762D01*
X24047477Y-48075857D01*
X23971286Y-48113952D01*
X23666524Y-48113952D01*
X24885572Y-48494905D02*
X24428429Y-48494905D01*
X24657000Y-48494905D02*
X24657000Y-47694905D01*
X24580810Y-47809190D01*
X24504619Y-47885381D01*
X24428429Y-47923476D01*
X27851428Y-48494905D02*
X27851428Y-47694905D01*
X28118095Y-48266333D01*
X28384762Y-47694905D01*
X28384762Y-48494905D01*
X28918095Y-48113952D02*
X28918095Y-48494905D01*
X28651428Y-47694905D02*
X28918095Y-48113952D01*
X29184762Y-47694905D01*
X29413333Y-48456810D02*
X29527619Y-48494905D01*
X29718095Y-48494905D01*
X29794285Y-48456810D01*
X29832381Y-48418714D01*
X29870476Y-48342524D01*
X29870476Y-48266333D01*
X29832381Y-48190143D01*
X29794285Y-48152048D01*
X29718095Y-48113952D01*
X29565714Y-48075857D01*
X29489523Y-48037762D01*
X29451428Y-47999667D01*
X29413333Y-47923476D01*
X29413333Y-47847286D01*
X29451428Y-47771095D01*
X29489523Y-47733000D01*
X29565714Y-47694905D01*
X29756190Y-47694905D01*
X29870476Y-47733000D01*
X30137143Y-47694905D02*
X30670476Y-48494905D01*
X30670476Y-47694905D02*
X30137143Y-48494905D01*
X32003810Y-48494905D02*
X31546667Y-48494905D01*
X31775238Y-48494905D02*
X31775238Y-47694905D01*
X31699048Y-47809190D01*
X31622857Y-47885381D01*
X31546667Y-47923476D01*
X32346667Y-48418714D02*
X32384762Y-48456810D01*
X32346667Y-48494905D01*
X32308572Y-48456810D01*
X32346667Y-48418714D01*
X32346667Y-48494905D01*
X33108572Y-47694905D02*
X32727619Y-47694905D01*
X32689524Y-48075857D01*
X32727619Y-48037762D01*
X32803810Y-47999667D01*
X32994286Y-47999667D01*
X33070476Y-48037762D01*
X33108572Y-48075857D01*
X33146667Y-48152048D01*
X33146667Y-48342524D01*
X33108572Y-48418714D01*
X33070476Y-48456810D01*
X32994286Y-48494905D01*
X32803810Y-48494905D01*
X32727619Y-48456810D01*
X32689524Y-48418714D01*
X29178334Y-3498905D02*
X29178334Y-4070333D01*
X29140238Y-4184619D01*
X29064048Y-4260810D01*
X28949762Y-4298905D01*
X28873572Y-4298905D01*
X29559286Y-4298905D02*
X29559286Y-3498905D01*
X29864048Y-3498905D01*
X29940239Y-3537000D01*
X29978334Y-3575095D01*
X30016429Y-3651286D01*
X30016429Y-3765571D01*
X29978334Y-3841762D01*
X29940239Y-3879857D01*
X29864048Y-3917952D01*
X29559286Y-3917952D01*
X30397381Y-4298905D02*
X30549762Y-4298905D01*
X30625953Y-4260810D01*
X30664048Y-4222714D01*
X30740239Y-4108429D01*
X30778334Y-3956048D01*
X30778334Y-3651286D01*
X30740239Y-3575095D01*
X30702143Y-3537000D01*
X30625953Y-3498905D01*
X30473572Y-3498905D01*
X30397381Y-3537000D01*
X30359286Y-3575095D01*
X30321191Y-3651286D01*
X30321191Y-3841762D01*
X30359286Y-3917952D01*
X30397381Y-3956048D01*
X30473572Y-3994143D01*
X30625953Y-3994143D01*
X30702143Y-3956048D01*
X30740239Y-3917952D01*
X30778334Y-3841762D01*
X11588810Y-63988905D02*
X11322143Y-63607952D01*
X11131667Y-63988905D02*
X11131667Y-63188905D01*
X11436429Y-63188905D01*
X11512620Y-63227000D01*
X11550715Y-63265095D01*
X11588810Y-63341286D01*
X11588810Y-63455571D01*
X11550715Y-63531762D01*
X11512620Y-63569857D01*
X11436429Y-63607952D01*
X11131667Y-63607952D01*
X11817381Y-63188905D02*
X12084048Y-63988905D01*
X12350715Y-63188905D01*
X13036429Y-63988905D02*
X12579286Y-63988905D01*
X12807857Y-63988905D02*
X12807857Y-63188905D01*
X12731667Y-63303190D01*
X12655476Y-63379381D01*
X12579286Y-63417476D01*
X27228810Y-35744095D02*
X27152619Y-35706000D01*
X27076429Y-35629810D01*
X26962143Y-35515524D01*
X26885952Y-35477429D01*
X26809762Y-35477429D01*
X26847857Y-35667905D02*
X26771667Y-35629810D01*
X26695476Y-35553619D01*
X26657381Y-35401238D01*
X26657381Y-35134571D01*
X26695476Y-34982190D01*
X26771667Y-34906000D01*
X26847857Y-34867905D01*
X27000238Y-34867905D01*
X27076429Y-34906000D01*
X27152619Y-34982190D01*
X27190714Y-35134571D01*
X27190714Y-35401238D01*
X27152619Y-35553619D01*
X27076429Y-35629810D01*
X27000238Y-35667905D01*
X26847857Y-35667905D01*
X27495476Y-34944095D02*
X27533571Y-34906000D01*
X27609762Y-34867905D01*
X27800238Y-34867905D01*
X27876428Y-34906000D01*
X27914524Y-34944095D01*
X27952619Y-35020286D01*
X27952619Y-35096476D01*
X27914524Y-35210762D01*
X27457381Y-35667905D01*
X27952619Y-35667905D01*
X1187524Y-23856905D02*
X1187524Y-23056905D01*
X1492286Y-23056905D01*
X1568477Y-23095000D01*
X1606572Y-23133095D01*
X1644667Y-23209286D01*
X1644667Y-23323571D01*
X1606572Y-23399762D01*
X1568477Y-23437857D01*
X1492286Y-23475952D01*
X1187524Y-23475952D01*
X1949429Y-23133095D02*
X1987524Y-23095000D01*
X2063715Y-23056905D01*
X2254191Y-23056905D01*
X2330381Y-23095000D01*
X2368477Y-23133095D01*
X2406572Y-23209286D01*
X2406572Y-23285476D01*
X2368477Y-23399762D01*
X1911334Y-23856905D01*
X2406572Y-23856905D01*
X19272381Y-47567905D02*
X19272381Y-48139333D01*
X19234285Y-48253619D01*
X19158095Y-48329810D01*
X19043809Y-48367905D01*
X18967619Y-48367905D01*
X19653333Y-48367905D02*
X19653333Y-47567905D01*
X19958095Y-47567905D01*
X20034286Y-47606000D01*
X20072381Y-47644095D01*
X20110476Y-47720286D01*
X20110476Y-47834571D01*
X20072381Y-47910762D01*
X20034286Y-47948857D01*
X19958095Y-47986952D01*
X19653333Y-47986952D01*
X20872381Y-48367905D02*
X20415238Y-48367905D01*
X20643809Y-48367905D02*
X20643809Y-47567905D01*
X20567619Y-47682190D01*
X20491428Y-47758381D01*
X20415238Y-47796476D01*
X21367619Y-47567905D02*
X21443810Y-47567905D01*
X21520000Y-47606000D01*
X21558095Y-47644095D01*
X21596191Y-47720286D01*
X21634286Y-47872667D01*
X21634286Y-48063143D01*
X21596191Y-48215524D01*
X21558095Y-48291714D01*
X21520000Y-48329810D01*
X21443810Y-48367905D01*
X21367619Y-48367905D01*
X21291429Y-48329810D01*
X21253333Y-48291714D01*
X21215238Y-48215524D01*
X21177143Y-48063143D01*
X21177143Y-47872667D01*
X21215238Y-47720286D01*
X21253333Y-47644095D01*
X21291429Y-47606000D01*
X21367619Y-47567905D01*
X44418334Y-1466905D02*
X44418334Y-2038333D01*
X44380238Y-2152619D01*
X44304048Y-2228810D01*
X44189762Y-2266905D01*
X44113572Y-2266905D01*
X44799286Y-2266905D02*
X44799286Y-1466905D01*
X45104048Y-1466905D01*
X45180239Y-1505000D01*
X45218334Y-1543095D01*
X45256429Y-1619286D01*
X45256429Y-1733571D01*
X45218334Y-1809762D01*
X45180239Y-1847857D01*
X45104048Y-1885952D01*
X44799286Y-1885952D01*
X45713572Y-1809762D02*
X45637381Y-1771667D01*
X45599286Y-1733571D01*
X45561191Y-1657381D01*
X45561191Y-1619286D01*
X45599286Y-1543095D01*
X45637381Y-1505000D01*
X45713572Y-1466905D01*
X45865953Y-1466905D01*
X45942143Y-1505000D01*
X45980239Y-1543095D01*
X46018334Y-1619286D01*
X46018334Y-1657381D01*
X45980239Y-1733571D01*
X45942143Y-1771667D01*
X45865953Y-1809762D01*
X45713572Y-1809762D01*
X45637381Y-1847857D01*
X45599286Y-1885952D01*
X45561191Y-1962143D01*
X45561191Y-2114524D01*
X45599286Y-2190714D01*
X45637381Y-2228810D01*
X45713572Y-2266905D01*
X45865953Y-2266905D01*
X45942143Y-2228810D01*
X45980239Y-2190714D01*
X46018334Y-2114524D01*
X46018334Y-1962143D01*
X45980239Y-1885952D01*
X45942143Y-1847857D01*
X45865953Y-1809762D01*
X22828334Y-33597905D02*
X22828334Y-34169333D01*
X22790238Y-34283619D01*
X22714048Y-34359810D01*
X22599762Y-34397905D01*
X22523572Y-34397905D01*
X23209286Y-34397905D02*
X23209286Y-33597905D01*
X23514048Y-33597905D01*
X23590239Y-33636000D01*
X23628334Y-33674095D01*
X23666429Y-33750286D01*
X23666429Y-33864571D01*
X23628334Y-33940762D01*
X23590239Y-33978857D01*
X23514048Y-34016952D01*
X23209286Y-34016952D01*
X23933096Y-33597905D02*
X24466429Y-33597905D01*
X24123572Y-34397905D01*
X19653334Y-28771905D02*
X19653334Y-29343333D01*
X19615238Y-29457619D01*
X19539048Y-29533810D01*
X19424762Y-29571905D01*
X19348572Y-29571905D01*
X20034286Y-29571905D02*
X20034286Y-28771905D01*
X20339048Y-28771905D01*
X20415239Y-28810000D01*
X20453334Y-28848095D01*
X20491429Y-28924286D01*
X20491429Y-29038571D01*
X20453334Y-29114762D01*
X20415239Y-29152857D01*
X20339048Y-29190952D01*
X20034286Y-29190952D01*
X21177143Y-28771905D02*
X21024762Y-28771905D01*
X20948572Y-28810000D01*
X20910477Y-28848095D01*
X20834286Y-28962381D01*
X20796191Y-29114762D01*
X20796191Y-29419524D01*
X20834286Y-29495714D01*
X20872381Y-29533810D01*
X20948572Y-29571905D01*
X21100953Y-29571905D01*
X21177143Y-29533810D01*
X21215239Y-29495714D01*
X21253334Y-29419524D01*
X21253334Y-29229048D01*
X21215239Y-29152857D01*
X21177143Y-29114762D01*
X21100953Y-29076667D01*
X20948572Y-29076667D01*
X20872381Y-29114762D01*
X20834286Y-29152857D01*
X20796191Y-29229048D01*
X25241334Y-33597905D02*
X25241334Y-34169333D01*
X25203238Y-34283619D01*
X25127048Y-34359810D01*
X25012762Y-34397905D01*
X24936572Y-34397905D01*
X25622286Y-34397905D02*
X25622286Y-33597905D01*
X25927048Y-33597905D01*
X26003239Y-33636000D01*
X26041334Y-33674095D01*
X26079429Y-33750286D01*
X26079429Y-33864571D01*
X26041334Y-33940762D01*
X26003239Y-33978857D01*
X25927048Y-34016952D01*
X25622286Y-34016952D01*
X26803239Y-33597905D02*
X26422286Y-33597905D01*
X26384191Y-33978857D01*
X26422286Y-33940762D01*
X26498477Y-33902667D01*
X26688953Y-33902667D01*
X26765143Y-33940762D01*
X26803239Y-33978857D01*
X26841334Y-34055048D01*
X26841334Y-34245524D01*
X26803239Y-34321714D01*
X26765143Y-34359810D01*
X26688953Y-34397905D01*
X26498477Y-34397905D01*
X26422286Y-34359810D01*
X26384191Y-34321714D01*
X18637334Y-62553905D02*
X18637334Y-63125333D01*
X18599238Y-63239619D01*
X18523048Y-63315810D01*
X18408762Y-63353905D01*
X18332572Y-63353905D01*
X19018286Y-63353905D02*
X19018286Y-62553905D01*
X19323048Y-62553905D01*
X19399239Y-62592000D01*
X19437334Y-62630095D01*
X19475429Y-62706286D01*
X19475429Y-62820571D01*
X19437334Y-62896762D01*
X19399239Y-62934857D01*
X19323048Y-62972952D01*
X19018286Y-62972952D01*
X20161143Y-62820571D02*
X20161143Y-63353905D01*
X19970667Y-62515810D02*
X19780191Y-63087238D01*
X20275429Y-63087238D01*
X18383334Y-24326905D02*
X18383334Y-24898333D01*
X18345238Y-25012619D01*
X18269048Y-25088810D01*
X18154762Y-25126905D01*
X18078572Y-25126905D01*
X18764286Y-25126905D02*
X18764286Y-24326905D01*
X19069048Y-24326905D01*
X19145239Y-24365000D01*
X19183334Y-24403095D01*
X19221429Y-24479286D01*
X19221429Y-24593571D01*
X19183334Y-24669762D01*
X19145239Y-24707857D01*
X19069048Y-24745952D01*
X18764286Y-24745952D01*
X19488096Y-24326905D02*
X19983334Y-24326905D01*
X19716667Y-24631667D01*
X19830953Y-24631667D01*
X19907143Y-24669762D01*
X19945239Y-24707857D01*
X19983334Y-24784048D01*
X19983334Y-24974524D01*
X19945239Y-25050714D01*
X19907143Y-25088810D01*
X19830953Y-25126905D01*
X19602381Y-25126905D01*
X19526191Y-25088810D01*
X19488096Y-25050714D01*
X32861334Y-54298905D02*
X32861334Y-54870333D01*
X32823238Y-54984619D01*
X32747048Y-55060810D01*
X32632762Y-55098905D01*
X32556572Y-55098905D01*
X33242286Y-55098905D02*
X33242286Y-54298905D01*
X33547048Y-54298905D01*
X33623239Y-54337000D01*
X33661334Y-54375095D01*
X33699429Y-54451286D01*
X33699429Y-54565571D01*
X33661334Y-54641762D01*
X33623239Y-54679857D01*
X33547048Y-54717952D01*
X33242286Y-54717952D01*
X34004191Y-54375095D02*
X34042286Y-54337000D01*
X34118477Y-54298905D01*
X34308953Y-54298905D01*
X34385143Y-54337000D01*
X34423239Y-54375095D01*
X34461334Y-54451286D01*
X34461334Y-54527476D01*
X34423239Y-54641762D01*
X33966096Y-55098905D01*
X34461334Y-55098905D01*
X20796334Y-41852905D02*
X20796334Y-42424333D01*
X20758238Y-42538619D01*
X20682048Y-42614810D01*
X20567762Y-42652905D01*
X20491572Y-42652905D01*
X21177286Y-42652905D02*
X21177286Y-41852905D01*
X21482048Y-41852905D01*
X21558239Y-41891000D01*
X21596334Y-41929095D01*
X21634429Y-42005286D01*
X21634429Y-42119571D01*
X21596334Y-42195762D01*
X21558239Y-42233857D01*
X21482048Y-42271952D01*
X21177286Y-42271952D01*
X22396334Y-42652905D02*
X21939191Y-42652905D01*
X22167762Y-42652905D02*
X22167762Y-41852905D01*
X22091572Y-41967190D01*
X22015381Y-42043381D01*
X21939191Y-42081476D01*
X9899714Y-25177714D02*
X9861619Y-25215810D01*
X9747333Y-25253905D01*
X9671143Y-25253905D01*
X9556857Y-25215810D01*
X9480666Y-25139619D01*
X9442571Y-25063429D01*
X9404476Y-24911048D01*
X9404476Y-24796762D01*
X9442571Y-24644381D01*
X9480666Y-24568190D01*
X9556857Y-24492000D01*
X9671143Y-24453905D01*
X9747333Y-24453905D01*
X9861619Y-24492000D01*
X9899714Y-24530095D01*
X10661619Y-25253905D02*
X10204476Y-25253905D01*
X10433047Y-25253905D02*
X10433047Y-24453905D01*
X10356857Y-24568190D01*
X10280666Y-24644381D01*
X10204476Y-24682476D01*
X11347333Y-24453905D02*
X11194952Y-24453905D01*
X11118762Y-24492000D01*
X11080667Y-24530095D01*
X11004476Y-24644381D01*
X10966381Y-24796762D01*
X10966381Y-25101524D01*
X11004476Y-25177714D01*
X11042571Y-25215810D01*
X11118762Y-25253905D01*
X11271143Y-25253905D01*
X11347333Y-25215810D01*
X11385429Y-25177714D01*
X11423524Y-25101524D01*
X11423524Y-24911048D01*
X11385429Y-24834857D01*
X11347333Y-24796762D01*
X11271143Y-24758667D01*
X11118762Y-24758667D01*
X11042571Y-24796762D01*
X11004476Y-24834857D01*
X10966381Y-24911048D01*
X23996714Y-23018714D02*
X23958619Y-23056810D01*
X23844333Y-23094905D01*
X23768143Y-23094905D01*
X23653857Y-23056810D01*
X23577666Y-22980619D01*
X23539571Y-22904429D01*
X23501476Y-22752048D01*
X23501476Y-22637762D01*
X23539571Y-22485381D01*
X23577666Y-22409190D01*
X23653857Y-22333000D01*
X23768143Y-22294905D01*
X23844333Y-22294905D01*
X23958619Y-22333000D01*
X23996714Y-22371095D01*
X24758619Y-23094905D02*
X24301476Y-23094905D01*
X24530047Y-23094905D02*
X24530047Y-22294905D01*
X24453857Y-22409190D01*
X24377666Y-22485381D01*
X24301476Y-22523476D01*
X25520524Y-23094905D02*
X25063381Y-23094905D01*
X25291952Y-23094905D02*
X25291952Y-22294905D01*
X25215762Y-22409190D01*
X25139571Y-22485381D01*
X25063381Y-22523476D01*
X30219667Y-40036714D02*
X30181572Y-40074810D01*
X30067286Y-40112905D01*
X29991096Y-40112905D01*
X29876810Y-40074810D01*
X29800619Y-39998619D01*
X29762524Y-39922429D01*
X29724429Y-39770048D01*
X29724429Y-39655762D01*
X29762524Y-39503381D01*
X29800619Y-39427190D01*
X29876810Y-39351000D01*
X29991096Y-39312905D01*
X30067286Y-39312905D01*
X30181572Y-39351000D01*
X30219667Y-39389095D01*
X30524429Y-39389095D02*
X30562524Y-39351000D01*
X30638715Y-39312905D01*
X30829191Y-39312905D01*
X30905381Y-39351000D01*
X30943477Y-39389095D01*
X30981572Y-39465286D01*
X30981572Y-39541476D01*
X30943477Y-39655762D01*
X30486334Y-40112905D01*
X30981572Y-40112905D01*
X23723762Y-5213333D02*
X24104714Y-5213333D01*
X23647571Y-5441905D02*
X23914238Y-4641905D01*
X24180905Y-5441905D01*
X24447571Y-5441905D02*
X24447571Y-4641905D01*
X24904714Y-5441905D01*
X24904714Y-4641905D01*
X25171380Y-4641905D02*
X25628523Y-4641905D01*
X25399952Y-5441905D02*
X25399952Y-4641905D01*
X26314238Y-5441905D02*
X25857095Y-5441905D01*
X26085666Y-5441905D02*
X26085666Y-4641905D01*
X26009476Y-4756190D01*
X25933285Y-4832381D01*
X25857095Y-4870476D01*
X25393667Y-39985905D02*
X25127000Y-39604952D01*
X24936524Y-39985905D02*
X24936524Y-39185905D01*
X25241286Y-39185905D01*
X25317477Y-39224000D01*
X25355572Y-39262095D01*
X25393667Y-39338286D01*
X25393667Y-39452571D01*
X25355572Y-39528762D01*
X25317477Y-39566857D01*
X25241286Y-39604952D01*
X24936524Y-39604952D01*
X25660334Y-39185905D02*
X26155572Y-39185905D01*
X25888905Y-39490667D01*
X26003191Y-39490667D01*
X26079381Y-39528762D01*
X26117477Y-39566857D01*
X26155572Y-39643048D01*
X26155572Y-39833524D01*
X26117477Y-39909714D01*
X26079381Y-39947810D01*
X26003191Y-39985905D01*
X25774619Y-39985905D01*
X25698429Y-39947810D01*
X25660334Y-39909714D01*
X14852667Y-29698905D02*
X14586000Y-29317952D01*
X14395524Y-29698905D02*
X14395524Y-28898905D01*
X14700286Y-28898905D01*
X14776477Y-28937000D01*
X14814572Y-28975095D01*
X14852667Y-29051286D01*
X14852667Y-29165571D01*
X14814572Y-29241762D01*
X14776477Y-29279857D01*
X14700286Y-29317952D01*
X14395524Y-29317952D01*
X15538381Y-28898905D02*
X15386000Y-28898905D01*
X15309810Y-28937000D01*
X15271715Y-28975095D01*
X15195524Y-29089381D01*
X15157429Y-29241762D01*
X15157429Y-29546524D01*
X15195524Y-29622714D01*
X15233619Y-29660810D01*
X15309810Y-29698905D01*
X15462191Y-29698905D01*
X15538381Y-29660810D01*
X15576477Y-29622714D01*
X15614572Y-29546524D01*
X15614572Y-29356048D01*
X15576477Y-29279857D01*
X15538381Y-29241762D01*
X15462191Y-29203667D01*
X15309810Y-29203667D01*
X15233619Y-29241762D01*
X15195524Y-29279857D01*
X15157429Y-29356048D01*
X27044714Y-22383714D02*
X27006619Y-22421810D01*
X26892333Y-22459905D01*
X26816143Y-22459905D01*
X26701857Y-22421810D01*
X26625666Y-22345619D01*
X26587571Y-22269429D01*
X26549476Y-22117048D01*
X26549476Y-22002762D01*
X26587571Y-21850381D01*
X26625666Y-21774190D01*
X26701857Y-21698000D01*
X26816143Y-21659905D01*
X26892333Y-21659905D01*
X27006619Y-21698000D01*
X27044714Y-21736095D01*
X27806619Y-22459905D02*
X27349476Y-22459905D01*
X27578047Y-22459905D02*
X27578047Y-21659905D01*
X27501857Y-21774190D01*
X27425666Y-21850381D01*
X27349476Y-21888476D01*
X28301857Y-21659905D02*
X28378048Y-21659905D01*
X28454238Y-21698000D01*
X28492333Y-21736095D01*
X28530429Y-21812286D01*
X28568524Y-21964667D01*
X28568524Y-22155143D01*
X28530429Y-22307524D01*
X28492333Y-22383714D01*
X28454238Y-22421810D01*
X28378048Y-22459905D01*
X28301857Y-22459905D01*
X28225667Y-22421810D01*
X28187571Y-22383714D01*
X28149476Y-22307524D01*
X28111381Y-22155143D01*
X28111381Y-21964667D01*
X28149476Y-21812286D01*
X28187571Y-21736095D01*
X28225667Y-21698000D01*
X28301857Y-21659905D01*
X48558524Y-23348905D02*
X48558524Y-22548905D01*
X48863286Y-22548905D01*
X48939477Y-22587000D01*
X48977572Y-22625095D01*
X49015667Y-22701286D01*
X49015667Y-22815571D01*
X48977572Y-22891762D01*
X48939477Y-22929857D01*
X48863286Y-22967952D01*
X48558524Y-22967952D01*
X49701381Y-22815571D02*
X49701381Y-23348905D01*
X49510905Y-22510810D02*
X49320429Y-23082238D01*
X49815667Y-23082238D01*
X48558524Y-5949905D02*
X48558524Y-5149905D01*
X48863286Y-5149905D01*
X48939477Y-5188000D01*
X48977572Y-5226095D01*
X49015667Y-5302286D01*
X49015667Y-5416571D01*
X48977572Y-5492762D01*
X48939477Y-5530857D01*
X48863286Y-5568952D01*
X48558524Y-5568952D01*
X49282334Y-5149905D02*
X49777572Y-5149905D01*
X49510905Y-5454667D01*
X49625191Y-5454667D01*
X49701381Y-5492762D01*
X49739477Y-5530857D01*
X49777572Y-5607048D01*
X49777572Y-5797524D01*
X49739477Y-5873714D01*
X49701381Y-5911810D01*
X49625191Y-5949905D01*
X49396619Y-5949905D01*
X49320429Y-5911810D01*
X49282334Y-5873714D01*
X38741429Y-56203857D02*
X38855715Y-56241952D01*
X38893810Y-56280048D01*
X38931905Y-56356238D01*
X38931905Y-56470524D01*
X38893810Y-56546714D01*
X38855715Y-56584810D01*
X38779524Y-56622905D01*
X38474762Y-56622905D01*
X38474762Y-55822905D01*
X38741429Y-55822905D01*
X38817619Y-55861000D01*
X38855715Y-55899095D01*
X38893810Y-55975286D01*
X38893810Y-56051476D01*
X38855715Y-56127667D01*
X38817619Y-56165762D01*
X38741429Y-56203857D01*
X38474762Y-56203857D01*
X39160476Y-55822905D02*
X39617619Y-55822905D01*
X39389048Y-56622905D02*
X39389048Y-55822905D01*
X39846191Y-55899095D02*
X39884286Y-55861000D01*
X39960477Y-55822905D01*
X40150953Y-55822905D01*
X40227143Y-55861000D01*
X40265239Y-55899095D01*
X40303334Y-55975286D01*
X40303334Y-56051476D01*
X40265239Y-56165762D01*
X39808096Y-56622905D01*
X40303334Y-56622905D01*
X5867476Y-19881905D02*
X5867476Y-20529524D01*
X5905571Y-20605714D01*
X5943667Y-20643810D01*
X6019857Y-20681905D01*
X6172238Y-20681905D01*
X6248429Y-20643810D01*
X6286524Y-20605714D01*
X6324619Y-20529524D01*
X6324619Y-19881905D01*
X7048428Y-20148571D02*
X7048428Y-20681905D01*
X6857952Y-19843810D02*
X6667476Y-20415238D01*
X7162714Y-20415238D01*
X1168476Y-5276905D02*
X1168476Y-5924524D01*
X1206571Y-6000714D01*
X1244667Y-6038810D01*
X1320857Y-6076905D01*
X1473238Y-6076905D01*
X1549429Y-6038810D01*
X1587524Y-6000714D01*
X1625619Y-5924524D01*
X1625619Y-5276905D01*
X2387524Y-5276905D02*
X2006571Y-5276905D01*
X1968476Y-5657857D01*
X2006571Y-5619762D01*
X2082762Y-5581667D01*
X2273238Y-5581667D01*
X2349428Y-5619762D01*
X2387524Y-5657857D01*
X2425619Y-5734048D01*
X2425619Y-5924524D01*
X2387524Y-6000714D01*
X2349428Y-6038810D01*
X2273238Y-6076905D01*
X2082762Y-6076905D01*
X2006571Y-6038810D01*
X1968476Y-6000714D01*
X35951236Y-9848905D02*
X35951236Y-10496524D01*
X35989331Y-10572714D01*
X36027427Y-10610810D01*
X36103617Y-10648905D01*
X36255998Y-10648905D01*
X36332189Y-10610810D01*
X36370284Y-10572714D01*
X36408379Y-10496524D01*
X36408379Y-9848905D01*
X36827426Y-10648905D02*
X36979807Y-10648905D01*
X37055998Y-10610810D01*
X37094093Y-10572714D01*
X37170284Y-10458429D01*
X37208379Y-10306048D01*
X37208379Y-10001286D01*
X37170284Y-9925095D01*
X37132188Y-9887000D01*
X37055998Y-9848905D01*
X36903617Y-9848905D01*
X36827426Y-9887000D01*
X36789331Y-9925095D01*
X36751236Y-10001286D01*
X36751236Y-10191762D01*
X36789331Y-10267952D01*
X36827426Y-10306048D01*
X36903617Y-10344143D01*
X37055998Y-10344143D01*
X37132188Y-10306048D01*
X37170284Y-10267952D01*
X37208379Y-10191762D01*
X27438429Y-5149857D02*
X27552715Y-5187952D01*
X27590810Y-5226048D01*
X27628905Y-5302238D01*
X27628905Y-5416524D01*
X27590810Y-5492714D01*
X27552715Y-5530810D01*
X27476524Y-5568905D01*
X27171762Y-5568905D01*
X27171762Y-4768905D01*
X27438429Y-4768905D01*
X27514619Y-4807000D01*
X27552715Y-4845095D01*
X27590810Y-4921286D01*
X27590810Y-4997476D01*
X27552715Y-5073667D01*
X27514619Y-5111762D01*
X27438429Y-5149857D01*
X27171762Y-5149857D01*
X27857476Y-4768905D02*
X28314619Y-4768905D01*
X28086048Y-5568905D02*
X28086048Y-4768905D01*
X28924143Y-5035571D02*
X28924143Y-5568905D01*
X28733667Y-4730810D02*
X28543191Y-5302238D01*
X29038429Y-5302238D01*
M02*
