G04 #@! TF.FileFunction,Legend,Bot*
%FSLAX46Y46*%
G04 Gerber Fmt 4.6, Leading zero omitted, Abs format (unit mm)*
G04 Created by KiCad (PCBNEW 0.201509101502+6177~30~ubuntu14.04.1-product) date Sat 12 Sep 2015 10:17:21 PM CEST*
%MOMM*%
G01*
G04 APERTURE LIST*
%ADD10C,0.100000*%
%ADD11C,0.150000*%
%ADD12C,0.381000*%
%ADD13C,0.127000*%
%ADD14C,0.160000*%
G04 APERTURE END LIST*
D10*
D11*
X38198400Y-10415800D02*
G75*
G03X38198400Y-10415800I-100000J0D01*
G01*
X36380000Y-10615000D02*
X36880000Y-10615000D01*
X36380000Y-13515000D02*
X36380000Y-10615000D01*
X36880000Y-13515000D02*
X36380000Y-13515000D01*
X36880000Y-10615000D02*
X36880000Y-13515000D01*
X19295000Y-57642000D02*
X19295000Y-55642000D01*
X21345000Y-55642000D02*
X21345000Y-57642000D01*
X14648000Y-23968000D02*
X14648000Y-24113000D01*
X10498000Y-23968000D02*
X10498000Y-24113000D01*
X10498000Y-29118000D02*
X10498000Y-28973000D01*
X14648000Y-29118000D02*
X14648000Y-28973000D01*
X14648000Y-23968000D02*
X10498000Y-23968000D01*
X14648000Y-29118000D02*
X10498000Y-29118000D01*
X14648000Y-24113000D02*
X16048000Y-24113000D01*
X13056820Y-37515800D02*
X13056820Y-36814760D01*
X13056820Y-36814760D02*
X12807900Y-36814760D01*
X10257840Y-36814760D02*
X10057180Y-36814760D01*
X10057180Y-36814760D02*
X10057180Y-37515800D01*
X24425820Y-66367660D02*
X24425820Y-65666620D01*
X24425820Y-65666620D02*
X24176900Y-65666620D01*
X21626840Y-65666620D02*
X21426180Y-65666620D01*
X21426180Y-65666620D02*
X21426180Y-66367660D01*
X37203000Y-10248000D02*
X36203000Y-10248000D01*
X36203000Y-8548000D02*
X37203000Y-8548000D01*
X15376000Y-36973000D02*
X15376000Y-38973000D01*
X13326000Y-38973000D02*
X13326000Y-36973000D01*
X8137000Y-8906000D02*
X8137000Y-10906000D01*
X6087000Y-10906000D02*
X6087000Y-8906000D01*
X8387080Y-5704840D02*
X12186920Y-5704840D01*
X8387080Y-12405360D02*
X8387080Y-7406640D01*
X12186920Y-12402820D02*
X12186920Y-7404100D01*
X7383780Y-5201920D02*
X8483600Y-5201920D01*
X7884160Y-4602480D02*
X7884160Y-5801360D01*
X27327860Y-56763920D02*
X27327860Y-52964080D01*
X34028380Y-56763920D02*
X29029660Y-56763920D01*
X34025840Y-52964080D02*
X29027120Y-52964080D01*
X26824940Y-57767220D02*
X26824940Y-56667400D01*
X26225500Y-57266840D02*
X27424380Y-57266840D01*
X21579840Y-49143920D02*
X21579840Y-45344080D01*
X28280360Y-49143920D02*
X23281640Y-49143920D01*
X28277820Y-45344080D02*
X23279100Y-45344080D01*
X21076920Y-50147220D02*
X21076920Y-49047400D01*
X20477480Y-49646840D02*
X21676360Y-49646840D01*
X10629900Y-47879000D02*
X10629900Y-47678340D01*
X10629900Y-47879000D02*
X10629900Y-48079660D01*
X12230100Y-47978060D02*
X12230100Y-48079660D01*
X12230100Y-48079660D02*
X12230100Y-47678340D01*
X9661000Y-35957000D02*
X9661000Y-37957000D01*
X7611000Y-37957000D02*
X7611000Y-35957000D01*
X37576000Y-15884000D02*
X35576000Y-15884000D01*
X35576000Y-13834000D02*
X37576000Y-13834000D01*
X41520000Y-13700000D02*
X41520000Y-11700000D01*
X43570000Y-11700000D02*
X43570000Y-13700000D01*
X36355020Y-59888120D02*
X41556940Y-59888120D01*
X41556940Y-62285880D02*
X36355020Y-62285880D01*
X34356040Y-63385700D02*
X34356040Y-62285880D01*
X33756600Y-62885320D02*
X34955480Y-62885320D01*
X34960560Y-62285880D02*
X34960560Y-59888120D01*
X41716960Y-56824880D02*
X36515040Y-56824880D01*
X36515040Y-54427120D02*
X41716960Y-54427120D01*
X43715940Y-53327300D02*
X43715940Y-54427120D01*
X44315380Y-53827680D02*
X43116500Y-53827680D01*
X43111420Y-54427120D02*
X43111420Y-56824880D01*
X24686260Y-34079180D02*
X21287740Y-34079180D01*
X21287740Y-25829260D02*
X21287740Y-31828740D01*
X24686260Y-25829260D02*
X24686260Y-31828740D01*
X25689560Y-34582100D02*
X24589740Y-34582100D01*
X25189180Y-35181540D02*
X25189180Y-33982660D01*
X6366000Y-31487000D02*
X8366000Y-31487000D01*
X8366000Y-33537000D02*
X6366000Y-33537000D01*
X4309000Y-34037000D02*
X6359000Y-34037000D01*
X3604000Y-37337000D02*
X6359000Y-37337000D01*
X27037000Y-67322000D02*
X27037000Y-66122000D01*
X25287000Y-66122000D02*
X25287000Y-67322000D01*
X12735000Y-33133000D02*
X13935000Y-33133000D01*
X13935000Y-31383000D02*
X12735000Y-31383000D01*
X41261000Y-11856000D02*
X41261000Y-10656000D01*
X39511000Y-10656000D02*
X39511000Y-11856000D01*
X9638000Y-47082000D02*
X9638000Y-45882000D01*
X7888000Y-45882000D02*
X7888000Y-47082000D01*
X6844000Y-47082000D02*
X6844000Y-45882000D01*
X5094000Y-45882000D02*
X5094000Y-47082000D01*
X8601000Y-57164000D02*
X7401000Y-57164000D01*
X7401000Y-58914000D02*
X8601000Y-58914000D01*
X32018000Y-10703000D02*
X32018000Y-11903000D01*
X33768000Y-11903000D02*
X33768000Y-10703000D01*
D12*
X43688000Y-34671000D02*
X43815000Y-36830000D01*
X43815000Y-36830000D02*
X44196000Y-38608000D01*
X44196000Y-38608000D02*
X44831000Y-40386000D01*
X44831000Y-40386000D02*
X45466000Y-41783000D01*
X45466000Y-41783000D02*
X46355000Y-43180000D01*
X46355000Y-43180000D02*
X47244000Y-44323000D01*
X47244000Y-44323000D02*
X47371000Y-44831000D01*
X47371000Y-24511000D02*
X47244000Y-25019000D01*
X47244000Y-25019000D02*
X46355000Y-26162000D01*
X46355000Y-26162000D02*
X45466000Y-27559000D01*
X45466000Y-27559000D02*
X44831000Y-28956000D01*
X44831000Y-28956000D02*
X44196000Y-30734000D01*
X44196000Y-30734000D02*
X43815000Y-32512000D01*
X43815000Y-32512000D02*
X43688000Y-34671000D01*
X47371000Y-44831000D02*
G75*
G02X44831000Y-47371000I-2540000J0D01*
G01*
X44831000Y-21971000D02*
G75*
G02X47371000Y-24511000I0J-2540000D01*
G01*
X25527000Y-42367200D02*
X30657800Y-47371000D01*
X30657800Y-47371000D02*
X44805600Y-47371000D01*
X25527000Y-26974800D02*
X30657800Y-21971000D01*
X30657800Y-21971000D02*
X44805600Y-21971000D01*
X24714200Y-26974800D02*
X25527000Y-26974800D01*
X24714200Y-42367200D02*
X25527000Y-42367200D01*
X24714200Y-26974800D02*
X24714200Y-42367200D01*
D13*
X38785800Y-69189600D02*
X39979600Y-69189600D01*
X39979600Y-69189600D02*
X39979600Y-63779400D01*
X39979600Y-63779400D02*
X38773100Y-63779400D01*
X32778700Y-64757300D02*
X29870400Y-64757300D01*
X29870400Y-63614300D02*
X32778700Y-63614300D01*
X29870400Y-64757300D02*
X29870400Y-63614300D01*
X29870400Y-69354700D02*
X29870400Y-68211700D01*
X29870400Y-68211700D02*
X32778700Y-68211700D01*
X32778700Y-69354700D02*
X29870400Y-69354700D01*
X32778700Y-63131700D02*
X38773100Y-63131700D01*
X38773100Y-63131700D02*
X38773100Y-69837300D01*
X38773100Y-69837300D02*
X32778700Y-69837300D01*
X32778700Y-63131700D02*
X32778700Y-69837300D01*
D14*
X34899524Y-7816905D02*
X34899524Y-8464524D01*
X34861429Y-8540714D01*
X34823333Y-8578810D01*
X34747143Y-8616905D01*
X34594762Y-8616905D01*
X34518571Y-8578810D01*
X34480476Y-8540714D01*
X34442381Y-8464524D01*
X34442381Y-7816905D01*
X34099524Y-7893095D02*
X34061429Y-7855000D01*
X33985238Y-7816905D01*
X33794762Y-7816905D01*
X33718572Y-7855000D01*
X33680476Y-7893095D01*
X33642381Y-7969286D01*
X33642381Y-8045476D01*
X33680476Y-8159762D01*
X34137619Y-8616905D01*
X33642381Y-8616905D01*
X20453333Y-53371714D02*
X20491428Y-53409810D01*
X20605714Y-53447905D01*
X20681904Y-53447905D01*
X20796190Y-53409810D01*
X20872381Y-53333619D01*
X20910476Y-53257429D01*
X20948571Y-53105048D01*
X20948571Y-52990762D01*
X20910476Y-52838381D01*
X20872381Y-52762190D01*
X20796190Y-52686000D01*
X20681904Y-52647905D01*
X20605714Y-52647905D01*
X20491428Y-52686000D01*
X20453333Y-52724095D01*
X20072381Y-53447905D02*
X19920000Y-53447905D01*
X19843809Y-53409810D01*
X19805714Y-53371714D01*
X19729523Y-53257429D01*
X19691428Y-53105048D01*
X19691428Y-52800286D01*
X19729523Y-52724095D01*
X19767619Y-52686000D01*
X19843809Y-52647905D01*
X19996190Y-52647905D01*
X20072381Y-52686000D01*
X20110476Y-52724095D01*
X20148571Y-52800286D01*
X20148571Y-52990762D01*
X20110476Y-53066952D01*
X20072381Y-53105048D01*
X19996190Y-53143143D01*
X19843809Y-53143143D01*
X19767619Y-53105048D01*
X19729523Y-53066952D01*
X19691428Y-52990762D01*
X13182524Y-22929905D02*
X13182524Y-23577524D01*
X13144429Y-23653714D01*
X13106333Y-23691810D01*
X13030143Y-23729905D01*
X12877762Y-23729905D01*
X12801571Y-23691810D01*
X12763476Y-23653714D01*
X12725381Y-23577524D01*
X12725381Y-22929905D01*
X12001572Y-22929905D02*
X12153953Y-22929905D01*
X12230143Y-22968000D01*
X12268238Y-23006095D01*
X12344429Y-23120381D01*
X12382524Y-23272762D01*
X12382524Y-23577524D01*
X12344429Y-23653714D01*
X12306334Y-23691810D01*
X12230143Y-23729905D01*
X12077762Y-23729905D01*
X12001572Y-23691810D01*
X11963476Y-23653714D01*
X11925381Y-23577524D01*
X11925381Y-23387048D01*
X11963476Y-23310857D01*
X12001572Y-23272762D01*
X12077762Y-23234667D01*
X12230143Y-23234667D01*
X12306334Y-23272762D01*
X12344429Y-23310857D01*
X12382524Y-23387048D01*
X12166524Y-33978905D02*
X12166524Y-34626524D01*
X12128429Y-34702714D01*
X12090333Y-34740810D01*
X12014143Y-34778905D01*
X11861762Y-34778905D01*
X11785571Y-34740810D01*
X11747476Y-34702714D01*
X11709381Y-34626524D01*
X11709381Y-33978905D01*
X11404619Y-33978905D02*
X10909381Y-33978905D01*
X11176048Y-34283667D01*
X11061762Y-34283667D01*
X10985572Y-34321762D01*
X10947476Y-34359857D01*
X10909381Y-34436048D01*
X10909381Y-34626524D01*
X10947476Y-34702714D01*
X10985572Y-34740810D01*
X11061762Y-34778905D01*
X11290334Y-34778905D01*
X11366524Y-34740810D01*
X11404619Y-34702714D01*
X23063190Y-63684095D02*
X23139381Y-63646000D01*
X23215571Y-63569810D01*
X23329857Y-63455524D01*
X23406048Y-63417429D01*
X23482238Y-63417429D01*
X23444143Y-63607905D02*
X23520333Y-63569810D01*
X23596524Y-63493619D01*
X23634619Y-63341238D01*
X23634619Y-63074571D01*
X23596524Y-62922190D01*
X23520333Y-62846000D01*
X23444143Y-62807905D01*
X23291762Y-62807905D01*
X23215571Y-62846000D01*
X23139381Y-62922190D01*
X23101286Y-63074571D01*
X23101286Y-63341238D01*
X23139381Y-63493619D01*
X23215571Y-63569810D01*
X23291762Y-63607905D01*
X23444143Y-63607905D01*
X22339381Y-63607905D02*
X22796524Y-63607905D01*
X22567953Y-63607905D02*
X22567953Y-62807905D01*
X22644143Y-62922190D01*
X22720334Y-62998381D01*
X22796524Y-63036476D01*
X36836333Y-8235905D02*
X37217286Y-8235905D01*
X37217286Y-7435905D01*
X36150619Y-8235905D02*
X36607762Y-8235905D01*
X36379191Y-8235905D02*
X36379191Y-7435905D01*
X36455381Y-7550190D01*
X36531572Y-7626381D01*
X36607762Y-7664476D01*
X14865286Y-34575714D02*
X14903381Y-34613810D01*
X15017667Y-34651905D01*
X15093857Y-34651905D01*
X15208143Y-34613810D01*
X15284334Y-34537619D01*
X15322429Y-34461429D01*
X15360524Y-34309048D01*
X15360524Y-34194762D01*
X15322429Y-34042381D01*
X15284334Y-33966190D01*
X15208143Y-33890000D01*
X15093857Y-33851905D01*
X15017667Y-33851905D01*
X14903381Y-33890000D01*
X14865286Y-33928095D01*
X14103381Y-34651905D02*
X14560524Y-34651905D01*
X14331953Y-34651905D02*
X14331953Y-33851905D01*
X14408143Y-33966190D01*
X14484334Y-34042381D01*
X14560524Y-34080476D01*
X13836714Y-33851905D02*
X13303381Y-33851905D01*
X13646238Y-34651905D01*
X7118286Y-6254714D02*
X7156381Y-6292810D01*
X7270667Y-6330905D01*
X7346857Y-6330905D01*
X7461143Y-6292810D01*
X7537334Y-6216619D01*
X7575429Y-6140429D01*
X7613524Y-5988048D01*
X7613524Y-5873762D01*
X7575429Y-5721381D01*
X7537334Y-5645190D01*
X7461143Y-5569000D01*
X7346857Y-5530905D01*
X7270667Y-5530905D01*
X7156381Y-5569000D01*
X7118286Y-5607095D01*
X6356381Y-6330905D02*
X6813524Y-6330905D01*
X6584953Y-6330905D02*
X6584953Y-5530905D01*
X6661143Y-5645190D01*
X6737334Y-5721381D01*
X6813524Y-5759476D01*
X5632571Y-5530905D02*
X6013524Y-5530905D01*
X6051619Y-5911857D01*
X6013524Y-5873762D01*
X5937333Y-5835667D01*
X5746857Y-5835667D01*
X5670667Y-5873762D01*
X5632571Y-5911857D01*
X5594476Y-5988048D01*
X5594476Y-6178524D01*
X5632571Y-6254714D01*
X5670667Y-6292810D01*
X5746857Y-6330905D01*
X5937333Y-6330905D01*
X6013524Y-6292810D01*
X6051619Y-6254714D01*
X10801286Y-5365714D02*
X10839381Y-5403810D01*
X10953667Y-5441905D01*
X11029857Y-5441905D01*
X11144143Y-5403810D01*
X11220334Y-5327619D01*
X11258429Y-5251429D01*
X11296524Y-5099048D01*
X11296524Y-4984762D01*
X11258429Y-4832381D01*
X11220334Y-4756190D01*
X11144143Y-4680000D01*
X11029857Y-4641905D01*
X10953667Y-4641905D01*
X10839381Y-4680000D01*
X10801286Y-4718095D01*
X10039381Y-5441905D02*
X10496524Y-5441905D01*
X10267953Y-5441905D02*
X10267953Y-4641905D01*
X10344143Y-4756190D01*
X10420334Y-4832381D01*
X10496524Y-4870476D01*
X9353667Y-4908571D02*
X9353667Y-5441905D01*
X9544143Y-4603810D02*
X9734619Y-5175238D01*
X9239381Y-5175238D01*
X26549286Y-54895714D02*
X26587381Y-54933810D01*
X26701667Y-54971905D01*
X26777857Y-54971905D01*
X26892143Y-54933810D01*
X26968334Y-54857619D01*
X27006429Y-54781429D01*
X27044524Y-54629048D01*
X27044524Y-54514762D01*
X27006429Y-54362381D01*
X26968334Y-54286190D01*
X26892143Y-54210000D01*
X26777857Y-54171905D01*
X26701667Y-54171905D01*
X26587381Y-54210000D01*
X26549286Y-54248095D01*
X25787381Y-54971905D02*
X26244524Y-54971905D01*
X26015953Y-54971905D02*
X26015953Y-54171905D01*
X26092143Y-54286190D01*
X26168334Y-54362381D01*
X26244524Y-54400476D01*
X25520714Y-54171905D02*
X25025476Y-54171905D01*
X25292143Y-54476667D01*
X25177857Y-54476667D01*
X25101667Y-54514762D01*
X25063571Y-54552857D01*
X25025476Y-54629048D01*
X25025476Y-54819524D01*
X25063571Y-54895714D01*
X25101667Y-54933810D01*
X25177857Y-54971905D01*
X25406429Y-54971905D01*
X25482619Y-54933810D01*
X25520714Y-54895714D01*
X26295286Y-44989714D02*
X26333381Y-45027810D01*
X26447667Y-45065905D01*
X26523857Y-45065905D01*
X26638143Y-45027810D01*
X26714334Y-44951619D01*
X26752429Y-44875429D01*
X26790524Y-44723048D01*
X26790524Y-44608762D01*
X26752429Y-44456381D01*
X26714334Y-44380190D01*
X26638143Y-44304000D01*
X26523857Y-44265905D01*
X26447667Y-44265905D01*
X26333381Y-44304000D01*
X26295286Y-44342095D01*
X25533381Y-45065905D02*
X25990524Y-45065905D01*
X25761953Y-45065905D02*
X25761953Y-44265905D01*
X25838143Y-44380190D01*
X25914334Y-44456381D01*
X25990524Y-44494476D01*
X25228619Y-44342095D02*
X25190524Y-44304000D01*
X25114333Y-44265905D01*
X24923857Y-44265905D01*
X24847667Y-44304000D01*
X24809571Y-44342095D01*
X24771476Y-44418286D01*
X24771476Y-44494476D01*
X24809571Y-44608762D01*
X25266714Y-45065905D01*
X24771476Y-45065905D01*
X11563333Y-41179714D02*
X11601428Y-41217810D01*
X11715714Y-41255905D01*
X11791904Y-41255905D01*
X11906190Y-41217810D01*
X11982381Y-41141619D01*
X12020476Y-41065429D01*
X12058571Y-40913048D01*
X12058571Y-40798762D01*
X12020476Y-40646381D01*
X11982381Y-40570190D01*
X11906190Y-40494000D01*
X11791904Y-40455905D01*
X11715714Y-40455905D01*
X11601428Y-40494000D01*
X11563333Y-40532095D01*
X11106190Y-40798762D02*
X11182381Y-40760667D01*
X11220476Y-40722571D01*
X11258571Y-40646381D01*
X11258571Y-40608286D01*
X11220476Y-40532095D01*
X11182381Y-40494000D01*
X11106190Y-40455905D01*
X10953809Y-40455905D01*
X10877619Y-40494000D01*
X10839523Y-40532095D01*
X10801428Y-40608286D01*
X10801428Y-40646381D01*
X10839523Y-40722571D01*
X10877619Y-40760667D01*
X10953809Y-40798762D01*
X11106190Y-40798762D01*
X11182381Y-40836857D01*
X11220476Y-40874952D01*
X11258571Y-40951143D01*
X11258571Y-41103524D01*
X11220476Y-41179714D01*
X11182381Y-41217810D01*
X11106190Y-41255905D01*
X10953809Y-41255905D01*
X10877619Y-41217810D01*
X10839523Y-41179714D01*
X10801428Y-41103524D01*
X10801428Y-40951143D01*
X10839523Y-40874952D01*
X10877619Y-40836857D01*
X10953809Y-40798762D01*
X8769333Y-40925714D02*
X8807428Y-40963810D01*
X8921714Y-41001905D01*
X8997904Y-41001905D01*
X9112190Y-40963810D01*
X9188381Y-40887619D01*
X9226476Y-40811429D01*
X9264571Y-40659048D01*
X9264571Y-40544762D01*
X9226476Y-40392381D01*
X9188381Y-40316190D01*
X9112190Y-40240000D01*
X8997904Y-40201905D01*
X8921714Y-40201905D01*
X8807428Y-40240000D01*
X8769333Y-40278095D01*
X8502666Y-40201905D02*
X7969333Y-40201905D01*
X8312190Y-41001905D01*
X32772333Y-15144714D02*
X32810428Y-15182810D01*
X32924714Y-15220905D01*
X33000904Y-15220905D01*
X33115190Y-15182810D01*
X33191381Y-15106619D01*
X33229476Y-15030429D01*
X33267571Y-14878048D01*
X33267571Y-14763762D01*
X33229476Y-14611381D01*
X33191381Y-14535190D01*
X33115190Y-14459000D01*
X33000904Y-14420905D01*
X32924714Y-14420905D01*
X32810428Y-14459000D01*
X32772333Y-14497095D01*
X32086619Y-14420905D02*
X32239000Y-14420905D01*
X32315190Y-14459000D01*
X32353285Y-14497095D01*
X32429476Y-14611381D01*
X32467571Y-14763762D01*
X32467571Y-15068524D01*
X32429476Y-15144714D01*
X32391381Y-15182810D01*
X32315190Y-15220905D01*
X32162809Y-15220905D01*
X32086619Y-15182810D01*
X32048523Y-15144714D01*
X32010428Y-15068524D01*
X32010428Y-14878048D01*
X32048523Y-14801857D01*
X32086619Y-14763762D01*
X32162809Y-14725667D01*
X32315190Y-14725667D01*
X32391381Y-14763762D01*
X32429476Y-14801857D01*
X32467571Y-14878048D01*
X42678333Y-9429714D02*
X42716428Y-9467810D01*
X42830714Y-9505905D01*
X42906904Y-9505905D01*
X43021190Y-9467810D01*
X43097381Y-9391619D01*
X43135476Y-9315429D01*
X43173571Y-9163048D01*
X43173571Y-9048762D01*
X43135476Y-8896381D01*
X43097381Y-8820190D01*
X43021190Y-8744000D01*
X42906904Y-8705905D01*
X42830714Y-8705905D01*
X42716428Y-8744000D01*
X42678333Y-8782095D01*
X41954523Y-8705905D02*
X42335476Y-8705905D01*
X42373571Y-9086857D01*
X42335476Y-9048762D01*
X42259285Y-9010667D01*
X42068809Y-9010667D01*
X41992619Y-9048762D01*
X41954523Y-9086857D01*
X41916428Y-9163048D01*
X41916428Y-9353524D01*
X41954523Y-9429714D01*
X41992619Y-9467810D01*
X42068809Y-9505905D01*
X42259285Y-9505905D01*
X42335476Y-9467810D01*
X42373571Y-9429714D01*
X36963333Y-59467714D02*
X37001428Y-59505810D01*
X37115714Y-59543905D01*
X37191904Y-59543905D01*
X37306190Y-59505810D01*
X37382381Y-59429619D01*
X37420476Y-59353429D01*
X37458571Y-59201048D01*
X37458571Y-59086762D01*
X37420476Y-58934381D01*
X37382381Y-58858190D01*
X37306190Y-58782000D01*
X37191904Y-58743905D01*
X37115714Y-58743905D01*
X37001428Y-58782000D01*
X36963333Y-58820095D01*
X36277619Y-59010571D02*
X36277619Y-59543905D01*
X36468095Y-58705810D02*
X36658571Y-59277238D01*
X36163333Y-59277238D01*
X44202333Y-55911714D02*
X44240428Y-55949810D01*
X44354714Y-55987905D01*
X44430904Y-55987905D01*
X44545190Y-55949810D01*
X44621381Y-55873619D01*
X44659476Y-55797429D01*
X44697571Y-55645048D01*
X44697571Y-55530762D01*
X44659476Y-55378381D01*
X44621381Y-55302190D01*
X44545190Y-55226000D01*
X44430904Y-55187905D01*
X44354714Y-55187905D01*
X44240428Y-55226000D01*
X44202333Y-55264095D01*
X43935666Y-55187905D02*
X43440428Y-55187905D01*
X43707095Y-55492667D01*
X43592809Y-55492667D01*
X43516619Y-55530762D01*
X43478523Y-55568857D01*
X43440428Y-55645048D01*
X43440428Y-55835524D01*
X43478523Y-55911714D01*
X43516619Y-55949810D01*
X43592809Y-55987905D01*
X43821381Y-55987905D01*
X43897571Y-55949810D01*
X43935666Y-55911714D01*
X23120333Y-23653714D02*
X23158428Y-23691810D01*
X23272714Y-23729905D01*
X23348904Y-23729905D01*
X23463190Y-23691810D01*
X23539381Y-23615619D01*
X23577476Y-23539429D01*
X23615571Y-23387048D01*
X23615571Y-23272762D01*
X23577476Y-23120381D01*
X23539381Y-23044190D01*
X23463190Y-22968000D01*
X23348904Y-22929905D01*
X23272714Y-22929905D01*
X23158428Y-22968000D01*
X23120333Y-23006095D01*
X22358428Y-23729905D02*
X22815571Y-23729905D01*
X22587000Y-23729905D02*
X22587000Y-22929905D01*
X22663190Y-23044190D01*
X22739381Y-23120381D01*
X22815571Y-23158476D01*
D11*
X25258069Y-34198608D02*
X25258069Y-34960513D01*
X25639021Y-34579561D02*
X24877116Y-34579561D01*
D14*
X7880286Y-31146714D02*
X7918381Y-31184810D01*
X8032667Y-31222905D01*
X8108857Y-31222905D01*
X8223143Y-31184810D01*
X8299334Y-31108619D01*
X8337429Y-31032429D01*
X8375524Y-30880048D01*
X8375524Y-30765762D01*
X8337429Y-30613381D01*
X8299334Y-30537190D01*
X8223143Y-30461000D01*
X8108857Y-30422905D01*
X8032667Y-30422905D01*
X7918381Y-30461000D01*
X7880286Y-30499095D01*
X7118381Y-31222905D02*
X7575524Y-31222905D01*
X7346953Y-31222905D02*
X7346953Y-30422905D01*
X7423143Y-30537190D01*
X7499334Y-30613381D01*
X7575524Y-30651476D01*
X6661238Y-30765762D02*
X6737429Y-30727667D01*
X6775524Y-30689571D01*
X6813619Y-30613381D01*
X6813619Y-30575286D01*
X6775524Y-30499095D01*
X6737429Y-30461000D01*
X6661238Y-30422905D01*
X6508857Y-30422905D01*
X6432667Y-30461000D01*
X6394571Y-30499095D01*
X6356476Y-30575286D01*
X6356476Y-30613381D01*
X6394571Y-30689571D01*
X6432667Y-30727667D01*
X6508857Y-30765762D01*
X6661238Y-30765762D01*
X6737429Y-30803857D01*
X6775524Y-30841952D01*
X6813619Y-30918143D01*
X6813619Y-31070524D01*
X6775524Y-31146714D01*
X6737429Y-31184810D01*
X6661238Y-31222905D01*
X6508857Y-31222905D01*
X6432667Y-31184810D01*
X6394571Y-31146714D01*
X6356476Y-31070524D01*
X6356476Y-30918143D01*
X6394571Y-30841952D01*
X6432667Y-30803857D01*
X6508857Y-30765762D01*
X5943524Y-37661905D02*
X5943524Y-38309524D01*
X5905429Y-38385714D01*
X5867333Y-38423810D01*
X5791143Y-38461905D01*
X5638762Y-38461905D01*
X5562571Y-38423810D01*
X5524476Y-38385714D01*
X5486381Y-38309524D01*
X5486381Y-37661905D01*
X4991143Y-38004762D02*
X5067334Y-37966667D01*
X5105429Y-37928571D01*
X5143524Y-37852381D01*
X5143524Y-37814286D01*
X5105429Y-37738095D01*
X5067334Y-37700000D01*
X4991143Y-37661905D01*
X4838762Y-37661905D01*
X4762572Y-37700000D01*
X4724476Y-37738095D01*
X4686381Y-37814286D01*
X4686381Y-37852381D01*
X4724476Y-37928571D01*
X4762572Y-37966667D01*
X4838762Y-38004762D01*
X4991143Y-38004762D01*
X5067334Y-38042857D01*
X5105429Y-38080952D01*
X5143524Y-38157143D01*
X5143524Y-38309524D01*
X5105429Y-38385714D01*
X5067334Y-38423810D01*
X4991143Y-38461905D01*
X4838762Y-38461905D01*
X4762572Y-38423810D01*
X4724476Y-38385714D01*
X4686381Y-38309524D01*
X4686381Y-38157143D01*
X4724476Y-38080952D01*
X4762572Y-38042857D01*
X4838762Y-38004762D01*
X26295333Y-64369905D02*
X26562000Y-63988952D01*
X26752476Y-64369905D02*
X26752476Y-63569905D01*
X26447714Y-63569905D01*
X26371523Y-63608000D01*
X26333428Y-63646095D01*
X26295333Y-63722286D01*
X26295333Y-63836571D01*
X26333428Y-63912762D01*
X26371523Y-63950857D01*
X26447714Y-63988952D01*
X26752476Y-63988952D01*
X25990571Y-63646095D02*
X25952476Y-63608000D01*
X25876285Y-63569905D01*
X25685809Y-63569905D01*
X25609619Y-63608000D01*
X25571523Y-63646095D01*
X25533428Y-63722286D01*
X25533428Y-63798476D01*
X25571523Y-63912762D01*
X26028666Y-64369905D01*
X25533428Y-64369905D01*
X13468333Y-31095905D02*
X13735000Y-30714952D01*
X13925476Y-31095905D02*
X13925476Y-30295905D01*
X13620714Y-30295905D01*
X13544523Y-30334000D01*
X13506428Y-30372095D01*
X13468333Y-30448286D01*
X13468333Y-30562571D01*
X13506428Y-30638762D01*
X13544523Y-30676857D01*
X13620714Y-30714952D01*
X13925476Y-30714952D01*
X13087381Y-31095905D02*
X12935000Y-31095905D01*
X12858809Y-31057810D01*
X12820714Y-31019714D01*
X12744523Y-30905429D01*
X12706428Y-30753048D01*
X12706428Y-30448286D01*
X12744523Y-30372095D01*
X12782619Y-30334000D01*
X12858809Y-30295905D01*
X13011190Y-30295905D01*
X13087381Y-30334000D01*
X13125476Y-30372095D01*
X13163571Y-30448286D01*
X13163571Y-30638762D01*
X13125476Y-30714952D01*
X13087381Y-30753048D01*
X13011190Y-30791143D01*
X12858809Y-30791143D01*
X12782619Y-30753048D01*
X12744523Y-30714952D01*
X12706428Y-30638762D01*
X40519333Y-8870905D02*
X40786000Y-8489952D01*
X40976476Y-8870905D02*
X40976476Y-8070905D01*
X40671714Y-8070905D01*
X40595523Y-8109000D01*
X40557428Y-8147095D01*
X40519333Y-8223286D01*
X40519333Y-8337571D01*
X40557428Y-8413762D01*
X40595523Y-8451857D01*
X40671714Y-8489952D01*
X40976476Y-8489952D01*
X39757428Y-8870905D02*
X40214571Y-8870905D01*
X39986000Y-8870905D02*
X39986000Y-8070905D01*
X40062190Y-8185190D01*
X40138381Y-8261381D01*
X40214571Y-8299476D01*
X8896333Y-43541905D02*
X9163000Y-43160952D01*
X9353476Y-43541905D02*
X9353476Y-42741905D01*
X9048714Y-42741905D01*
X8972523Y-42780000D01*
X8934428Y-42818095D01*
X8896333Y-42894286D01*
X8896333Y-43008571D01*
X8934428Y-43084762D01*
X8972523Y-43122857D01*
X9048714Y-43160952D01*
X9353476Y-43160952D01*
X8210619Y-43008571D02*
X8210619Y-43541905D01*
X8401095Y-42703810D02*
X8591571Y-43275238D01*
X8096333Y-43275238D01*
X6102333Y-43541905D02*
X6369000Y-43160952D01*
X6559476Y-43541905D02*
X6559476Y-42741905D01*
X6254714Y-42741905D01*
X6178523Y-42780000D01*
X6140428Y-42818095D01*
X6102333Y-42894286D01*
X6102333Y-43008571D01*
X6140428Y-43084762D01*
X6178523Y-43122857D01*
X6254714Y-43160952D01*
X6559476Y-43160952D01*
X5378523Y-42741905D02*
X5759476Y-42741905D01*
X5797571Y-43122857D01*
X5759476Y-43084762D01*
X5683285Y-43046667D01*
X5492809Y-43046667D01*
X5416619Y-43084762D01*
X5378523Y-43122857D01*
X5340428Y-43199048D01*
X5340428Y-43389524D01*
X5378523Y-43465714D01*
X5416619Y-43503810D01*
X5492809Y-43541905D01*
X5683285Y-43541905D01*
X5759476Y-43503810D01*
X5797571Y-43465714D01*
X8134333Y-56876905D02*
X8401000Y-56495952D01*
X8591476Y-56876905D02*
X8591476Y-56076905D01*
X8286714Y-56076905D01*
X8210523Y-56115000D01*
X8172428Y-56153095D01*
X8134333Y-56229286D01*
X8134333Y-56343571D01*
X8172428Y-56419762D01*
X8210523Y-56457857D01*
X8286714Y-56495952D01*
X8591476Y-56495952D01*
X7867666Y-56076905D02*
X7334333Y-56076905D01*
X7677190Y-56876905D01*
X32391333Y-8997905D02*
X32658000Y-8616952D01*
X32848476Y-8997905D02*
X32848476Y-8197905D01*
X32543714Y-8197905D01*
X32467523Y-8236000D01*
X32429428Y-8274095D01*
X32391333Y-8350286D01*
X32391333Y-8464571D01*
X32429428Y-8540762D01*
X32467523Y-8578857D01*
X32543714Y-8616952D01*
X32848476Y-8616952D01*
X31934190Y-8540762D02*
X32010381Y-8502667D01*
X32048476Y-8464571D01*
X32086571Y-8388381D01*
X32086571Y-8350286D01*
X32048476Y-8274095D01*
X32010381Y-8236000D01*
X31934190Y-8197905D01*
X31781809Y-8197905D01*
X31705619Y-8236000D01*
X31667523Y-8274095D01*
X31629428Y-8350286D01*
X31629428Y-8388381D01*
X31667523Y-8464571D01*
X31705619Y-8502667D01*
X31781809Y-8540762D01*
X31934190Y-8540762D01*
X32010381Y-8578857D01*
X32048476Y-8616952D01*
X32086571Y-8693143D01*
X32086571Y-8845524D01*
X32048476Y-8921714D01*
X32010381Y-8959810D01*
X31934190Y-8997905D01*
X31781809Y-8997905D01*
X31705619Y-8959810D01*
X31667523Y-8921714D01*
X31629428Y-8845524D01*
X31629428Y-8693143D01*
X31667523Y-8616952D01*
X31705619Y-8578857D01*
X31781809Y-8540762D01*
X32251571Y-21024857D02*
X32137285Y-21062952D01*
X32099190Y-21101048D01*
X32061095Y-21177238D01*
X32061095Y-21291524D01*
X32099190Y-21367714D01*
X32137285Y-21405810D01*
X32213476Y-21443905D01*
X32518238Y-21443905D01*
X32518238Y-20643905D01*
X32251571Y-20643905D01*
X32175381Y-20682000D01*
X32137285Y-20720095D01*
X32099190Y-20796286D01*
X32099190Y-20872476D01*
X32137285Y-20948667D01*
X32175381Y-20986762D01*
X32251571Y-21024857D01*
X32518238Y-21024857D01*
X31832524Y-20643905D02*
X31375381Y-20643905D01*
X31603952Y-21443905D02*
X31603952Y-20643905D01*
X30727761Y-20643905D02*
X31108714Y-20643905D01*
X31146809Y-21024857D01*
X31108714Y-20986762D01*
X31032523Y-20948667D01*
X30842047Y-20948667D01*
X30765857Y-20986762D01*
X30727761Y-21024857D01*
X30689666Y-21101048D01*
X30689666Y-21291524D01*
X30727761Y-21367714D01*
X30765857Y-21405810D01*
X30842047Y-21443905D01*
X31032523Y-21443905D01*
X31108714Y-21405810D01*
X31146809Y-21367714D01*
X42519524Y-63442905D02*
X42519524Y-64090524D01*
X42481429Y-64166714D01*
X42443333Y-64204810D01*
X42367143Y-64242905D01*
X42214762Y-64242905D01*
X42138571Y-64204810D01*
X42100476Y-64166714D01*
X42062381Y-64090524D01*
X42062381Y-63442905D01*
X41262381Y-64242905D02*
X41719524Y-64242905D01*
X41490953Y-64242905D02*
X41490953Y-63442905D01*
X41567143Y-63557190D01*
X41643334Y-63633381D01*
X41719524Y-63671476D01*
M02*
