M48
;DRILL file {KiCad 0.201509101502+6177~30~ubuntu14.04.1-product} date Sat 12 Sep 2015 09:39:44 PM CEST
;FORMAT={-:-/ absolute / inch / decimal}
FMAT,2
INCH,TZ
T1C0.015
T2C0.028
T3C0.031
T4C0.032
T5C0.032
T6C0.039
T7C0.040
T8C0.043
T9C0.047
T10C0.051
T11C0.071
T12C0.075
T13C0.118
%
G90
G05
M72
T1
X0.0442Y-1.8751
X0.0442Y-1.9745
X0.047Y-0.7918
X0.047Y-0.8927
X0.0476Y-2.0743
X0.0645Y-1.2552
X0.1005Y-1.3763
X0.1164Y-1.7722
X0.1241Y-1.6775
X0.1245Y-1.1884
X0.1393Y-1.2282
X0.1404Y-1.3303
X0.1465Y-1.625
X0.1607Y-1.5546
X0.1705Y-0.8665
X0.1707Y-2.2536
X0.1713Y-2.0969
X0.1714Y-2.3155
X0.1828Y-1.5802
X0.2126Y-1.6005
X0.2146Y-0.7854
X0.2241Y-1.4882
X0.2256Y-1.5293
X0.2364Y-1.9398
X0.2543Y-1.6508
X0.2577Y-1.8331
X0.261Y-1.5523
X0.2676Y-0.2431
X0.2717Y-1.2176
X0.2719Y-0.182
X0.2805Y-0.8816
X0.2822Y-1.6705
X0.2989Y-1.9675
X0.3Y-0.65
X0.3Y-0.7
X0.3006Y-1.6979
X0.302Y-1.5956
X0.3108Y-1.8661
X0.3295Y-2.6214
X0.33Y-2.735
X0.3303Y-1.7208
X0.3347Y-1.0413
X0.3398Y-1.4424
X0.34Y-1.49
X0.3406Y-0.3113
X0.342Y-0.4714
X0.3476Y-0.2764
X0.35Y-0.65
X0.35Y-0.7
X0.3535Y-1.6578
X0.363Y-1.7268
X0.3649Y-1.9698
X0.3759Y-2.3426
X0.3865Y-1.6578
X0.3881Y-1.1875
X0.3891Y-1.1884
X0.3891Y-1.228
X0.392Y-1.9031
X0.3922Y-1.8091
X0.4Y-0.65
X0.4Y-0.7
X0.4029Y-0.9314
X0.4062Y-1.7743
X0.4163Y-1.8486
X0.4239Y-1.2354
X0.4422Y-1.0204
X0.45Y-0.65
X0.45Y-0.7
X0.4581Y-1.4582
X0.461Y-0.2603
X0.4636Y-1.1926
X0.4745Y-2.565
X0.4889Y-1.2181
X0.5Y-0.65
X0.5Y-0.7
X0.5052Y-1.0618
X0.5097Y-1.8277
X0.5099Y-1.5955
X0.5278Y-2.3287
X0.5331Y-1.9437
X0.546Y-1.4526
X0.55Y-0.6
X0.55Y-0.65
X0.55Y-0.7
X0.5558Y-0.97
X0.5682Y-0.1975
X0.5684Y-1.1883
X0.569Y-1.3161
X0.5998Y-0.3031
X0.6Y-0.35
X0.6Y-0.4
X0.6Y-0.45
X0.6Y-0.5
X0.6Y-0.55
X0.6Y-0.6
X0.6Y-0.65
X0.6Y-0.7
X0.6019Y-1.8871
X0.6068Y-1.5125
X0.6137Y-2.248
X0.6355Y-1.577
X0.65Y-0.3
X0.65Y-0.35
X0.65Y-0.4
X0.65Y-0.45
X0.65Y-0.5
X0.65Y-0.55
X0.65Y-0.6
X0.65Y-0.65
X0.65Y-0.7
X0.7Y-0.3
X0.7Y-0.35
X0.7Y-0.4
X0.7Y-0.45
X0.7Y-0.5
X0.7Y-0.55
X0.7Y-0.6
X0.7Y-0.65
X0.7Y-0.7
X0.75Y-0.3
X0.75Y-0.35
X0.75Y-0.4
X0.75Y-0.45
X0.75Y-0.5
X0.75Y-0.55
X0.75Y-0.6
X0.75Y-0.65
X0.75Y-0.7
X0.7733Y-1.4207
X0.7734Y-0.1848
X0.7776Y-1.6658
X0.7927Y-2.4585
X0.8Y-0.3
X0.8Y-0.35
X0.8Y-0.4
X0.8Y-0.45
X0.8Y-0.5
X0.8Y-0.55
X0.8Y-0.6
X0.8Y-0.65
X0.8Y-0.7
X0.8266Y-0.9692
X0.8381Y-2.7323
X0.8484Y-1.6389
X0.85Y-0.3
X0.85Y-0.35
X0.85Y-0.4
X0.85Y-0.45
X0.85Y-0.5
X0.85Y-0.55
X0.85Y-0.6
X0.85Y-0.65
X0.85Y-0.7
X0.8533Y-2.5657
X0.8621Y-1.3725
X0.8785Y-2.703
X0.8996Y-1.9904
X0.9Y-0.3
X0.9Y-0.35
X0.9Y-0.4
X0.9Y-0.45
X0.9Y-0.5
X0.9Y-0.55
X0.9Y-0.6
X0.9Y-0.65
X0.9Y-0.7
X0.9057Y-1.1197
X0.9095Y-2.0935
X0.9281Y-0.08
X0.95Y-0.3
X0.95Y-0.35
X0.95Y-0.4
X0.95Y-0.45
X0.95Y-0.5
X0.95Y-0.55
X0.95Y-0.6
X0.95Y-0.65
X0.95Y-0.7
X0.95Y-0.75
X0.95Y-0.8
X0.95Y-0.85
X0.9521Y-0.1687
X0.9595Y-0.0307
X0.9598Y-2.377
X0.9661Y-1.2108
X0.9672Y-2.6518
X0.9676Y-1.2927
X0.9699Y-1.3816
X0.9891Y-1.6731
X0.9946Y-2.5825
X0.9967Y-1.9212
X1.Y-0.3
X1.Y-0.35
X1.Y-0.4
X1.Y-0.45
X1.Y-0.5
X1.Y-0.55
X1.Y-0.6
X1.Y-0.65
X1.Y-0.7
X1.Y-0.75
X1.Y-0.8
X1.Y-0.85
X1.0046Y-1.5828
X1.018Y-1.5133
X1.05Y-0.3
X1.05Y-0.35
X1.05Y-0.4
X1.05Y-0.45
X1.05Y-0.5
X1.05Y-0.55
X1.05Y-0.6
X1.05Y-0.65
X1.05Y-0.7
X1.05Y-0.75
X1.05Y-0.8
X1.05Y-0.85
X1.0619Y-1.5225
X1.087Y-0.1699
X1.0901Y-0.0301
X1.1Y-0.3
X1.1Y-0.35
X1.1Y-0.4
X1.1Y-0.45
X1.1Y-0.5
X1.1Y-0.55
X1.1Y-0.6
X1.1Y-0.65
X1.1Y-0.7
X1.1Y-0.75
X1.1Y-0.8
X1.1Y-0.85
X1.1026Y-2.3779
X1.1202Y-0.1172
X1.1208Y-1.6951
X1.1235Y-2.6191
X1.1333Y-2.3221
X1.15Y-0.3
X1.15Y-0.35
X1.15Y-0.4
X1.15Y-0.45
X1.15Y-0.5
X1.15Y-0.55
X1.15Y-0.6
X1.15Y-0.65
X1.15Y-0.7
X1.15Y-0.75
X1.15Y-0.8
X1.15Y-0.85
X1.15Y-2.58
X1.1591Y-2.4491
X1.1742Y-0.9496
X1.1885Y-1.4297
X1.2Y-0.3
X1.2237Y-1.6705
X1.2375Y-1.2205
X1.2442Y-1.8409
X1.2457Y-2.464
X1.2537Y-0.748
X1.2596Y-1.7047
X1.2678Y-0.3024
X1.2752Y-0.2057
X1.2964Y-0.2738
X1.3039Y-1.365
X1.3166Y-0.3833
X1.3214Y-1.9146
X1.3257Y-0.6776
X1.3348Y-0.5124
X1.3755Y-0.2342
X1.3844Y-2.2444
X1.3945Y-2.1768
X1.405Y-1.8926
X1.4116Y-2.3082
X1.4171Y-0.6776
X1.4288Y-0.5436
X1.442Y-0.446
X1.4798Y-1.5414
X1.48Y-1.1771
X1.5001Y-0.417
X1.5108Y-2.1595
X1.5462Y-0.5124
X1.6125Y-2.4525
X1.6422Y-0.647
X1.6485Y-0.7257
X1.6547Y-1.9106
X1.6584Y-2.1323
X1.6625Y-1.365
X1.67Y-2.3549
X1.689Y-0.1576
X1.694Y-0.4179
X1.7254Y-2.5339
X1.7266Y-1.882
X1.7445Y-2.1423
X1.745Y-2.3
X1.745Y-2.4525
X1.7634Y-0.6707
X1.769Y-0.4776
X1.777Y-0.8249
X1.779Y-0.2426
X1.7915Y-1.7393
X1.794Y-0.0526
X1.8248Y-1.9392
X1.839Y-1.5226
X1.8525Y-1.7422
X1.864Y-0.3176
X1.8806Y-1.6746
X1.902Y-2.2614
X1.9085Y-1.7352
X1.914Y-2.4976
T2
X1.5106Y-2.3
X1.5894Y-2.3
T3
X0.325Y-0.1307
X0.325Y-0.8039
X0.4037Y-0.1307
X0.4037Y-0.8039
X0.4825Y-0.1307
X0.4825Y-0.8039
X0.5612Y-0.1307
X0.5612Y-0.8039
X0.64Y-0.1307
X0.64Y-0.8039
X0.7187Y-0.1307
X0.7187Y-0.8039
X0.7974Y-0.1307
X0.7974Y-0.8039
X0.8762Y-0.1307
X0.8762Y-0.8039
T4
X0.075Y-1.325
X0.075Y-1.425
X0.075Y-1.525
X0.075Y-1.625
X0.075Y-1.725
X0.075Y-1.825
X0.075Y-1.925
X0.075Y-2.025
X0.075Y-2.125
X0.075Y-2.225
X0.075Y-2.325
X0.075Y-2.425
X0.375Y-2.425
X0.475Y-2.425
X0.575Y-1.675
X0.575Y-1.775
X0.575Y-2.075
X0.575Y-2.175
X0.575Y-2.425
X0.675Y-1.325
X0.675Y-1.425
X0.675Y-1.525
X0.675Y-1.625
X0.675Y-1.725
X0.675Y-1.825
X0.675Y-1.925
X0.675Y-2.025
X0.675Y-2.125
X0.675Y-2.225
X0.675Y-2.325
X0.675Y-2.425
T5
X0.375Y-2.56
X0.475Y-2.66
X0.575Y-2.56
T6
X0.45Y-1.6881
X0.45Y-2.0819
T7
X0.075Y-0.305
X0.075Y-0.405
X0.075Y-0.505
X0.075Y-0.605
X0.075Y-1.
X0.075Y-1.1
X0.175Y-0.305
X0.175Y-0.405
X0.175Y-0.505
X0.175Y-0.605
X0.175Y-1.
X0.175Y-1.1
X0.275Y-1.
X0.275Y-1.1
X0.7Y-1.05
X0.735Y-2.555
X0.735Y-2.655
X0.795Y-1.74
X0.8Y-1.05
X0.8Y-1.225
X0.8Y-1.325
X0.8Y-1.475
X0.8Y-1.575
X0.8Y-1.975
X0.8Y-2.075
X0.895Y-1.74
X0.9Y-1.475
X0.9Y-1.575
X0.975Y-1.975
X0.975Y-2.075
X1.075Y-1.975
X1.075Y-2.075
X1.175Y-0.075
X1.175Y-1.975
X1.175Y-2.075
X1.275Y-0.075
X1.275Y-1.975
X1.275Y-2.075
X1.32Y-2.245
X1.32Y-2.345
X1.32Y-2.445
X1.375Y-0.075
X1.375Y-1.975
X1.375Y-2.075
X1.475Y-0.075
X1.475Y-1.975
X1.475Y-2.075
X1.575Y-0.075
X1.575Y-1.975
X1.575Y-2.075
X1.675Y-0.075
X1.675Y-1.975
X1.675Y-2.075
X1.775Y-1.975
X1.775Y-2.075
X1.875Y-1.975
X1.875Y-2.075
X1.935Y-0.305
X1.935Y-0.405
X1.935Y-0.505
X1.935Y-0.625
X1.935Y-0.725
X1.935Y-0.825
T8
X1.825Y-2.25
X1.825Y-2.35
T9
X1.025Y-0.1
T10
X1.515Y-0.261
X1.515Y-1.75
T11
X1.8339Y-0.261
T12
X1.48Y-0.865
X1.48Y-1.865
T13
X0.1732Y-0.1614
X0.1732Y-2.5945
X1.815Y-0.1614
X1.815Y-2.5945
T6
X0.9458Y-2.2139G85X1.0442Y-2.2139
G05
X0.9556Y-2.4502G85X1.0343Y-2.4502
G05
X1.2037Y-2.2828G85X1.2037Y-2.3615
G05
T0
M30
