G04 #@! TF.FileFunction,Profile,NP*
%FSLAX46Y46*%
G04 Gerber Fmt 4.6, Leading zero omitted, Abs format (unit mm)*
G04 Created by KiCad (PCBNEW 0.201509101502+6177~30~ubuntu14.04.1-product) date Sat 12 Sep 2015 09:47:26 PM CEST*
%MOMM*%
G01*
G04 APERTURE LIST*
%ADD10C,0.100000*%
%ADD11C,0.150000*%
G04 APERTURE END LIST*
D10*
D11*
X47500000Y-70000000D02*
G75*
G03X50500000Y-67000000I0J3000000D01*
G01*
X0Y-67000000D02*
G75*
G03X3000000Y-70000000I3000000J0D01*
G01*
X50500000Y-3000000D02*
G75*
G03X47500000Y0I-3000000J0D01*
G01*
X3000000Y0D02*
G75*
G03X0Y-3000000I0J-3000000D01*
G01*
X1666666Y0D02*
G75*
G03X1666666Y0I-1666666J0D01*
G01*
X-2500000Y0D02*
X2500000Y0D01*
X0Y2500000D02*
X0Y-2500000D01*
X1666666Y0D02*
G75*
G03X1666666Y0I-1666666J0D01*
G01*
X-2500000Y0D02*
X2500000Y0D01*
X0Y2500000D02*
X0Y-2500000D01*
X1666666Y0D02*
G75*
G03X1666666Y0I-1666666J0D01*
G01*
X-2500000Y0D02*
X2500000Y0D01*
X0Y2500000D02*
X0Y-2500000D01*
X1666666Y0D02*
G75*
G03X1666666Y0I-1666666J0D01*
G01*
X-2500000Y0D02*
X2500000Y0D01*
X0Y2500000D02*
X0Y-2500000D01*
X1666666Y0D02*
G75*
G03X1666666Y0I-1666666J0D01*
G01*
X-2500000Y0D02*
X2500000Y0D01*
X0Y2500000D02*
X0Y-2500000D01*
X0Y-67000000D02*
X0Y-3000000D01*
X47500000Y-70000000D02*
X3000000Y-70000000D01*
X50500000Y-3000000D02*
X50500000Y-67000000D01*
X3000000Y0D02*
X47500000Y0D01*
M02*
