G04 #@! TF.FileFunction,Soldermask,Top*
%FSLAX46Y46*%
G04 Gerber Fmt 4.6, Leading zero omitted, Abs format (unit mm)*
G04 Created by KiCad (PCBNEW 0.201509101502+6177~30~ubuntu14.04.1-product) date Sat 12 Sep 2015 10:17:21 PM CEST*
%MOMM*%
G01*
G04 APERTURE LIST*
%ADD10C,0.100000*%
%ADD11O,2.398980X2.398980*%
%ADD12R,2.398980X2.398980*%
%ADD13O,2.398980X4.400500*%
%ADD14O,4.400500X2.398980*%
%ADD15O,4.900880X2.398980*%
%ADD16O,2.599640X1.901140*%
%ADD17O,1.901140X2.599640*%
%ADD18O,2.127200X2.127200*%
%ADD19R,2.127200X2.127200*%
%ADD20R,2.127200X2.432000*%
%ADD21O,2.127200X2.432000*%
%ADD22C,1.924000*%
%ADD23R,2.200860X1.200100*%
%ADD24R,2.432000X2.432000*%
%ADD25O,2.432000X2.432000*%
%ADD26R,2.432000X2.127200*%
%ADD27O,2.432000X2.127200*%
%ADD28R,2.000000X2.400000*%
%ADD29R,2.200860X3.549600*%
%ADD30C,3.900120*%
%ADD31R,1.700000X1.900000*%
%ADD32R,1.598880X2.099260*%
%ADD33O,1.598880X2.099260*%
%ADD34C,3.400000*%
%ADD35R,1.600000X3.400000*%
%ADD36R,2.127200X2.400000*%
%ADD37C,2.127200*%
%ADD38R,1.149300X0.798780*%
%ADD39R,2.940000X2.940000*%
%ADD40C,2.940000*%
G04 APERTURE END LIST*
D10*
D11*
X46355000Y-59690000D03*
D12*
X46355000Y-57150000D03*
D13*
X30573980Y-58983880D03*
D14*
X25273000Y-62235080D03*
D15*
X25273000Y-56233060D03*
D16*
X14605000Y-52705000D03*
X14605000Y-55245000D03*
X1905000Y-33655000D03*
X1905000Y-36195000D03*
X1905000Y-38735000D03*
X1905000Y-41275000D03*
X1905000Y-43815000D03*
X1905000Y-46355000D03*
X1905000Y-48895000D03*
X1905000Y-51435000D03*
X1905000Y-53975000D03*
X1905000Y-56515000D03*
X1905000Y-59055000D03*
X1905000Y-61595000D03*
X17145000Y-61595000D03*
X17145000Y-59055000D03*
X17145000Y-56515000D03*
X17145000Y-53975000D03*
X17145000Y-51435000D03*
X17145000Y-48895000D03*
X17145000Y-46355000D03*
X17145000Y-43815000D03*
X17145000Y-41275000D03*
X17145000Y-38735000D03*
X17145000Y-36195000D03*
X17145000Y-33655000D03*
X14605000Y-45085000D03*
X14605000Y-42545000D03*
D17*
X14605000Y-61595000D03*
X12065000Y-61595000D03*
X9525000Y-61595000D03*
D18*
X47625000Y-50165000D03*
X47625000Y-52705000D03*
X45085000Y-50165000D03*
X45085000Y-52705000D03*
X42545000Y-50165000D03*
X42545000Y-52705000D03*
X40005000Y-50165000D03*
X40005000Y-52705000D03*
X37465000Y-50165000D03*
X37465000Y-52705000D03*
X34925000Y-50165000D03*
X34925000Y-52705000D03*
D19*
X24765000Y-52705000D03*
D18*
X24765000Y-50165000D03*
X27305000Y-52705000D03*
X27305000Y-50165000D03*
X29845000Y-52705000D03*
X29845000Y-50165000D03*
X32385000Y-52705000D03*
X32385000Y-50165000D03*
D20*
X34925000Y-1905000D03*
D21*
X32385000Y-1905000D03*
X29845000Y-1905000D03*
D22*
X12065000Y-67564000D03*
X9525000Y-65024000D03*
X14605000Y-65024000D03*
D23*
X28806140Y-38542000D03*
X28806140Y-36642000D03*
X25803860Y-37592000D03*
D19*
X6985000Y-25400000D03*
D18*
X6985000Y-27940000D03*
X4445000Y-25400000D03*
X4445000Y-27940000D03*
X1905000Y-25400000D03*
X1905000Y-27940000D03*
D24*
X20320000Y-50165000D03*
D25*
X20320000Y-52705000D03*
D20*
X37465000Y-1905000D03*
D21*
X40005000Y-1905000D03*
X42545000Y-1905000D03*
D24*
X20320000Y-40005000D03*
D25*
X20320000Y-37465000D03*
D24*
X20320000Y-33655000D03*
D25*
X20320000Y-31115000D03*
D24*
X22860000Y-40005000D03*
D25*
X22860000Y-37465000D03*
D24*
X18669000Y-67437000D03*
D25*
X18669000Y-64897000D03*
D24*
X20320000Y-26670000D03*
D25*
X17780000Y-26670000D03*
D26*
X33528000Y-57023000D03*
D27*
X33528000Y-59563000D03*
X33528000Y-62103000D03*
D24*
X22733000Y-44196000D03*
D25*
X20193000Y-44196000D03*
D28*
X12700000Y-29051000D03*
X12700000Y-25051000D03*
X24511000Y-28416000D03*
X24511000Y-24416000D03*
D12*
X11430000Y-52880260D03*
X11430000Y-42877740D03*
D29*
X28448000Y-40927020D03*
X28448000Y-45178980D03*
D30*
X26035000Y-2540000D03*
D31*
X25527000Y-41068000D03*
X25527000Y-43768000D03*
X14986000Y-24939000D03*
X14986000Y-27639000D03*
D29*
X27559000Y-29049980D03*
X27559000Y-24798020D03*
D26*
X49149000Y-15875000D03*
D27*
X49149000Y-18415000D03*
X49149000Y-20955000D03*
D26*
X49149000Y-7747000D03*
D27*
X49149000Y-10287000D03*
X49149000Y-12827000D03*
D32*
X38369240Y-58420000D03*
D33*
X40370760Y-58420000D03*
D34*
X37592000Y-21971000D03*
X37592000Y-47371000D03*
D35*
X8255000Y-21720000D03*
X10255000Y-21720000D03*
X12255000Y-21720000D03*
X14255000Y-21720000D03*
X16255000Y-21720000D03*
X18255000Y-21720000D03*
X20255000Y-21720000D03*
X22255000Y-21720000D03*
X22255000Y-2020000D03*
X20255000Y-2020000D03*
X18255000Y-2020000D03*
X16255000Y-2020000D03*
X14255000Y-2020000D03*
X12255000Y-2020000D03*
X10255000Y-2020000D03*
X8255000Y-2020000D03*
D36*
X8255000Y-20420000D03*
D37*
X10255000Y-20420000D03*
X12255000Y-20420000D03*
X14255000Y-20420000D03*
X16255000Y-20420000D03*
X18255000Y-20420000D03*
X20255000Y-20420000D03*
X22255000Y-20420000D03*
X22255000Y-3320000D03*
X20255000Y-3320000D03*
X18255000Y-3320000D03*
X16255000Y-3320000D03*
X14255000Y-3320000D03*
X12255000Y-3320000D03*
X10255000Y-3320000D03*
X8255000Y-3320000D03*
D18*
X1905000Y-15367000D03*
X4445000Y-15367000D03*
X1905000Y-12827000D03*
X4445000Y-12827000D03*
X1905000Y-10287000D03*
X4445000Y-10287000D03*
D19*
X1905000Y-7747000D03*
D18*
X4445000Y-7747000D03*
D38*
X35676840Y-11303000D03*
X35676840Y-11953240D03*
X35676840Y-12603480D03*
X37576760Y-12603480D03*
X37576760Y-11953240D03*
X37576760Y-11303000D03*
D39*
X38481000Y-6630000D03*
D40*
X38481000Y-44450000D03*
M02*
