M48
;DRILL file {KiCad 0.201509101502+6177~30~ubuntu14.04.1-product} date Sat 12 Sep 2015 09:59:37 PM CEST
;FORMAT={-:-/ absolute / inch / decimal}
FMAT,2
INCH,TZ
T1C0.015
T2C0.028
T3C0.031
T4C0.032
T5C0.032
T6C0.039
T7C0.040
T8C0.043
T9C0.047
T10C0.051
T11C0.075
T12C0.078
T13C0.118
%
G90
G05
M72
T1
X0.44Y-0.5
X0.55Y-0.495
X0.63Y-0.215
X0.71Y-0.394
X0.7552Y-0.322
X0.7558Y-0.1495
X0.77Y-2.2428
X0.79Y-0.503
X0.83Y-0.257
X1.027Y-0.714
X1.0607Y-0.503
X1.061Y-2.549
X1.1351Y-1.3003
X1.1499Y-0.2876
X1.175Y-0.435
X1.175Y-0.545
X1.1779Y-0.2596
X1.197Y-1.498
X1.2017Y-1.3721
X1.208Y-1.92
X1.211Y-0.713
X1.2297Y-1.102
X1.2889Y-1.3003
X1.3Y-2.65
X1.3Y-2.7
X1.3Y-2.75
X1.335Y-2.09
X1.35Y-2.55
X1.35Y-2.6
X1.35Y-2.65
X1.35Y-2.7
X1.35Y-2.75
X1.35Y-2.8
X1.4Y-2.3
X1.4Y-2.35
X1.4Y-2.4
X1.4Y-2.45
X1.4Y-2.5
X1.4Y-2.55
X1.4Y-2.6
X1.4Y-2.65
X1.4Y-2.7
X1.4Y-2.75
X1.4Y-2.8
X1.4Y-2.85
X1.415Y-2.095
X1.45Y-2.3
X1.45Y-2.35
X1.45Y-2.4
X1.45Y-2.45
X1.45Y-2.5
X1.45Y-2.55
X1.45Y-2.6
X1.45Y-2.65
X1.45Y-2.7
X1.45Y-2.75
X1.45Y-2.8
X1.45Y-2.85
X1.45Y-2.9
X1.47Y-0.435
X1.5Y-2.3
X1.5Y-2.35
X1.5Y-2.4
X1.5Y-2.45
X1.5Y-2.5
X1.5Y-2.55
X1.5Y-2.6
X1.5Y-2.65
X1.5Y-2.7
X1.5Y-2.75
X1.5Y-2.8
X1.5Y-2.85
X1.5Y-2.9
X1.535Y-0.715
X1.55Y-2.3
X1.55Y-2.35
X1.55Y-2.4
X1.55Y-2.45
X1.55Y-2.5
X1.55Y-2.55
X1.55Y-2.6
X1.55Y-2.65
X1.55Y-2.7
X1.55Y-2.75
X1.55Y-2.8
X1.55Y-2.85
X1.55Y-2.9
X1.55Y-2.95
X1.5568Y-1.7132
X1.5629Y-1.6185
X1.5703Y-0.4342
X1.575Y-0.275
X1.575Y-0.715
X1.6Y-2.3
X1.6Y-2.35
X1.6Y-2.4
X1.6Y-2.45
X1.6Y-2.5
X1.6Y-2.55
X1.6Y-2.6
X1.6Y-2.65
X1.6Y-2.7
X1.6Y-2.75
X1.6Y-2.8
X1.6Y-2.85
X1.6Y-2.9
X1.6Y-2.95
X1.615Y-0.545
X1.6479Y-0.6271
X1.65Y-2.3
X1.65Y-2.35
X1.65Y-2.4
X1.65Y-2.45
X1.65Y-2.5
X1.65Y-2.55
X1.65Y-2.6
X1.65Y-2.65
X1.65Y-2.7
X1.65Y-2.75
X1.65Y-2.8
X1.65Y-2.85
X1.65Y-2.9
X1.65Y-2.95
X1.6646Y-0.5285
X1.6879Y-1.9135
X1.6975Y-2.95
X1.7Y-0.565
X1.7Y-2.3
X1.7Y-2.35
X1.7Y-2.4
X1.7Y-2.45
X1.7Y-2.5
X1.7Y-2.55
X1.7Y-2.6
X1.7Y-2.65
X1.7Y-2.7
X1.7Y-2.75
X1.7Y-2.8
X1.7Y-2.85
X1.7Y-2.9
X1.7029Y-1.7785
X1.73Y-1.54
X1.75Y-2.3
X1.75Y-2.35
X1.75Y-2.4
X1.75Y-2.45
X1.75Y-2.5
X1.75Y-2.55
X1.75Y-2.6
X1.75Y-2.65
X1.75Y-2.7
X1.75Y-2.75
X1.75Y-2.8
X1.75Y-2.85
X1.75Y-2.9
X1.75Y-2.95
X1.8Y-2.3
X1.8Y-2.35
X1.8Y-2.4
X1.8Y-2.45
X1.8Y-2.5
X1.8Y-2.55
X1.8Y-2.6
X1.8Y-2.65
X1.8Y-2.7
X1.8Y-2.75
X1.8Y-2.8
X1.8Y-2.85
X1.8Y-2.9
X1.8Y-2.95
X1.825Y-1.445
X1.85Y-2.3
X1.85Y-2.35
X1.85Y-2.4
X1.85Y-2.45
X1.85Y-2.5
X1.85Y-2.55
X1.85Y-2.6
X1.85Y-2.65
X1.85Y-2.7
X1.85Y-2.75
X1.85Y-2.8
X1.85Y-2.85
X1.85Y-2.9
X1.85Y-2.95
X1.9Y-2.3
X1.9Y-2.35
X1.9Y-2.4
X1.9Y-2.45
X1.9Y-2.5
X1.9Y-2.55
X1.9Y-2.6
X1.9Y-2.65
X1.9Y-2.7
X1.9Y-2.75
X1.9Y-2.8
X1.9Y-2.85
X1.9Y-2.9
X1.9Y-2.95
X1.915Y-1.155
X1.95Y-2.3
X1.95Y-2.35
X1.95Y-2.4
X1.95Y-2.45
X1.95Y-2.5
X1.95Y-2.55
X1.95Y-2.6
X1.95Y-2.65
X1.95Y-2.7
X1.95Y-2.75
X1.95Y-2.8
X1.95Y-2.85
X1.95Y-2.9
X1.95Y-2.95
X1.955Y-3.695
X1.96Y-0.3205
X1.9987Y-1.435
X2.Y-0.25
X2.Y-1.07
X2.Y-2.3
X2.Y-2.35
X2.Y-2.4
X2.Y-2.45
X2.Y-2.5
X2.Y-2.55
X2.Y-2.6
X2.Y-2.65
X2.Y-2.7
X2.Y-2.75
X2.Y-2.8
X2.Y-2.85
X2.Y-2.9
X2.Y-2.95
X2.0268Y-1.335
X2.05Y-2.3
X2.05Y-2.35
X2.05Y-2.4
X2.05Y-2.45
X2.05Y-2.5
X2.05Y-2.55
X2.05Y-2.6
X2.05Y-2.65
X2.05Y-2.7
X2.05Y-2.75
X2.05Y-2.8
X2.05Y-2.85
X2.05Y-2.9
X2.05Y-2.95
X2.055Y-0.975
X2.055Y-1.285
X2.065Y-3.625
X2.07Y-0.925
X2.085Y-0.75
X2.1Y-2.3
X2.1Y-2.35
X2.1Y-2.4
X2.1Y-2.45
X2.1Y-2.5
X2.1Y-2.55
X2.1Y-2.6
X2.1Y-2.65
X2.1Y-2.7
X2.1Y-2.75
X2.1Y-2.8
X2.1Y-2.85
X2.1Y-2.9
X2.1Y-2.95
X2.113Y-1.57
X2.15Y-2.3
X2.15Y-2.35
X2.15Y-2.4
X2.15Y-2.45
X2.15Y-2.5
X2.15Y-2.55
X2.15Y-2.6
X2.15Y-2.65
X2.15Y-2.7
X2.15Y-2.75
X2.15Y-2.8
X2.15Y-2.85
X2.15Y-2.9
X2.15Y-2.95
X2.18Y-0.795
X2.2Y-2.3
X2.2Y-2.35
X2.2Y-2.4
X2.2Y-2.45
X2.2Y-2.5
X2.2Y-2.55
X2.2Y-2.6
X2.2Y-2.65
X2.2Y-2.7
X2.2Y-2.75
X2.2Y-2.8
X2.2Y-2.85
X2.2Y-2.9
X2.2Y-2.95
X2.2Y-3.41
X2.22Y-0.655
X2.221Y-1.647
X2.25Y-2.3
X2.25Y-2.35
X2.25Y-2.4
X2.25Y-2.45
X2.25Y-2.5
X2.25Y-2.55
X2.25Y-2.6
X2.25Y-2.65
X2.25Y-2.7
X2.25Y-2.75
X2.25Y-2.8
X2.25Y-2.85
X2.25Y-2.9
X2.25Y-2.95
X2.3Y-2.3
X2.3Y-2.35
X2.3Y-2.4
X2.3Y-2.45
X2.3Y-2.5
X2.3Y-2.55
X2.3Y-2.6
X2.3Y-2.65
X2.3Y-2.7
X2.3Y-2.75
X2.3Y-2.8
X2.3Y-2.85
X2.3Y-2.9
X2.3Y-2.95
X2.325Y-3.35
X2.33Y-0.74
X2.33Y-3.595
X2.34Y-3.635
X2.35Y-2.35
X2.35Y-2.4
X2.35Y-2.45
X2.35Y-2.5
X2.35Y-2.55
X2.35Y-2.6
X2.35Y-2.65
X2.35Y-2.7
X2.35Y-2.75
X2.35Y-2.8
X2.4Y-2.35
X2.4Y-2.4
X2.4Y-2.45
X2.4Y-2.5
X2.4Y-2.55
X2.4Y-2.6
X2.4Y-2.65
X2.4Y-2.7
X2.4Y-2.75
X2.4Y-2.8
X2.4026Y-0.5209
X2.42Y-0.755
X2.4221Y-3.6305
X2.4391Y-1.5263
X2.45Y-2.8496
X2.45Y-2.35
X2.45Y-2.4
X2.45Y-2.45
X2.45Y-2.5
X2.45Y-2.55
X2.45Y-2.6
X2.45Y-2.65
X2.45Y-2.7
X2.45Y-2.75
X2.45Y-2.8
X2.455Y-1.155
X2.478Y-3.723
X2.4794Y-0.3753
X2.48Y-3.615
X2.5Y-2.35
X2.5Y-2.4
X2.5Y-2.45
X2.5Y-2.5
X2.5Y-2.55
X2.5Y-2.6
X2.5Y-2.65
X2.5Y-2.7
X2.5Y-2.75
X2.5Y-2.8
X2.5Y-2.85
X2.5074Y-0.6293
X2.5179Y-3.4235
X2.535Y-0.305
X2.548Y-0.809
X2.55Y-2.35
X2.55Y-2.4
X2.55Y-2.45
X2.55Y-2.5
X2.55Y-2.55
X2.55Y-2.6
X2.55Y-2.65
X2.55Y-2.7
X2.55Y-2.75
X2.55Y-2.8
X2.55Y-2.85
X2.5514Y-3.6446
X2.563Y-0.377
X2.58Y-0.755
X2.58Y-3.583
X2.5814Y-0.9254
X2.5929Y-3.3085
X2.5962Y-1.027
X2.6Y-2.3
X2.6Y-2.35
X2.6Y-2.4
X2.6Y-2.45
X2.6Y-2.5
X2.6Y-2.55
X2.6Y-2.6
X2.6Y-2.65
X2.6Y-2.7
X2.6Y-2.75
X2.6Y-2.8
X2.6Y-2.85
X2.6278Y-0.89
X2.635Y-0.28
X2.6393Y-0.5471
X2.65Y-2.3
X2.65Y-2.35
X2.65Y-2.4
X2.65Y-2.45
X2.65Y-2.5
X2.65Y-2.55
X2.65Y-2.6
X2.65Y-2.65
X2.65Y-2.7
X2.65Y-2.75
X2.65Y-2.8
X2.65Y-2.85
X2.6707Y-0.5835
X2.68Y-1.04
X2.68Y-1.3
X2.68Y-1.55
X2.6843Y-0.754
X2.6861Y-0.7114
X2.7Y-0.982
X2.7Y-2.3
X2.7Y-2.35
X2.7Y-2.4
X2.7Y-2.45
X2.7Y-2.5
X2.7Y-2.55
X2.7Y-2.6
X2.7Y-2.65
X2.7Y-2.7
X2.7Y-2.75
X2.7Y-2.8
X2.7Y-2.85
X2.715Y-3.53
X2.728Y-0.89
X2.75Y-2.3
X2.75Y-2.35
X2.75Y-2.4
X2.75Y-2.45
X2.75Y-2.5
X2.75Y-2.55
X2.75Y-2.6
X2.75Y-2.65
X2.75Y-2.7
X2.75Y-2.75
X2.75Y-2.8
X2.75Y-2.85
X2.7633Y-0.7724
X2.7961Y-0.666
X2.8Y-0.775
X2.8Y-2.3
X2.8Y-2.35
X2.8Y-2.4
X2.8Y-2.45
X2.8Y-2.5
X2.8Y-2.55
X2.8Y-2.6
X2.8Y-2.65
X2.8Y-2.7
X2.8Y-2.75
X2.8Y-2.8
X2.8Y-2.85
X2.85Y-2.3
X2.85Y-2.35
X2.85Y-2.4
X2.85Y-2.45
X2.85Y-2.5
X2.85Y-2.55
X2.85Y-2.6
X2.85Y-2.65
X2.85Y-2.7
X2.85Y-2.75
X2.85Y-2.8
X2.85Y-2.8495
X2.895Y-3.565
X2.9Y-2.3
X2.9Y-2.35
X2.9Y-2.4
X2.9Y-2.45
X2.9Y-2.5
X2.9Y-2.55
X2.9Y-2.6
X2.9Y-2.65
X2.9Y-2.7
X2.9Y-2.75
X2.9Y-2.8
X2.9Y-2.85
X2.927Y-0.615
X2.93Y-0.58
X2.95Y-2.3
X2.95Y-2.35
X2.95Y-2.4
X2.95Y-2.45
X2.95Y-2.5
X2.95Y-2.55
X2.95Y-2.6
X2.95Y-2.65
X2.95Y-2.7
X2.95Y-2.75
X2.95Y-2.8
X2.95Y-2.8
X2.95Y-2.85
T2
X1.0712Y-3.35
X1.15Y-3.35
T3
X2.375Y-2.2307
X2.375Y-2.9039
X2.4538Y-2.2307
X2.4538Y-2.9039
X2.5325Y-2.2307
X2.5325Y-2.9039
X2.6113Y-2.2307
X2.6113Y-2.9039
X2.69Y-2.2307
X2.69Y-2.9039
X2.7687Y-2.2307
X2.7687Y-2.9039
X2.8475Y-2.2307
X2.8475Y-2.9039
X2.9262Y-2.2307
X2.9262Y-2.9039
T4
X2.28Y-0.685
X2.28Y-0.785
X2.28Y-0.885
X2.28Y-0.985
X2.28Y-1.085
X2.28Y-1.185
X2.28Y-1.285
X2.28Y-1.385
X2.28Y-1.485
X2.28Y-1.585
X2.28Y-1.685
X2.28Y-1.785
X2.38Y-0.685
X2.38Y-0.935
X2.38Y-1.035
X2.38Y-1.335
X2.38Y-1.435
X2.48Y-0.685
X2.58Y-0.685
X2.88Y-0.685
X2.88Y-0.785
X2.88Y-0.885
X2.88Y-0.985
X2.88Y-1.085
X2.88Y-1.185
X2.88Y-1.285
X2.88Y-1.385
X2.88Y-1.485
X2.88Y-1.585
X2.88Y-1.685
X2.88Y-1.785
T5
X1.4Y-1.87
X1.5Y-1.97
X1.6Y-1.87
T6
X2.06Y-1.7331
X2.06Y-2.1269
T7
X0.95Y-0.8
X0.95Y-0.9
X0.95Y-1.
X0.95Y-1.1
X0.95Y-1.2
X0.95Y-1.3
X0.95Y-1.4
X0.95Y-1.5
X0.95Y-1.6
X0.95Y-1.7
X1.05Y-0.1
X1.05Y-0.2
X1.05Y-0.8
X1.05Y-0.9
X1.05Y-1.
X1.05Y-1.1
X1.05Y-1.2
X1.05Y-1.3
X1.05Y-1.4
X1.05Y-1.5
X1.05Y-1.6
X1.05Y-1.7
X1.15Y-0.1
X1.15Y-0.2
X1.15Y-0.9
X1.15Y-1.
X1.15Y-1.6
X1.15Y-2.3
X1.15Y-2.4
X1.15Y-2.5
X1.15Y-2.6
X1.25Y-0.1
X1.25Y-0.2
X1.25Y-2.3
X1.25Y-2.4
X1.25Y-2.5
X1.25Y-2.6
X1.35Y-0.1
X1.35Y-0.2
X1.45Y-0.1
X1.45Y-0.2
X1.55Y-0.1
X1.55Y-0.2
X1.65Y-0.1
X1.65Y-0.2
X1.75Y-0.1
X1.75Y-0.2
X1.85Y-0.1
X1.85Y-0.2
X1.95Y-0.1
X1.95Y-0.2
X2.15Y-0.1
X2.15Y-0.2
X2.15Y-0.3
X2.25Y-0.1
X2.25Y-0.2
X2.25Y-0.3
X2.45Y-0.1
X2.45Y-0.2
X2.55Y-0.1
X2.55Y-0.2
X2.65Y-0.1
X2.65Y-0.2
T8
X0.75Y-3.45
X0.85Y-3.45
T9
X2.85Y-2.025
T10
X0.4Y-0.6236
X0.4Y-2.1126
T11
X0.505Y-2.28
X0.505Y-3.28
T12
X0.7189Y-0.6236
T13
X0.2318Y-0.3707
X0.2318Y-3.4097
X2.7578Y-0.3707
X2.7578Y-3.4093
T6
X1.4458Y-3.2387G85X1.5442Y-3.2387
G05
X1.4556Y-3.475G85X1.5343Y-3.475
G05
X1.7037Y-3.3076G85X1.7037Y-3.3863
G05
T0
M30
