G04 #@! TF.FileFunction,Soldermask,Bot*
%FSLAX46Y46*%
G04 Gerber Fmt 4.6, Leading zero omitted, Abs format (unit mm)*
G04 Created by KiCad (PCBNEW 0.201509101502+6177~30~ubuntu14.04.1-product) date Sat 12 Sep 2015 10:17:38 PM CEST*
%MOMM*%
G01*
G04 APERTURE LIST*
%ADD10C,0.100000*%
%ADD11C,3.900120*%
%ADD12O,2.398980X4.400500*%
%ADD13O,4.400500X2.398980*%
%ADD14O,4.900880X2.398980*%
%ADD15R,1.598880X2.099260*%
%ADD16O,1.598880X2.099260*%
%ADD17O,2.398980X2.398980*%
%ADD18R,2.398980X2.398980*%
%ADD19C,3.400000*%
%ADD20R,2.432000X2.432000*%
%ADD21O,2.432000X2.432000*%
%ADD22R,2.127200X2.432000*%
%ADD23O,2.127200X2.432000*%
%ADD24O,2.127200X2.127200*%
%ADD25R,2.127200X2.127200*%
%ADD26R,2.432000X2.127200*%
%ADD27O,2.432000X2.127200*%
%ADD28C,1.924000*%
%ADD29R,2.127200X2.400000*%
%ADD30C,2.127200*%
%ADD31O,2.599640X1.901140*%
%ADD32O,1.901140X2.599640*%
%ADD33R,1.149300X0.798780*%
%ADD34R,2.940000X2.940000*%
%ADD35C,2.940000*%
G04 APERTURE END LIST*
D10*
D11*
X72390000Y-51435000D03*
D12*
X43273980Y-85013800D03*
D13*
X37973000Y-88265000D03*
D14*
X37973000Y-82262980D03*
D15*
X27208480Y-85090000D03*
D16*
X29210000Y-85090000D03*
D17*
X19050000Y-87630000D03*
D18*
X21590000Y-87630000D03*
D19*
X12827000Y-57912000D03*
X12827000Y-83312000D03*
D18*
X52324000Y-44020740D03*
X52324000Y-54023260D03*
D20*
X24130000Y-43180000D03*
D21*
X26670000Y-43180000D03*
D22*
X24130000Y-40640000D03*
D23*
X26670000Y-40640000D03*
X29210000Y-40640000D03*
D20*
X24130000Y-38100000D03*
D21*
X26670000Y-38100000D03*
D20*
X24130000Y-35560000D03*
D21*
X26670000Y-35560000D03*
D20*
X24130000Y-33020000D03*
D21*
X26670000Y-33020000D03*
D20*
X24130000Y-30480000D03*
D21*
X26670000Y-30480000D03*
D20*
X24130000Y-27940000D03*
D21*
X26670000Y-27940000D03*
D22*
X24130000Y-25400000D03*
D23*
X26670000Y-25400000D03*
X29210000Y-25400000D03*
D22*
X24130000Y-22860000D03*
D23*
X26670000Y-22860000D03*
X29210000Y-22860000D03*
D20*
X24130000Y-20320000D03*
D21*
X26670000Y-20320000D03*
D24*
X26670000Y-5080000D03*
X26670000Y-2540000D03*
X29210000Y-5080000D03*
X29210000Y-2540000D03*
X31750000Y-5080000D03*
X31750000Y-2540000D03*
X34290000Y-5080000D03*
X34290000Y-2540000D03*
X36830000Y-5080000D03*
X36830000Y-2540000D03*
X39370000Y-5080000D03*
X39370000Y-2540000D03*
D25*
X49530000Y-2540000D03*
D24*
X49530000Y-5080000D03*
X46990000Y-2540000D03*
X46990000Y-5080000D03*
X44450000Y-2540000D03*
X44450000Y-5080000D03*
X41910000Y-2540000D03*
X41910000Y-5080000D03*
D25*
X62230000Y-5080000D03*
D24*
X62230000Y-2540000D03*
X64770000Y-5080000D03*
X64770000Y-2540000D03*
X67310000Y-5080000D03*
X67310000Y-2540000D03*
D26*
X54610000Y-2540000D03*
D27*
X54610000Y-5080000D03*
X54610000Y-7620000D03*
D26*
X57150000Y-2540000D03*
D27*
X57150000Y-5080000D03*
X57150000Y-7620000D03*
D28*
X38100000Y-50038000D03*
X35560000Y-47498000D03*
X40640000Y-47498000D03*
D29*
X60326000Y-73760000D03*
D30*
X62326000Y-73760000D03*
X64326000Y-73760000D03*
X66326000Y-73760000D03*
X68326000Y-73760000D03*
X70326000Y-73760000D03*
X72326000Y-73760000D03*
X74326000Y-73760000D03*
X74326000Y-56660000D03*
X72326000Y-56660000D03*
X70326000Y-56660000D03*
X68326000Y-56660000D03*
X66326000Y-56660000D03*
X64326000Y-56660000D03*
X62326000Y-56660000D03*
X60326000Y-56660000D03*
D24*
X29210000Y-66040000D03*
X31750000Y-66040000D03*
X29210000Y-63500000D03*
X31750000Y-63500000D03*
X29210000Y-60960000D03*
X31750000Y-60960000D03*
D25*
X29210000Y-58420000D03*
D24*
X31750000Y-58420000D03*
D31*
X60452000Y-26289000D03*
X60452000Y-23749000D03*
X73152000Y-45339000D03*
X73152000Y-42799000D03*
X73152000Y-40259000D03*
X73152000Y-37719000D03*
X73152000Y-35179000D03*
X73152000Y-32639000D03*
X73152000Y-30099000D03*
X73152000Y-27559000D03*
X73152000Y-25019000D03*
X73152000Y-22479000D03*
X73152000Y-19939000D03*
X73152000Y-17399000D03*
X57912000Y-17399000D03*
X57912000Y-19939000D03*
X57912000Y-22479000D03*
X57912000Y-25019000D03*
X57912000Y-27559000D03*
X57912000Y-30099000D03*
X57912000Y-32639000D03*
X57912000Y-35179000D03*
X57912000Y-37719000D03*
X57912000Y-40259000D03*
X57912000Y-42799000D03*
X57912000Y-45339000D03*
X60452000Y-33909000D03*
X60452000Y-36449000D03*
D32*
X60452000Y-17399000D03*
X62992000Y-17399000D03*
X65532000Y-17399000D03*
D33*
X62042040Y-94249240D03*
X62042040Y-93599000D03*
X62042040Y-92948760D03*
X63941960Y-92948760D03*
X63941960Y-93599000D03*
X63941960Y-94249240D03*
D34*
X10160000Y-15840000D03*
D35*
X10160000Y-53660000D03*
M02*
