G04 #@! TF.FileFunction,Legend,Bot*
%FSLAX46Y46*%
G04 Gerber Fmt 4.6, Leading zero omitted, Abs format (unit mm)*
G04 Created by KiCad (PCBNEW 0.201504261001+5623~23~ubuntu14.04.1-product) date Tue 28 Apr 2015 10:41:39 AM CEST*
%MOMM*%
G01*
G04 APERTURE LIST*
%ADD10C,0.100000*%
%ADD11C,0.150000*%
%ADD12C,0.160000*%
G04 APERTURE END LIST*
D10*
D11*
X39870000Y-45935000D02*
X38870000Y-45935000D01*
X38870000Y-44235000D02*
X39870000Y-44235000D01*
X30242000Y-47235000D02*
X32242000Y-47235000D01*
X32242000Y-49285000D02*
X30242000Y-49285000D01*
X30242000Y-43933000D02*
X32242000Y-43933000D01*
X32242000Y-45983000D02*
X30242000Y-45983000D01*
X47355000Y-30870000D02*
X45355000Y-30870000D01*
X45355000Y-28820000D02*
X47355000Y-28820000D01*
X45355000Y-26280000D02*
X47355000Y-26280000D01*
X47355000Y-28330000D02*
X45355000Y-28330000D01*
X44792000Y-32774000D02*
X44792000Y-33774000D01*
X43092000Y-33774000D02*
X43092000Y-32774000D01*
X21894800Y-21614180D02*
X21193760Y-21614180D01*
X21193760Y-21614180D02*
X21193760Y-21863100D01*
X21193760Y-24413160D02*
X21193760Y-24613820D01*
X21193760Y-24613820D02*
X21894800Y-24613820D01*
X47219820Y-39420800D02*
X47219820Y-38719760D01*
X47219820Y-38719760D02*
X46970900Y-38719760D01*
X44420840Y-38719760D02*
X44220180Y-38719760D01*
X44220180Y-38719760D02*
X44220180Y-39420800D01*
X49770000Y-41240000D02*
X49770000Y-40040000D01*
X48020000Y-40040000D02*
X48020000Y-41240000D01*
X15256000Y-28185000D02*
X17256000Y-28185000D01*
X17256000Y-30235000D02*
X15256000Y-30235000D01*
X17256000Y-27695000D02*
X15256000Y-27695000D01*
X15256000Y-25645000D02*
X17256000Y-25645000D01*
X26000000Y-13730000D02*
X24800000Y-13730000D01*
X24800000Y-15480000D02*
X26000000Y-15480000D01*
X13370000Y-15480000D02*
X14570000Y-15480000D01*
X14570000Y-13730000D02*
X13370000Y-13730000D01*
X48968660Y-31953200D02*
X49537620Y-31953200D01*
X49537620Y-31953200D02*
X49537620Y-32364680D01*
X7450000Y-11465000D02*
X7450000Y-11320000D01*
X11600000Y-11465000D02*
X11600000Y-11320000D01*
X11600000Y-6315000D02*
X11600000Y-6460000D01*
X7450000Y-6315000D02*
X7450000Y-6460000D01*
X7450000Y-11465000D02*
X11600000Y-11465000D01*
X7450000Y-6315000D02*
X11600000Y-6315000D01*
X7450000Y-11320000D02*
X6050000Y-11320000D01*
X20904200Y-10389820D02*
X21605240Y-10389820D01*
X21605240Y-10389820D02*
X21605240Y-10140900D01*
X21605240Y-7590840D02*
X21605240Y-7390180D01*
X21605240Y-7390180D02*
X20904200Y-7390180D01*
X40938400Y-45975800D02*
G75*
G03X40938400Y-45975800I-100000J0D01*
G01*
X39120000Y-46175000D02*
X39620000Y-46175000D01*
X39120000Y-49075000D02*
X39120000Y-46175000D01*
X39620000Y-49075000D02*
X39120000Y-49075000D01*
X39620000Y-46175000D02*
X39620000Y-49075000D01*
X26400000Y-13725000D02*
X24400000Y-13725000D01*
X24400000Y-11675000D02*
X26400000Y-11675000D01*
D12*
X36582333Y-45446905D02*
X36963286Y-45446905D01*
X36963286Y-44646905D01*
X35896619Y-45446905D02*
X36353762Y-45446905D01*
X36125191Y-45446905D02*
X36125191Y-44646905D01*
X36201381Y-44761190D01*
X36277572Y-44837381D01*
X36353762Y-44875476D01*
X27438333Y-48418714D02*
X27476428Y-48456810D01*
X27590714Y-48494905D01*
X27666904Y-48494905D01*
X27781190Y-48456810D01*
X27857381Y-48380619D01*
X27895476Y-48304429D01*
X27933571Y-48152048D01*
X27933571Y-48037762D01*
X27895476Y-47885381D01*
X27857381Y-47809190D01*
X27781190Y-47733000D01*
X27666904Y-47694905D01*
X27590714Y-47694905D01*
X27476428Y-47733000D01*
X27438333Y-47771095D01*
X26676428Y-48494905D02*
X27133571Y-48494905D01*
X26905000Y-48494905D02*
X26905000Y-47694905D01*
X26981190Y-47809190D01*
X27057381Y-47885381D01*
X27133571Y-47923476D01*
X27438333Y-45243714D02*
X27476428Y-45281810D01*
X27590714Y-45319905D01*
X27666904Y-45319905D01*
X27781190Y-45281810D01*
X27857381Y-45205619D01*
X27895476Y-45129429D01*
X27933571Y-44977048D01*
X27933571Y-44862762D01*
X27895476Y-44710381D01*
X27857381Y-44634190D01*
X27781190Y-44558000D01*
X27666904Y-44519905D01*
X27590714Y-44519905D01*
X27476428Y-44558000D01*
X27438333Y-44596095D01*
X27133571Y-44596095D02*
X27095476Y-44558000D01*
X27019285Y-44519905D01*
X26828809Y-44519905D01*
X26752619Y-44558000D01*
X26714523Y-44596095D01*
X26676428Y-44672286D01*
X26676428Y-44748476D01*
X26714523Y-44862762D01*
X27171666Y-45319905D01*
X26676428Y-45319905D01*
X46615333Y-31781714D02*
X46653428Y-31819810D01*
X46767714Y-31857905D01*
X46843904Y-31857905D01*
X46958190Y-31819810D01*
X47034381Y-31743619D01*
X47072476Y-31667429D01*
X47110571Y-31515048D01*
X47110571Y-31400762D01*
X47072476Y-31248381D01*
X47034381Y-31172190D01*
X46958190Y-31096000D01*
X46843904Y-31057905D01*
X46767714Y-31057905D01*
X46653428Y-31096000D01*
X46615333Y-31134095D01*
X46348666Y-31057905D02*
X45853428Y-31057905D01*
X46120095Y-31362667D01*
X46005809Y-31362667D01*
X45929619Y-31400762D01*
X45891523Y-31438857D01*
X45853428Y-31515048D01*
X45853428Y-31705524D01*
X45891523Y-31781714D01*
X45929619Y-31819810D01*
X46005809Y-31857905D01*
X46234381Y-31857905D01*
X46310571Y-31819810D01*
X46348666Y-31781714D01*
X42424333Y-27590714D02*
X42462428Y-27628810D01*
X42576714Y-27666905D01*
X42652904Y-27666905D01*
X42767190Y-27628810D01*
X42843381Y-27552619D01*
X42881476Y-27476429D01*
X42919571Y-27324048D01*
X42919571Y-27209762D01*
X42881476Y-27057381D01*
X42843381Y-26981190D01*
X42767190Y-26905000D01*
X42652904Y-26866905D01*
X42576714Y-26866905D01*
X42462428Y-26905000D01*
X42424333Y-26943095D01*
X41738619Y-27133571D02*
X41738619Y-27666905D01*
X41929095Y-26828810D02*
X42119571Y-27400238D01*
X41624333Y-27400238D01*
X44075333Y-36429905D02*
X44456286Y-36429905D01*
X44456286Y-35629905D01*
X43846762Y-35706095D02*
X43808667Y-35668000D01*
X43732476Y-35629905D01*
X43542000Y-35629905D01*
X43465810Y-35668000D01*
X43427714Y-35706095D01*
X43389619Y-35782286D01*
X43389619Y-35858476D01*
X43427714Y-35972762D01*
X43884857Y-36429905D01*
X43389619Y-36429905D01*
X20015190Y-22282095D02*
X20091381Y-22244000D01*
X20167571Y-22167810D01*
X20281857Y-22053524D01*
X20358048Y-22015429D01*
X20434238Y-22015429D01*
X20396143Y-22205905D02*
X20472333Y-22167810D01*
X20548524Y-22091619D01*
X20586619Y-21939238D01*
X20586619Y-21672571D01*
X20548524Y-21520190D01*
X20472333Y-21444000D01*
X20396143Y-21405905D01*
X20243762Y-21405905D01*
X20167571Y-21444000D01*
X20091381Y-21520190D01*
X20053286Y-21672571D01*
X20053286Y-21939238D01*
X20091381Y-22091619D01*
X20167571Y-22167810D01*
X20243762Y-22205905D01*
X20396143Y-22205905D01*
X19291381Y-22205905D02*
X19748524Y-22205905D01*
X19519953Y-22205905D02*
X19519953Y-21405905D01*
X19596143Y-21520190D01*
X19672334Y-21596381D01*
X19748524Y-21634476D01*
X47320190Y-38157095D02*
X47396381Y-38119000D01*
X47472571Y-38042810D01*
X47586857Y-37928524D01*
X47663048Y-37890429D01*
X47739238Y-37890429D01*
X47701143Y-38080905D02*
X47777333Y-38042810D01*
X47853524Y-37966619D01*
X47891619Y-37814238D01*
X47891619Y-37547571D01*
X47853524Y-37395190D01*
X47777333Y-37319000D01*
X47701143Y-37280905D01*
X47548762Y-37280905D01*
X47472571Y-37319000D01*
X47396381Y-37395190D01*
X47358286Y-37547571D01*
X47358286Y-37814238D01*
X47396381Y-37966619D01*
X47472571Y-38042810D01*
X47548762Y-38080905D01*
X47701143Y-38080905D01*
X47053524Y-37357095D02*
X47015429Y-37319000D01*
X46939238Y-37280905D01*
X46748762Y-37280905D01*
X46672572Y-37319000D01*
X46634476Y-37357095D01*
X46596381Y-37433286D01*
X46596381Y-37509476D01*
X46634476Y-37623762D01*
X47091619Y-38080905D01*
X46596381Y-38080905D01*
X49028333Y-43922905D02*
X49295000Y-43541952D01*
X49485476Y-43922905D02*
X49485476Y-43122905D01*
X49180714Y-43122905D01*
X49104523Y-43161000D01*
X49066428Y-43199095D01*
X49028333Y-43275286D01*
X49028333Y-43389571D01*
X49066428Y-43465762D01*
X49104523Y-43503857D01*
X49180714Y-43541952D01*
X49485476Y-43541952D01*
X48761666Y-43122905D02*
X48266428Y-43122905D01*
X48533095Y-43427667D01*
X48418809Y-43427667D01*
X48342619Y-43465762D01*
X48304523Y-43503857D01*
X48266428Y-43580048D01*
X48266428Y-43770524D01*
X48304523Y-43846714D01*
X48342619Y-43884810D01*
X48418809Y-43922905D01*
X48647381Y-43922905D01*
X48723571Y-43884810D01*
X48761666Y-43846714D01*
X12452333Y-29495714D02*
X12490428Y-29533810D01*
X12604714Y-29571905D01*
X12680904Y-29571905D01*
X12795190Y-29533810D01*
X12871381Y-29457619D01*
X12909476Y-29381429D01*
X12947571Y-29229048D01*
X12947571Y-29114762D01*
X12909476Y-28962381D01*
X12871381Y-28886190D01*
X12795190Y-28810000D01*
X12680904Y-28771905D01*
X12604714Y-28771905D01*
X12490428Y-28810000D01*
X12452333Y-28848095D01*
X11766619Y-28771905D02*
X11919000Y-28771905D01*
X11995190Y-28810000D01*
X12033285Y-28848095D01*
X12109476Y-28962381D01*
X12147571Y-29114762D01*
X12147571Y-29419524D01*
X12109476Y-29495714D01*
X12071381Y-29533810D01*
X11995190Y-29571905D01*
X11842809Y-29571905D01*
X11766619Y-29533810D01*
X11728523Y-29495714D01*
X11690428Y-29419524D01*
X11690428Y-29229048D01*
X11728523Y-29152857D01*
X11766619Y-29114762D01*
X11842809Y-29076667D01*
X11995190Y-29076667D01*
X12071381Y-29114762D01*
X12109476Y-29152857D01*
X12147571Y-29229048D01*
X12452333Y-26955714D02*
X12490428Y-26993810D01*
X12604714Y-27031905D01*
X12680904Y-27031905D01*
X12795190Y-26993810D01*
X12871381Y-26917619D01*
X12909476Y-26841429D01*
X12947571Y-26689048D01*
X12947571Y-26574762D01*
X12909476Y-26422381D01*
X12871381Y-26346190D01*
X12795190Y-26270000D01*
X12680904Y-26231905D01*
X12604714Y-26231905D01*
X12490428Y-26270000D01*
X12452333Y-26308095D01*
X12185666Y-26231905D02*
X11652333Y-26231905D01*
X11995190Y-27031905D01*
X22612333Y-14966905D02*
X22879000Y-14585952D01*
X23069476Y-14966905D02*
X23069476Y-14166905D01*
X22764714Y-14166905D01*
X22688523Y-14205000D01*
X22650428Y-14243095D01*
X22612333Y-14319286D01*
X22612333Y-14433571D01*
X22650428Y-14509762D01*
X22688523Y-14547857D01*
X22764714Y-14585952D01*
X23069476Y-14585952D01*
X21888523Y-14166905D02*
X22269476Y-14166905D01*
X22307571Y-14547857D01*
X22269476Y-14509762D01*
X22193285Y-14471667D01*
X22002809Y-14471667D01*
X21926619Y-14509762D01*
X21888523Y-14547857D01*
X21850428Y-14624048D01*
X21850428Y-14814524D01*
X21888523Y-14890714D01*
X21926619Y-14928810D01*
X22002809Y-14966905D01*
X22193285Y-14966905D01*
X22269476Y-14928810D01*
X22307571Y-14890714D01*
X10928333Y-14966905D02*
X11195000Y-14585952D01*
X11385476Y-14966905D02*
X11385476Y-14166905D01*
X11080714Y-14166905D01*
X11004523Y-14205000D01*
X10966428Y-14243095D01*
X10928333Y-14319286D01*
X10928333Y-14433571D01*
X10966428Y-14509762D01*
X11004523Y-14547857D01*
X11080714Y-14585952D01*
X11385476Y-14585952D01*
X10242619Y-14166905D02*
X10395000Y-14166905D01*
X10471190Y-14205000D01*
X10509285Y-14243095D01*
X10585476Y-14357381D01*
X10623571Y-14509762D01*
X10623571Y-14814524D01*
X10585476Y-14890714D01*
X10547381Y-14928810D01*
X10471190Y-14966905D01*
X10318809Y-14966905D01*
X10242619Y-14928810D01*
X10204523Y-14890714D01*
X10166428Y-14814524D01*
X10166428Y-14624048D01*
X10204523Y-14547857D01*
X10242619Y-14509762D01*
X10318809Y-14471667D01*
X10471190Y-14471667D01*
X10547381Y-14509762D01*
X10585476Y-14547857D01*
X10623571Y-14624048D01*
X47599524Y-34613905D02*
X47599524Y-35261524D01*
X47561429Y-35337714D01*
X47523333Y-35375810D01*
X47447143Y-35413905D01*
X47294762Y-35413905D01*
X47218571Y-35375810D01*
X47180476Y-35337714D01*
X47142381Y-35261524D01*
X47142381Y-34613905D01*
X46799524Y-34690095D02*
X46761429Y-34652000D01*
X46685238Y-34613905D01*
X46494762Y-34613905D01*
X46418572Y-34652000D01*
X46380476Y-34690095D01*
X46342381Y-34766286D01*
X46342381Y-34842476D01*
X46380476Y-34956762D01*
X46837619Y-35413905D01*
X46342381Y-35413905D01*
X10134524Y-5149905D02*
X10134524Y-5797524D01*
X10096429Y-5873714D01*
X10058333Y-5911810D01*
X9982143Y-5949905D01*
X9829762Y-5949905D01*
X9753571Y-5911810D01*
X9715476Y-5873714D01*
X9677381Y-5797524D01*
X9677381Y-5149905D01*
X8953572Y-5416571D02*
X8953572Y-5949905D01*
X9144048Y-5111810D02*
X9334524Y-5683238D01*
X8839286Y-5683238D01*
X23469524Y-6927905D02*
X23469524Y-7575524D01*
X23431429Y-7651714D01*
X23393333Y-7689810D01*
X23317143Y-7727905D01*
X23164762Y-7727905D01*
X23088571Y-7689810D01*
X23050476Y-7651714D01*
X23012381Y-7575524D01*
X23012381Y-6927905D01*
X22250476Y-6927905D02*
X22631429Y-6927905D01*
X22669524Y-7308857D01*
X22631429Y-7270762D01*
X22555238Y-7232667D01*
X22364762Y-7232667D01*
X22288572Y-7270762D01*
X22250476Y-7308857D01*
X22212381Y-7385048D01*
X22212381Y-7575524D01*
X22250476Y-7651714D01*
X22288572Y-7689810D01*
X22364762Y-7727905D01*
X22555238Y-7727905D01*
X22631429Y-7689810D01*
X22669524Y-7651714D01*
X36550524Y-47186905D02*
X36550524Y-47834524D01*
X36512429Y-47910714D01*
X36474333Y-47948810D01*
X36398143Y-47986905D01*
X36245762Y-47986905D01*
X36169571Y-47948810D01*
X36131476Y-47910714D01*
X36093381Y-47834524D01*
X36093381Y-47186905D01*
X35293381Y-47986905D02*
X35750524Y-47986905D01*
X35521953Y-47986905D02*
X35521953Y-47186905D01*
X35598143Y-47301190D01*
X35674334Y-47377381D01*
X35750524Y-47415476D01*
X21469333Y-12985714D02*
X21507428Y-13023810D01*
X21621714Y-13061905D01*
X21697904Y-13061905D01*
X21812190Y-13023810D01*
X21888381Y-12947619D01*
X21926476Y-12871429D01*
X21964571Y-12719048D01*
X21964571Y-12604762D01*
X21926476Y-12452381D01*
X21888381Y-12376190D01*
X21812190Y-12300000D01*
X21697904Y-12261905D01*
X21621714Y-12261905D01*
X21507428Y-12300000D01*
X21469333Y-12338095D01*
X21012190Y-12604762D02*
X21088381Y-12566667D01*
X21126476Y-12528571D01*
X21164571Y-12452381D01*
X21164571Y-12414286D01*
X21126476Y-12338095D01*
X21088381Y-12300000D01*
X21012190Y-12261905D01*
X20859809Y-12261905D01*
X20783619Y-12300000D01*
X20745523Y-12338095D01*
X20707428Y-12414286D01*
X20707428Y-12452381D01*
X20745523Y-12528571D01*
X20783619Y-12566667D01*
X20859809Y-12604762D01*
X21012190Y-12604762D01*
X21088381Y-12642857D01*
X21126476Y-12680952D01*
X21164571Y-12757143D01*
X21164571Y-12909524D01*
X21126476Y-12985714D01*
X21088381Y-13023810D01*
X21012190Y-13061905D01*
X20859809Y-13061905D01*
X20783619Y-13023810D01*
X20745523Y-12985714D01*
X20707428Y-12909524D01*
X20707428Y-12757143D01*
X20745523Y-12680952D01*
X20783619Y-12642857D01*
X20859809Y-12604762D01*
M02*
