M48
;DRILL file {kicad 0.201504261001+5623~23~ubuntu14.04.1-product} date Tue 28 Apr 2015 10:41:41 AM CEST
;FORMAT={-:-/ absolute / inch / decimal}
FMAT,2
INCH,TZ
T1C0.015
T2C0.028
T3C0.031
T4C0.032
T5C0.039
T6C0.040
T7C0.047
T8C0.118
%
G90
G05
M72
T1
X0.075Y-0.2
X0.075Y-0.25
X0.075Y-0.3
X0.075Y-0.775
X0.075Y-0.825
X0.075Y-0.875
X0.075Y-0.925
X0.075Y-0.975
X0.075Y-1.025
X0.075Y-1.75
X0.075Y-1.8
X0.075Y-1.85
X0.075Y-1.9
X0.125Y-0.12
X0.125Y-1.025
X0.125Y-1.75
X0.125Y-1.8
X0.125Y-1.85
X0.125Y-1.9
X0.15Y-1.
X0.165Y-0.275
X0.1745Y-1.028
X0.175Y-1.75
X0.175Y-1.8
X0.175Y-1.85
X0.175Y-1.9
X0.185Y-0.2
X0.185Y-0.755
X0.185Y-0.865
X0.205Y-1.23
X0.225Y-0.12
X0.225Y-0.9
X0.225Y-1.075
X0.225Y-1.125
X0.225Y-1.75
X0.225Y-1.8
X0.225Y-1.85
X0.225Y-1.9
X0.225Y-1.028
X0.24Y-0.52
X0.27Y-0.23
X0.275Y-1.028
X0.275Y-1.075
X0.275Y-1.3
X0.275Y-1.35
X0.275Y-1.4
X0.275Y-1.45
X0.275Y-1.5
X0.275Y-1.55
X0.275Y-1.6
X0.275Y-1.65
X0.275Y-1.7
X0.275Y-1.75
X0.275Y-1.8
X0.275Y-1.85
X0.275Y-1.9
X0.3216Y-0.2779
X0.325Y-0.12
X0.325Y-0.52
X0.325Y-0.63
X0.325Y-1.19
X0.325Y-1.3
X0.325Y-1.35
X0.325Y-1.4
X0.325Y-1.45
X0.325Y-1.5
X0.325Y-1.55
X0.325Y-1.6
X0.325Y-1.65
X0.325Y-1.7
X0.325Y-1.75
X0.325Y-1.8
X0.325Y-1.85
X0.325Y-1.9
X0.325Y-0.325
X0.33Y-1.11
X0.375Y-1.35
X0.375Y-1.4
X0.375Y-1.45
X0.375Y-1.5
X0.375Y-1.55
X0.375Y-1.6
X0.375Y-1.65
X0.375Y-1.7
X0.375Y-1.75
X0.375Y-1.8
X0.375Y-1.85
X0.375Y-1.9
X0.4169Y-0.3731
X0.42Y-0.755
X0.425Y-0.12
X0.425Y-0.525
X0.425Y-1.267
X0.425Y-1.3
X0.425Y-1.4
X0.425Y-1.45
X0.425Y-1.5
X0.425Y-1.55
X0.425Y-1.6
X0.425Y-1.65
X0.425Y-1.7
X0.425Y-1.75
X0.425Y-1.8
X0.425Y-1.85
X0.425Y-1.9
X0.475Y-1.433
X0.475Y-1.5
X0.475Y-1.55
X0.475Y-1.6
X0.475Y-1.65
X0.475Y-1.7
X0.475Y-1.75
X0.475Y-1.8
X0.475Y-1.85
X0.475Y-1.9
X0.525Y-0.12
X0.525Y-1.3
X0.525Y-1.4
X0.525Y-1.5
X0.525Y-1.55
X0.525Y-1.6
X0.525Y-1.65
X0.525Y-1.7
X0.525Y-1.75
X0.525Y-1.8
X0.525Y-1.85
X0.525Y-1.9
X0.55Y-0.575
X0.575Y-1.3
X0.575Y-1.4
X0.575Y-1.5
X0.575Y-1.55
X0.575Y-1.6
X0.575Y-1.65
X0.575Y-1.7
X0.575Y-1.75
X0.575Y-1.8
X0.575Y-1.85
X0.575Y-1.9
X0.6Y-0.525
X0.62Y-0.405
X0.62Y-1.15
X0.625Y-0.12
X0.625Y-1.3
X0.625Y-1.4
X0.625Y-1.5
X0.625Y-1.55
X0.625Y-1.6
X0.625Y-1.65
X0.625Y-1.7
X0.625Y-1.75
X0.625Y-1.8
X0.625Y-1.85
X0.625Y-1.9
X0.675Y-1.3
X0.675Y-1.4
X0.675Y-1.5
X0.675Y-1.55
X0.675Y-1.6
X0.675Y-1.65
X0.675Y-1.7
X0.675Y-1.75
X0.675Y-1.8
X0.675Y-1.85
X0.675Y-1.9
X0.685Y-0.405
X0.6882Y-0.833
X0.7165Y-0.9283
X0.72Y-1.23
X0.725Y-0.12
X0.725Y-1.3
X0.725Y-1.4
X0.725Y-1.5
X0.725Y-1.55
X0.725Y-1.6
X0.725Y-1.9
X0.74Y-0.83
X0.7733Y-1.045
X0.775Y-1.9
X0.86Y-0.81
X0.8646Y-0.7723
X0.875Y-0.145
X0.875Y-1.9
X0.9Y-1.02
X0.925Y-1.75
X0.925Y-1.8
X0.925Y-1.85
X0.925Y-1.9
X0.935Y-0.415
X0.94Y-1.01
X0.9567Y-1.2383
X0.975Y-1.5
X0.975Y-1.55
X0.975Y-1.6
X0.975Y-1.65
X0.975Y-1.7
X0.975Y-1.75
X0.975Y-1.8
X0.975Y-1.85
X0.975Y-1.9
X0.985Y-0.365
X0.9897Y-1.4003
X1.Y-0.585
X1.025Y-0.12
X1.025Y-1.55
X1.025Y-1.6
X1.025Y-1.65
X1.025Y-1.7
X1.025Y-1.75
X1.025Y-1.8
X1.025Y-1.85
X1.025Y-1.9
X1.035Y-1.27
X1.045Y-0.92
X1.0538Y-0.2747
X1.055Y-0.18
X1.055Y-0.415
X1.06Y-0.24
X1.075Y-0.745
X1.075Y-0.81
X1.075Y-1.55
X1.075Y-1.6
X1.075Y-1.75
X1.075Y-1.8
X1.075Y-1.85
X1.075Y-1.9
X1.1088Y-1.3607
X1.125Y-0.12
X1.125Y-1.55
X1.135Y-1.25
X1.15Y-1.515
X1.16Y-0.555
X1.175Y-1.55
X1.2033Y-0.62
X1.21Y-0.335
X1.2254Y-1.5526
X1.27Y-0.81
X1.275Y-0.04
X1.275Y-0.125
X1.275Y-0.25
X1.2992Y-1.4961
X1.305Y-1.645
X1.35Y-0.04
X1.35Y-0.125
X1.35Y-0.25
X1.35Y-0.35
X1.36Y-1.325
X1.4173Y-0.7402
X1.42Y-1.91
X1.425Y-0.04
X1.425Y-0.125
X1.425Y-0.25
X1.425Y-0.35
X1.425Y-0.41
X1.4252Y-1.7717
X1.4381Y-0.5735
X1.485Y-1.325
X1.5Y-0.04
X1.5Y-0.125
X1.5Y-0.25
X1.51Y-1.12
X1.52Y-1.415
X1.55Y-1.22
X1.5984Y-1.6457
X1.66Y-1.34
X1.68Y-1.735
X1.685Y-1.0709
X1.705Y-1.915
X1.72Y-1.685
X1.74Y-1.455
X1.74Y-1.535
X1.855Y-1.535
X1.8976Y-1.127
X1.92Y-1.43
X1.92Y-1.72
X1.92Y-1.915
T2
X1.4306Y-1.7
X1.5094Y-1.7
T3
X0.15Y-1.12
X0.15Y-1.1987
X0.15Y-1.2775
X0.15Y-1.3562
X0.15Y-1.435
X0.15Y-1.5137
X0.15Y-1.5924
X0.15Y-1.6712
X0.8154Y-1.12
X0.8154Y-1.1987
X0.8154Y-1.2775
X0.8154Y-1.3562
X0.8154Y-1.435
X0.8154Y-1.5137
X0.8154Y-1.5924
X0.8154Y-1.6712
T4
X0.075Y-0.075
X0.075Y-0.375
X0.075Y-0.475
X0.075Y-0.575
X0.075Y-0.675
X0.175Y-0.075
X0.175Y-0.675
X0.275Y-0.075
X0.275Y-0.675
X0.375Y-0.075
X0.375Y-0.675
X0.475Y-0.075
X0.475Y-0.675
X0.575Y-0.075
X0.575Y-0.675
X0.675Y-0.075
X0.675Y-0.675
X0.725Y-0.575
X0.775Y-0.075
X0.775Y-0.675
X0.825Y-0.575
X0.875Y-0.075
X0.875Y-0.675
X0.975Y-0.075
X0.975Y-0.675
X1.075Y-0.075
X1.075Y-0.675
X1.175Y-0.075
X1.175Y-0.675
T6
X0.325Y-0.85
X0.325Y-0.95
X0.425Y-0.85
X0.425Y-0.95
X0.525Y-0.85
X0.525Y-0.95
X0.625Y-0.85
X0.625Y-0.95
X1.025Y-1.05
X1.025Y-1.15
X1.14Y-0.795
X1.14Y-0.895
X1.14Y-0.995
X1.225Y-1.15
X1.225Y-1.25
X1.25Y-1.
X1.3Y-0.875
X1.325Y-1.15
X1.325Y-1.25
X1.35Y-1.
X1.4Y-0.875
X1.425Y-1.15
X1.425Y-1.25
X1.45Y-1.
X1.5Y-0.675
X1.5Y-0.775
X1.5Y-0.875
X1.5Y-1.475
X1.5Y-1.575
X1.6Y-0.075
X1.6Y-0.175
X1.6Y-0.275
X1.6Y-0.375
X1.6Y-0.475
X1.6Y-0.575
X1.6Y-0.675
X1.6Y-0.775
X1.6Y-0.875
X1.6Y-0.975
X1.625Y-1.15
X1.625Y-1.25
X1.65Y-1.475
X1.65Y-1.575
X1.7Y-0.075
X1.7Y-0.175
X1.7Y-0.275
X1.7Y-0.375
X1.7Y-0.475
X1.7Y-0.575
X1.7Y-0.675
X1.7Y-0.775
X1.7Y-0.875
X1.7Y-0.975
X1.8Y-0.075
X1.8Y-0.175
X1.8Y-0.275
X1.8Y-0.375
X1.8Y-0.475
X1.8Y-0.575
X1.8Y-0.675
X1.8Y-0.775
X1.8Y-0.875
X1.8Y-0.975
X1.9Y-0.075
X1.9Y-0.175
X1.9Y-0.275
X1.9Y-0.375
X1.9Y-0.475
X1.9Y-0.575
X1.9Y-0.675
X1.9Y-0.775
X1.9Y-0.875
X1.9Y-0.975
T7
X0.815Y-1.816
T8
X1.8112Y-1.811
T5
X1.1064Y-1.4205G85X1.2048Y-1.4205
G05
X1.1163Y-1.6568G85X1.195Y-1.6568
G05
X1.3643Y-1.4895G85X1.3643Y-1.5682
G05
T0
M30
