G04 #@! TF.FileFunction,Legend,Bot*
%FSLAX46Y46*%
G04 Gerber Fmt 4.6, Leading zero omitted, Abs format (unit mm)*
G04 Created by KiCad (PCBNEW 0.201509101502+6177~30~ubuntu14.04.1-product) date Sat 12 Sep 2015 10:16:40 PM CEST*
%MOMM*%
G01*
G04 APERTURE LIST*
%ADD10C,0.100000*%
%ADD11C,0.127000*%
%ADD12C,0.150000*%
%ADD13C,0.160000*%
G04 APERTURE END LIST*
D10*
D11*
X36588700Y-29171900D02*
X35394900Y-29171900D01*
X35394900Y-29171900D02*
X35394900Y-34582100D01*
X35394900Y-34582100D02*
X36601400Y-34582100D01*
X42595800Y-33604200D02*
X45504100Y-33604200D01*
X45504100Y-34747200D02*
X42595800Y-34747200D01*
X45504100Y-33604200D02*
X45504100Y-34747200D01*
X45504100Y-29006800D02*
X45504100Y-30149800D01*
X45504100Y-30149800D02*
X42595800Y-30149800D01*
X42595800Y-29006800D02*
X45504100Y-29006800D01*
X42595800Y-35229800D02*
X36601400Y-35229800D01*
X36601400Y-35229800D02*
X36601400Y-28524200D01*
X36601400Y-28524200D02*
X42595800Y-28524200D01*
X42595800Y-35229800D02*
X42595800Y-28524200D01*
D12*
X19993500Y-8954500D02*
X22043500Y-8954500D01*
X19288500Y-12254500D02*
X22043500Y-12254500D01*
X6463000Y-11522000D02*
X6463000Y-10322000D01*
X4713000Y-10322000D02*
X4713000Y-11522000D01*
X25450800Y-28091180D02*
X24749760Y-28091180D01*
X24749760Y-28091180D02*
X24749760Y-28340100D01*
X24749760Y-30890160D02*
X24749760Y-31090820D01*
X24749760Y-31090820D02*
X25450800Y-31090820D01*
X27003000Y-11820000D02*
X25003000Y-11820000D01*
X25003000Y-9770000D02*
X27003000Y-9770000D01*
X12201000Y-9160000D02*
X12201000Y-11160000D01*
X10151000Y-11160000D02*
X10151000Y-9160000D01*
X16374000Y-23987000D02*
X16374000Y-21987000D01*
X18424000Y-21987000D02*
X18424000Y-23987000D01*
X11165840Y-30068520D02*
X11165840Y-26268680D01*
X17866360Y-30068520D02*
X12867640Y-30068520D01*
X17863820Y-26268680D02*
X12865100Y-26268680D01*
X10662920Y-31071820D02*
X10662920Y-29972000D01*
X10063480Y-30571440D02*
X11262360Y-30571440D01*
X43063160Y-14102080D02*
X43063160Y-17901920D01*
X36362640Y-14102080D02*
X41361360Y-14102080D01*
X36365180Y-17901920D02*
X41363900Y-17901920D01*
X43566080Y-13098780D02*
X43566080Y-14198600D01*
X44165520Y-13599160D02*
X42966640Y-13599160D01*
X43444160Y-20452080D02*
X43444160Y-24251920D01*
X36743640Y-20452080D02*
X41742360Y-20452080D01*
X36746180Y-24251920D02*
X41744900Y-24251920D01*
X43947080Y-19448780D02*
X43947080Y-20548600D01*
X44546520Y-19949160D02*
X43347640Y-19949160D01*
X6874000Y-42663000D02*
X8874000Y-42663000D01*
X8874000Y-44713000D02*
X6874000Y-44713000D01*
X4688840Y-48635920D02*
X4688840Y-44836080D01*
X11389360Y-48635920D02*
X6390640Y-48635920D01*
X11386820Y-44836080D02*
X6388100Y-44836080D01*
X4185920Y-49639220D02*
X4185920Y-48539400D01*
X3586480Y-49138840D02*
X4785360Y-49138840D01*
X46934120Y-34731960D02*
X46934120Y-29530040D01*
X49331880Y-29530040D02*
X49331880Y-34731960D01*
X50431700Y-36730940D02*
X49331880Y-36730940D01*
X49931320Y-37330380D02*
X49931320Y-36131500D01*
X49331880Y-36126420D02*
X46934120Y-36126420D01*
X43500040Y-26360120D02*
X48701960Y-26360120D01*
X48701960Y-28757880D02*
X43500040Y-28757880D01*
X41501060Y-29857700D02*
X41501060Y-28757880D01*
X40901620Y-29357320D02*
X42100500Y-29357320D01*
X42105580Y-28757880D02*
X42105580Y-26360120D01*
X35824160Y-37216080D02*
X35824160Y-41015920D01*
X29123640Y-37216080D02*
X34122360Y-37216080D01*
X29126180Y-41015920D02*
X34124900Y-41015920D01*
X36327080Y-36212780D02*
X36327080Y-37312600D01*
X36926520Y-36713160D02*
X35727640Y-36713160D01*
X37508180Y-43385740D02*
X37508180Y-46784260D01*
X29258260Y-46784260D02*
X35257740Y-46784260D01*
X29258260Y-43385740D02*
X35257740Y-43385740D01*
X38011100Y-42382440D02*
X38011100Y-43482260D01*
X38610540Y-42882820D02*
X37411660Y-42882820D01*
X46372780Y-30723840D02*
X46982380Y-30723840D01*
X46982380Y-30723840D02*
X46992540Y-31155640D01*
D13*
X41630524Y-27501905D02*
X41630524Y-28149524D01*
X41592429Y-28225714D01*
X41554333Y-28263810D01*
X41478143Y-28301905D01*
X41325762Y-28301905D01*
X41249571Y-28263810D01*
X41211476Y-28225714D01*
X41173381Y-28149524D01*
X41173381Y-27501905D01*
X40373381Y-28301905D02*
X40830524Y-28301905D01*
X40601953Y-28301905D02*
X40601953Y-27501905D01*
X40678143Y-27616190D01*
X40754334Y-27692381D01*
X40830524Y-27730476D01*
X21564524Y-7943905D02*
X21564524Y-8591524D01*
X21526429Y-8667714D01*
X21488333Y-8705810D01*
X21412143Y-8743905D01*
X21259762Y-8743905D01*
X21183571Y-8705810D01*
X21145476Y-8667714D01*
X21107381Y-8591524D01*
X21107381Y-7943905D01*
X20612143Y-8286762D02*
X20688334Y-8248667D01*
X20726429Y-8210571D01*
X20764524Y-8134381D01*
X20764524Y-8096286D01*
X20726429Y-8020095D01*
X20688334Y-7982000D01*
X20612143Y-7943905D01*
X20459762Y-7943905D01*
X20383572Y-7982000D01*
X20345476Y-8020095D01*
X20307381Y-8096286D01*
X20307381Y-8134381D01*
X20345476Y-8210571D01*
X20383572Y-8248667D01*
X20459762Y-8286762D01*
X20612143Y-8286762D01*
X20688334Y-8324857D01*
X20726429Y-8362952D01*
X20764524Y-8439143D01*
X20764524Y-8591524D01*
X20726429Y-8667714D01*
X20688334Y-8705810D01*
X20612143Y-8743905D01*
X20459762Y-8743905D01*
X20383572Y-8705810D01*
X20345476Y-8667714D01*
X20307381Y-8591524D01*
X20307381Y-8439143D01*
X20345476Y-8362952D01*
X20383572Y-8324857D01*
X20459762Y-8286762D01*
X5721333Y-8362905D02*
X5988000Y-7981952D01*
X6178476Y-8362905D02*
X6178476Y-7562905D01*
X5873714Y-7562905D01*
X5797523Y-7601000D01*
X5759428Y-7639095D01*
X5721333Y-7715286D01*
X5721333Y-7829571D01*
X5759428Y-7905762D01*
X5797523Y-7943857D01*
X5873714Y-7981952D01*
X6178476Y-7981952D01*
X5035619Y-7562905D02*
X5188000Y-7562905D01*
X5264190Y-7601000D01*
X5302285Y-7639095D01*
X5378476Y-7753381D01*
X5416571Y-7905762D01*
X5416571Y-8210524D01*
X5378476Y-8286714D01*
X5340381Y-8324810D01*
X5264190Y-8362905D01*
X5111809Y-8362905D01*
X5035619Y-8324810D01*
X4997523Y-8286714D01*
X4959428Y-8210524D01*
X4959428Y-8020048D01*
X4997523Y-7943857D01*
X5035619Y-7905762D01*
X5111809Y-7867667D01*
X5264190Y-7867667D01*
X5340381Y-7905762D01*
X5378476Y-7943857D01*
X5416571Y-8020048D01*
X25476190Y-27870095D02*
X25552381Y-27832000D01*
X25628571Y-27755810D01*
X25742857Y-27641524D01*
X25819048Y-27603429D01*
X25895238Y-27603429D01*
X25857143Y-27793905D02*
X25933333Y-27755810D01*
X26009524Y-27679619D01*
X26047619Y-27527238D01*
X26047619Y-27260571D01*
X26009524Y-27108190D01*
X25933333Y-27032000D01*
X25857143Y-26993905D01*
X25704762Y-26993905D01*
X25628571Y-27032000D01*
X25552381Y-27108190D01*
X25514286Y-27260571D01*
X25514286Y-27527238D01*
X25552381Y-27679619D01*
X25628571Y-27755810D01*
X25704762Y-27793905D01*
X25857143Y-27793905D01*
X24752381Y-27793905D02*
X25209524Y-27793905D01*
X24980953Y-27793905D02*
X24980953Y-26993905D01*
X25057143Y-27108190D01*
X25133334Y-27184381D01*
X25209524Y-27222476D01*
X30867286Y-11080714D02*
X30905381Y-11118810D01*
X31019667Y-11156905D01*
X31095857Y-11156905D01*
X31210143Y-11118810D01*
X31286334Y-11042619D01*
X31324429Y-10966429D01*
X31362524Y-10814048D01*
X31362524Y-10699762D01*
X31324429Y-10547381D01*
X31286334Y-10471190D01*
X31210143Y-10395000D01*
X31095857Y-10356905D01*
X31019667Y-10356905D01*
X30905381Y-10395000D01*
X30867286Y-10433095D01*
X30105381Y-11156905D02*
X30562524Y-11156905D01*
X30333953Y-11156905D02*
X30333953Y-10356905D01*
X30410143Y-10471190D01*
X30486334Y-10547381D01*
X30562524Y-10585476D01*
X29648238Y-10699762D02*
X29724429Y-10661667D01*
X29762524Y-10623571D01*
X29800619Y-10547381D01*
X29800619Y-10509286D01*
X29762524Y-10433095D01*
X29724429Y-10395000D01*
X29648238Y-10356905D01*
X29495857Y-10356905D01*
X29419667Y-10395000D01*
X29381571Y-10433095D01*
X29343476Y-10509286D01*
X29343476Y-10547381D01*
X29381571Y-10623571D01*
X29419667Y-10661667D01*
X29495857Y-10699762D01*
X29648238Y-10699762D01*
X29724429Y-10737857D01*
X29762524Y-10775952D01*
X29800619Y-10852143D01*
X29800619Y-11004524D01*
X29762524Y-11080714D01*
X29724429Y-11118810D01*
X29648238Y-11156905D01*
X29495857Y-11156905D01*
X29419667Y-11118810D01*
X29381571Y-11080714D01*
X29343476Y-11004524D01*
X29343476Y-10852143D01*
X29381571Y-10775952D01*
X29419667Y-10737857D01*
X29495857Y-10699762D01*
X11055286Y-6762714D02*
X11093381Y-6800810D01*
X11207667Y-6838905D01*
X11283857Y-6838905D01*
X11398143Y-6800810D01*
X11474334Y-6724619D01*
X11512429Y-6648429D01*
X11550524Y-6496048D01*
X11550524Y-6381762D01*
X11512429Y-6229381D01*
X11474334Y-6153190D01*
X11398143Y-6077000D01*
X11283857Y-6038905D01*
X11207667Y-6038905D01*
X11093381Y-6077000D01*
X11055286Y-6115095D01*
X10293381Y-6838905D02*
X10750524Y-6838905D01*
X10521953Y-6838905D02*
X10521953Y-6038905D01*
X10598143Y-6153190D01*
X10674334Y-6229381D01*
X10750524Y-6267476D01*
X9607667Y-6038905D02*
X9760048Y-6038905D01*
X9836238Y-6077000D01*
X9874333Y-6115095D01*
X9950524Y-6229381D01*
X9988619Y-6381762D01*
X9988619Y-6686524D01*
X9950524Y-6762714D01*
X9912429Y-6800810D01*
X9836238Y-6838905D01*
X9683857Y-6838905D01*
X9607667Y-6800810D01*
X9569571Y-6762714D01*
X9531476Y-6686524D01*
X9531476Y-6496048D01*
X9569571Y-6419857D01*
X9607667Y-6381762D01*
X9683857Y-6343667D01*
X9836238Y-6343667D01*
X9912429Y-6381762D01*
X9950524Y-6419857D01*
X9988619Y-6496048D01*
X17913286Y-19716714D02*
X17951381Y-19754810D01*
X18065667Y-19792905D01*
X18141857Y-19792905D01*
X18256143Y-19754810D01*
X18332334Y-19678619D01*
X18370429Y-19602429D01*
X18408524Y-19450048D01*
X18408524Y-19335762D01*
X18370429Y-19183381D01*
X18332334Y-19107190D01*
X18256143Y-19031000D01*
X18141857Y-18992905D01*
X18065667Y-18992905D01*
X17951381Y-19031000D01*
X17913286Y-19069095D01*
X17151381Y-19792905D02*
X17608524Y-19792905D01*
X17379953Y-19792905D02*
X17379953Y-18992905D01*
X17456143Y-19107190D01*
X17532334Y-19183381D01*
X17608524Y-19221476D01*
X16427571Y-18992905D02*
X16808524Y-18992905D01*
X16846619Y-19373857D01*
X16808524Y-19335762D01*
X16732333Y-19297667D01*
X16541857Y-19297667D01*
X16465667Y-19335762D01*
X16427571Y-19373857D01*
X16389476Y-19450048D01*
X16389476Y-19640524D01*
X16427571Y-19716714D01*
X16465667Y-19754810D01*
X16541857Y-19792905D01*
X16732333Y-19792905D01*
X16808524Y-19754810D01*
X16846619Y-19716714D01*
X10420286Y-28479714D02*
X10458381Y-28517810D01*
X10572667Y-28555905D01*
X10648857Y-28555905D01*
X10763143Y-28517810D01*
X10839334Y-28441619D01*
X10877429Y-28365429D01*
X10915524Y-28213048D01*
X10915524Y-28098762D01*
X10877429Y-27946381D01*
X10839334Y-27870190D01*
X10763143Y-27794000D01*
X10648857Y-27755905D01*
X10572667Y-27755905D01*
X10458381Y-27794000D01*
X10420286Y-27832095D01*
X9658381Y-28555905D02*
X10115524Y-28555905D01*
X9886953Y-28555905D02*
X9886953Y-27755905D01*
X9963143Y-27870190D01*
X10039334Y-27946381D01*
X10115524Y-27984476D01*
X8972667Y-28022571D02*
X8972667Y-28555905D01*
X9163143Y-27717810D02*
X9353619Y-28289238D01*
X8858381Y-28289238D01*
X42170286Y-13747714D02*
X42208381Y-13785810D01*
X42322667Y-13823905D01*
X42398857Y-13823905D01*
X42513143Y-13785810D01*
X42589334Y-13709619D01*
X42627429Y-13633429D01*
X42665524Y-13481048D01*
X42665524Y-13366762D01*
X42627429Y-13214381D01*
X42589334Y-13138190D01*
X42513143Y-13062000D01*
X42398857Y-13023905D01*
X42322667Y-13023905D01*
X42208381Y-13062000D01*
X42170286Y-13100095D01*
X41408381Y-13823905D02*
X41865524Y-13823905D01*
X41636953Y-13823905D02*
X41636953Y-13023905D01*
X41713143Y-13138190D01*
X41789334Y-13214381D01*
X41865524Y-13252476D01*
X41141714Y-13023905D02*
X40646476Y-13023905D01*
X40913143Y-13328667D01*
X40798857Y-13328667D01*
X40722667Y-13366762D01*
X40684571Y-13404857D01*
X40646476Y-13481048D01*
X40646476Y-13671524D01*
X40684571Y-13747714D01*
X40722667Y-13785810D01*
X40798857Y-13823905D01*
X41027429Y-13823905D01*
X41103619Y-13785810D01*
X41141714Y-13747714D01*
X43313286Y-20986714D02*
X43351381Y-21024810D01*
X43465667Y-21062905D01*
X43541857Y-21062905D01*
X43656143Y-21024810D01*
X43732334Y-20948619D01*
X43770429Y-20872429D01*
X43808524Y-20720048D01*
X43808524Y-20605762D01*
X43770429Y-20453381D01*
X43732334Y-20377190D01*
X43656143Y-20301000D01*
X43541857Y-20262905D01*
X43465667Y-20262905D01*
X43351381Y-20301000D01*
X43313286Y-20339095D01*
X42551381Y-21062905D02*
X43008524Y-21062905D01*
X42779953Y-21062905D02*
X42779953Y-20262905D01*
X42856143Y-20377190D01*
X42932334Y-20453381D01*
X43008524Y-20491476D01*
X42246619Y-20339095D02*
X42208524Y-20301000D01*
X42132333Y-20262905D01*
X41941857Y-20262905D01*
X41865667Y-20301000D01*
X41827571Y-20339095D01*
X41789476Y-20415286D01*
X41789476Y-20491476D01*
X41827571Y-20605762D01*
X42284714Y-21062905D01*
X41789476Y-21062905D01*
X12833286Y-43973714D02*
X12871381Y-44011810D01*
X12985667Y-44049905D01*
X13061857Y-44049905D01*
X13176143Y-44011810D01*
X13252334Y-43935619D01*
X13290429Y-43859429D01*
X13328524Y-43707048D01*
X13328524Y-43592762D01*
X13290429Y-43440381D01*
X13252334Y-43364190D01*
X13176143Y-43288000D01*
X13061857Y-43249905D01*
X12985667Y-43249905D01*
X12871381Y-43288000D01*
X12833286Y-43326095D01*
X12071381Y-44049905D02*
X12528524Y-44049905D01*
X12299953Y-44049905D02*
X12299953Y-43249905D01*
X12376143Y-43364190D01*
X12452334Y-43440381D01*
X12528524Y-43478476D01*
X11309476Y-44049905D02*
X11766619Y-44049905D01*
X11538048Y-44049905D02*
X11538048Y-43249905D01*
X11614238Y-43364190D01*
X11690429Y-43440381D01*
X11766619Y-43478476D01*
X14484286Y-47021714D02*
X14522381Y-47059810D01*
X14636667Y-47097905D01*
X14712857Y-47097905D01*
X14827143Y-47059810D01*
X14903334Y-46983619D01*
X14941429Y-46907429D01*
X14979524Y-46755048D01*
X14979524Y-46640762D01*
X14941429Y-46488381D01*
X14903334Y-46412190D01*
X14827143Y-46336000D01*
X14712857Y-46297905D01*
X14636667Y-46297905D01*
X14522381Y-46336000D01*
X14484286Y-46374095D01*
X13722381Y-47097905D02*
X14179524Y-47097905D01*
X13950953Y-47097905D02*
X13950953Y-46297905D01*
X14027143Y-46412190D01*
X14103334Y-46488381D01*
X14179524Y-46526476D01*
X13227143Y-46297905D02*
X13150952Y-46297905D01*
X13074762Y-46336000D01*
X13036667Y-46374095D01*
X12998571Y-46450286D01*
X12960476Y-46602667D01*
X12960476Y-46793143D01*
X12998571Y-46945524D01*
X13036667Y-47021714D01*
X13074762Y-47059810D01*
X13150952Y-47097905D01*
X13227143Y-47097905D01*
X13303333Y-47059810D01*
X13341429Y-47021714D01*
X13379524Y-46945524D01*
X13417619Y-46793143D01*
X13417619Y-46602667D01*
X13379524Y-46450286D01*
X13341429Y-46374095D01*
X13303333Y-46336000D01*
X13227143Y-46297905D01*
D12*
X4569412Y-49207729D02*
X3807507Y-49207729D01*
X4188459Y-49588681D02*
X4188459Y-48826776D01*
D13*
X48266333Y-37242714D02*
X48304428Y-37280810D01*
X48418714Y-37318905D01*
X48494904Y-37318905D01*
X48609190Y-37280810D01*
X48685381Y-37204619D01*
X48723476Y-37128429D01*
X48761571Y-36976048D01*
X48761571Y-36861762D01*
X48723476Y-36709381D01*
X48685381Y-36633190D01*
X48609190Y-36557000D01*
X48494904Y-36518905D01*
X48418714Y-36518905D01*
X48304428Y-36557000D01*
X48266333Y-36595095D01*
X47580619Y-36785571D02*
X47580619Y-37318905D01*
X47771095Y-36480810D02*
X47961571Y-37052238D01*
X47466333Y-37052238D01*
D12*
X46985229Y-36322048D02*
X46985229Y-37083953D01*
X47366181Y-36703001D02*
X46604276Y-36703001D01*
D13*
X43059333Y-26066714D02*
X43097428Y-26104810D01*
X43211714Y-26142905D01*
X43287904Y-26142905D01*
X43402190Y-26104810D01*
X43478381Y-26028619D01*
X43516476Y-25952429D01*
X43554571Y-25800048D01*
X43554571Y-25685762D01*
X43516476Y-25533381D01*
X43478381Y-25457190D01*
X43402190Y-25381000D01*
X43287904Y-25342905D01*
X43211714Y-25342905D01*
X43097428Y-25381000D01*
X43059333Y-25419095D01*
X42792666Y-25342905D02*
X42297428Y-25342905D01*
X42564095Y-25647667D01*
X42449809Y-25647667D01*
X42373619Y-25685762D01*
X42335523Y-25723857D01*
X42297428Y-25800048D01*
X42297428Y-25990524D01*
X42335523Y-26066714D01*
X42373619Y-26104810D01*
X42449809Y-26142905D01*
X42678381Y-26142905D01*
X42754571Y-26104810D01*
X42792666Y-26066714D01*
X35058333Y-36861714D02*
X35096428Y-36899810D01*
X35210714Y-36937905D01*
X35286904Y-36937905D01*
X35401190Y-36899810D01*
X35477381Y-36823619D01*
X35515476Y-36747429D01*
X35553571Y-36595048D01*
X35553571Y-36480762D01*
X35515476Y-36328381D01*
X35477381Y-36252190D01*
X35401190Y-36176000D01*
X35286904Y-36137905D01*
X35210714Y-36137905D01*
X35096428Y-36176000D01*
X35058333Y-36214095D01*
X34753571Y-36214095D02*
X34715476Y-36176000D01*
X34639285Y-36137905D01*
X34448809Y-36137905D01*
X34372619Y-36176000D01*
X34334523Y-36214095D01*
X34296428Y-36290286D01*
X34296428Y-36366476D01*
X34334523Y-36480762D01*
X34791666Y-36937905D01*
X34296428Y-36937905D01*
X36328333Y-43084714D02*
X36366428Y-43122810D01*
X36480714Y-43160905D01*
X36556904Y-43160905D01*
X36671190Y-43122810D01*
X36747381Y-43046619D01*
X36785476Y-42970429D01*
X36823571Y-42818048D01*
X36823571Y-42703762D01*
X36785476Y-42551381D01*
X36747381Y-42475190D01*
X36671190Y-42399000D01*
X36556904Y-42360905D01*
X36480714Y-42360905D01*
X36366428Y-42399000D01*
X36328333Y-42437095D01*
X35566428Y-43160905D02*
X36023571Y-43160905D01*
X35795000Y-43160905D02*
X35795000Y-42360905D01*
X35871190Y-42475190D01*
X35947381Y-42551381D01*
X36023571Y-42589476D01*
X46710524Y-29660905D02*
X46710524Y-30308524D01*
X46672429Y-30384714D01*
X46634333Y-30422810D01*
X46558143Y-30460905D01*
X46405762Y-30460905D01*
X46329571Y-30422810D01*
X46291476Y-30384714D01*
X46253381Y-30308524D01*
X46253381Y-29660905D01*
X45834334Y-30460905D02*
X45681953Y-30460905D01*
X45605762Y-30422810D01*
X45567667Y-30384714D01*
X45491476Y-30270429D01*
X45453381Y-30118048D01*
X45453381Y-29813286D01*
X45491476Y-29737095D01*
X45529572Y-29699000D01*
X45605762Y-29660905D01*
X45758143Y-29660905D01*
X45834334Y-29699000D01*
X45872429Y-29737095D01*
X45910524Y-29813286D01*
X45910524Y-30003762D01*
X45872429Y-30079952D01*
X45834334Y-30118048D01*
X45758143Y-30156143D01*
X45605762Y-30156143D01*
X45529572Y-30118048D01*
X45491476Y-30079952D01*
X45453381Y-30003762D01*
M02*
