M48
;DRILL file {KiCad 0.201509101502+6177~30~ubuntu14.04.1-product} date Sat 12 Sep 2015 05:40:55 PM CEST
;FORMAT={-:-/ absolute / inch / decimal}
FMAT,2
INCH,TZ
T1C0.015
T2C0.028
T3C0.031
T4C0.032
T5C0.032
T6C0.039
T7C0.040
T8C0.043
T9C0.047
T10C0.118
%
G90
G05
M72
T1
X0.1Y-0.325
X0.15Y-0.66
X0.15Y-0.795
X0.16Y-1.105
X0.17Y-0.455
X0.17Y-0.51
X0.2Y-1.35
X0.2Y-1.4
X0.2Y-1.45
X0.2Y-1.5
X0.2Y-1.55
X0.2Y-1.6
X0.2Y-1.65
X0.2225Y-0.9042
X0.2237Y-0.3582
X0.235Y-0.795
X0.25Y-1.15
X0.25Y-1.2
X0.25Y-1.25
X0.25Y-1.3
X0.25Y-1.35
X0.25Y-1.4
X0.25Y-1.45
X0.25Y-1.5
X0.25Y-1.55
X0.25Y-1.6
X0.25Y-1.65
X0.2807Y-0.4658
X0.3Y-1.15
X0.3Y-1.2
X0.3Y-1.25
X0.3Y-1.3
X0.3Y-1.35
X0.3Y-1.4
X0.3Y-1.45
X0.3Y-1.5
X0.3Y-1.55
X0.3Y-1.6
X0.3Y-1.65
X0.3Y-1.7
X0.3Y-1.75
X0.3018Y-0.572
X0.335Y-0.4795
X0.35Y-1.15
X0.35Y-1.2
X0.35Y-1.25
X0.35Y-1.3
X0.35Y-1.35
X0.35Y-1.4
X0.35Y-1.45
X0.35Y-1.5
X0.35Y-1.55
X0.35Y-1.6
X0.35Y-1.65
X0.35Y-1.7
X0.35Y-1.75
X0.35Y-1.8
X0.35Y-1.85
X0.3556Y-0.7868
X0.38Y-0.445
X0.3808Y-0.3575
X0.4Y-1.25
X0.4Y-1.3
X0.4Y-1.35
X0.4Y-1.4
X0.4Y-1.45
X0.4Y-1.5
X0.4Y-1.55
X0.4Y-1.6
X0.4Y-1.65
X0.4Y-1.8
X0.4Y-1.9
X0.45Y-1.3
X0.45Y-1.35
X0.45Y-1.4
X0.45Y-1.45
X0.45Y-1.5
X0.45Y-1.55
X0.45Y-1.6
X0.45Y-1.65
X0.45Y-1.7
X0.45Y-1.75
X0.45Y-1.8
X0.45Y-1.9
X0.451Y-0.783
X0.4811Y-0.37
X0.4923Y-0.4637
X0.5Y-1.3
X0.5Y-1.35
X0.5Y-1.4
X0.5Y-1.45
X0.5Y-1.5
X0.5Y-1.55
X0.5Y-1.6
X0.5Y-1.65
X0.5Y-1.7
X0.5Y-1.75
X0.5Y-1.8
X0.5Y-1.85
X0.5Y-1.9
X0.5223Y-0.4775
X0.528Y-0.7718
X0.5393Y-0.5413
X0.55Y-1.3
X0.55Y-1.35
X0.55Y-1.4
X0.55Y-1.45
X0.55Y-1.5
X0.55Y-1.55
X0.55Y-1.6
X0.55Y-1.65
X0.55Y-1.7
X0.55Y-1.75
X0.55Y-1.8
X0.55Y-1.85
X0.55Y-1.9
X0.579Y-0.3405
X0.582Y-0.446
X0.587Y-0.771
X0.6Y-1.3
X0.6Y-1.35
X0.6Y-1.4
X0.6Y-1.45
X0.6Y-1.5
X0.6Y-1.55
X0.6Y-1.6
X0.6Y-1.65
X0.6Y-1.7
X0.6Y-1.75
X0.6Y-1.8
X0.6Y-1.85
X0.6Y-1.9
X0.6169Y-0.2719
X0.648Y-0.5131
X0.65Y-1.3
X0.65Y-1.35
X0.65Y-1.4
X0.65Y-1.45
X0.65Y-1.5
X0.65Y-1.55
X0.65Y-1.6
X0.65Y-1.65
X0.65Y-1.7
X0.65Y-1.75
X0.65Y-1.9
X0.6518Y-0.3712
X0.675Y-0.27
X0.683Y-0.479
X0.689Y-0.89
X0.7Y-1.5
X0.7Y-1.55
X0.7Y-1.6
X0.7Y-1.65
X0.7Y-1.7
X0.7Y-1.75
X0.71Y-0.355
X0.71Y-0.765
X0.7485Y-0.858
X0.75Y-1.5
X0.75Y-1.55
X0.75Y-1.6
X0.75Y-1.65
X0.75Y-1.7
X0.7501Y-0.4765
X0.755Y-0.18
X0.765Y-1.11
X0.7705Y-0.4095
X0.807Y-0.92
X0.837Y-1.839
X0.894Y-1.007
X0.92Y-0.38
X0.939Y-0.886
X0.945Y-1.205
X0.978Y-0.477
X0.985Y-0.8
X1.002Y-0.262
X1.0024Y-0.5902
X1.0084Y-1.0416
X1.0289Y-0.61
X1.03Y-0.755
X1.0301Y-0.4796
X1.035Y-0.975
X1.037Y-1.1473
X1.05Y-1.9
X1.0569Y-1.3005
X1.0666Y-1.3665
X1.07Y-0.56
X1.072Y-0.764
X1.0965Y-1.4335
X1.1049Y-1.4812
X1.111Y-0.265
X1.1287Y-0.415
X1.136Y-1.704
X1.1453Y-1.3847
X1.15Y-0.579
X1.15Y-1.9
X1.166Y-0.754
X1.17Y-1.295
X1.1909Y-0.4749
X1.2101Y-0.3633
X1.2109Y-0.5037
X1.2258Y-0.4608
X1.23Y-0.41
X1.25Y-1.9
X1.298Y-0.6131
X1.307Y-0.461
X1.31Y-1.135
X1.325Y-0.73
X1.34Y-0.285
X1.35Y-1.9
X1.362Y-1.408
X1.375Y-0.115
X1.38Y-0.695
X1.392Y-0.801
X1.425Y-0.05
X1.43Y-1.075
X1.45Y-1.9
X1.4562Y-1.4074
X1.492Y-1.255
X1.5317Y-0.083
X1.541Y-0.883
X1.55Y-1.8
X1.55Y-1.9
X1.5723Y-0.551
X1.578Y-0.686
X1.6003Y-0.523
X1.65Y-1.8
X1.65Y-1.9
X1.661Y-0.9849
X1.6826Y-1.081
X1.6833Y-1.2171
X1.6834Y-0.253
X1.6852Y-0.1949
X1.6871Y-1.253
X1.6899Y-1.2936
X1.694Y-1.024
X1.6947Y-0.284
X1.705Y-0.825
X1.75Y-1.6
X1.75Y-1.7
X1.75Y-1.9
X1.8038Y-1.2918
X1.8045Y-1.1644
X1.8449Y-1.3187
X1.85Y-1.9
X1.9099Y-0.332
X1.94Y-1.25
T2
X1.5331Y-1.6825
X1.6119Y-1.6825
T3
X0.1361Y-1.21
X0.1361Y-1.2887
X0.1361Y-1.3675
X0.1361Y-1.4462
X0.1361Y-1.525
X0.1361Y-1.6037
X0.1361Y-1.6824
X0.1361Y-1.7612
X0.8093Y-1.21
X0.8093Y-1.2887
X0.8093Y-1.3675
X0.8093Y-1.4462
X0.8093Y-1.525
X0.8093Y-1.6037
X0.8093Y-1.6824
X0.8093Y-1.7612
T4
X0.1Y-0.1
X0.1Y-0.4
X0.1Y-0.5
X0.1Y-0.6
X0.1Y-0.7
X0.2Y-0.1
X0.2Y-0.7
X0.3Y-0.1
X0.3Y-0.7
X0.35Y-0.6
X0.4Y-0.1
X0.4Y-0.7
X0.45Y-0.6
X0.5Y-0.1
X0.5Y-0.7
X0.6Y-0.1
X0.6Y-0.7
X0.7Y-0.1
X0.7Y-0.7
X0.75Y-0.6
X0.8Y-0.1
X0.8Y-0.7
X0.85Y-0.6
X0.9Y-0.1
X0.9Y-0.7
X1.Y-0.1
X1.Y-0.7
X1.1Y-0.1
X1.1Y-0.7
X1.2Y-0.1
X1.2Y-0.7
T5
X0.764Y-1.008
X0.864Y-1.108
X0.964Y-1.008
T6
X0.1081Y-0.22
X0.5019Y-0.22
T7
X0.1Y-0.86
X0.1Y-0.96
X0.1Y-1.06
X0.3Y-0.86
X0.3Y-0.96
X0.4Y-0.86
X0.4Y-0.96
X0.5Y-0.86
X0.5Y-0.96
X0.6Y-0.86
X0.6Y-0.96
X0.8Y-0.8
X0.9Y-0.8
X1.Y-1.4
X1.Y-1.5
X1.Y-1.6
X1.Y-1.7
X1.Y-1.8
X1.Y-1.9
X1.125Y-0.825
X1.125Y-0.925
X1.15Y-1.1
X1.15Y-1.2
X1.225Y-0.825
X1.225Y-0.925
X1.25Y-1.05
X1.25Y-1.2
X1.25Y-1.3
X1.325Y-0.825
X1.325Y-0.925
X1.35Y-1.05
X1.41Y-0.275
X1.41Y-0.375
X1.41Y-0.475
X1.5Y-0.755
X1.5Y-1.
X1.55Y-1.435
X1.585Y-0.3
X1.585Y-0.4
X1.6Y-0.755
X1.6Y-1.
X1.65Y-1.435
X1.75Y-1.435
X1.76Y-0.11
X1.76Y-0.21
X1.76Y-0.31
X1.76Y-0.41
X1.76Y-0.51
X1.76Y-0.61
X1.76Y-0.71
X1.76Y-0.81
X1.76Y-0.91
X1.76Y-1.01
X1.86Y-0.11
X1.86Y-0.21
X1.86Y-0.31
X1.86Y-0.41
X1.86Y-0.51
X1.86Y-0.61
X1.86Y-0.71
X1.86Y-0.81
X1.86Y-0.91
X1.86Y-1.01
T8
X1.83Y-1.55
X1.83Y-1.65
T9
X0.725Y-1.84
T10
X1.8112Y-1.811
T6
X1.1983Y-1.4214G85X1.2967Y-1.4214
G05
X1.2082Y-1.6577G85X1.2869Y-1.6577
G05
X1.4562Y-1.4904G85X1.4562Y-1.5691
G05
T0
M30
