G04 #@! TF.FileFunction,Soldermask,Bot*
%FSLAX46Y46*%
G04 Gerber Fmt 4.6, Leading zero omitted, Abs format (unit mm)*
G04 Created by KiCad (PCBNEW 0.201504261001+5623~23~ubuntu14.04.1-product) date Tue 28 Apr 2015 10:41:39 AM CEST*
%MOMM*%
G01*
G04 APERTURE LIST*
%ADD10C,0.100000*%
%ADD11R,2.432000X2.432000*%
%ADD12O,2.432000X2.432000*%
%ADD13O,1.901140X2.599640*%
%ADD14O,2.599640X1.901140*%
%ADD15O,2.398980X4.400500*%
%ADD16O,4.400500X2.398980*%
%ADD17O,4.900880X2.398980*%
%ADD18R,1.900000X1.650000*%
%ADD19R,2.400000X2.000000*%
%ADD20R,1.598880X2.099260*%
%ADD21O,1.598880X2.099260*%
%ADD22R,1.650000X1.900000*%
%ADD23R,2.127200X2.432000*%
%ADD24O,2.127200X2.432000*%
%ADD25R,2.200860X1.200100*%
%ADD26R,1.200100X2.200860*%
%ADD27R,1.700000X1.900000*%
%ADD28C,3.900120*%
%ADD29R,1.900000X1.700000*%
%ADD30R,2.127200X2.127200*%
%ADD31O,2.127200X2.127200*%
%ADD32R,2.432000X2.127200*%
%ADD33O,2.432000X2.127200*%
%ADD34R,1.901140X0.798780*%
%ADD35R,1.950000X1.000000*%
%ADD36R,2.200860X1.050000*%
%ADD37R,2.400000X2.127200*%
%ADD38C,2.127200*%
G04 APERTURE END LIST*
D10*
D11*
X38100000Y-40005000D03*
D12*
X38100000Y-37465000D03*
D13*
X29845000Y-1905000D03*
X27305000Y-1905000D03*
X24765000Y-1905000D03*
X22225000Y-1905000D03*
X19685000Y-1905000D03*
X17145000Y-1905000D03*
X14605000Y-1905000D03*
X12065000Y-1905000D03*
X9525000Y-1905000D03*
X6985000Y-1905000D03*
X4445000Y-1905000D03*
X1905000Y-1905000D03*
X1905000Y-17145000D03*
X4445000Y-17145000D03*
X6985000Y-17145000D03*
X9525000Y-17145000D03*
X12065000Y-17145000D03*
X14605000Y-17145000D03*
X17145000Y-17145000D03*
X19685000Y-17145000D03*
X22225000Y-17145000D03*
X24765000Y-17145000D03*
X27305000Y-17145000D03*
X29845000Y-17145000D03*
X18415000Y-14605000D03*
X20955000Y-14605000D03*
D14*
X1905000Y-14605000D03*
X1905000Y-12065000D03*
X1905000Y-9525000D03*
D11*
X26035000Y-29210000D03*
D12*
X26035000Y-26670000D03*
D15*
X34653980Y-38832280D03*
D16*
X29353000Y-42083480D03*
D17*
X29353000Y-36081460D03*
D18*
X38120000Y-45085000D03*
X40620000Y-45085000D03*
D19*
X33242000Y-48260000D03*
X29242000Y-48260000D03*
X33242000Y-44958000D03*
X29242000Y-44958000D03*
X44355000Y-29845000D03*
X48355000Y-29845000D03*
X48355000Y-27305000D03*
X44355000Y-27305000D03*
D20*
X36337240Y-43180000D03*
D21*
X38338760Y-43180000D03*
D11*
X41275000Y-31750000D03*
D12*
X41275000Y-29210000D03*
D11*
X41910000Y-37465000D03*
D12*
X41910000Y-40005000D03*
D22*
X43942000Y-34524000D03*
X43942000Y-32024000D03*
D23*
X48260000Y-1905000D03*
D24*
X45720000Y-1905000D03*
X43180000Y-1905000D03*
X40640000Y-1905000D03*
D23*
X48260000Y-4445000D03*
D24*
X45720000Y-4445000D03*
X43180000Y-4445000D03*
X40640000Y-4445000D03*
D23*
X48260000Y-12065000D03*
D24*
X45720000Y-12065000D03*
X43180000Y-12065000D03*
X40640000Y-12065000D03*
D25*
X23345140Y-22164000D03*
X23345140Y-24064000D03*
X20342860Y-23114000D03*
D26*
X46670000Y-40871140D03*
X44770000Y-40871140D03*
X45720000Y-37868860D03*
D27*
X48895000Y-39290000D03*
X48895000Y-41990000D03*
D19*
X18256000Y-29210000D03*
X14256000Y-29210000D03*
X14256000Y-26670000D03*
X18256000Y-26670000D03*
D28*
X20701000Y-46126400D03*
D23*
X48260000Y-9525000D03*
D24*
X45720000Y-9525000D03*
X43180000Y-9525000D03*
X40640000Y-9525000D03*
D29*
X24050000Y-14605000D03*
X26750000Y-14605000D03*
X15320000Y-14605000D03*
X12620000Y-14605000D03*
D23*
X48260000Y-6985000D03*
D24*
X45720000Y-6985000D03*
X43180000Y-6985000D03*
X40640000Y-6985000D03*
D23*
X48260000Y-14605000D03*
D24*
X45720000Y-14605000D03*
X43180000Y-14605000D03*
X40640000Y-14605000D03*
D23*
X48260000Y-17145000D03*
D24*
X45720000Y-17145000D03*
X43180000Y-17145000D03*
X40640000Y-17145000D03*
X38100000Y-17145000D03*
D23*
X48260000Y-19685000D03*
D24*
X45720000Y-19685000D03*
X43180000Y-19685000D03*
X40640000Y-19685000D03*
X38100000Y-19685000D03*
D23*
X48260000Y-22225000D03*
D24*
X45720000Y-22225000D03*
X43180000Y-22225000D03*
X40640000Y-22225000D03*
X38100000Y-22225000D03*
X35560000Y-22225000D03*
X33020000Y-22225000D03*
D23*
X48260000Y-24765000D03*
D24*
X45720000Y-24765000D03*
X43180000Y-24765000D03*
X40640000Y-24765000D03*
D30*
X36195000Y-29210000D03*
D31*
X36195000Y-31750000D03*
X33655000Y-29210000D03*
X33655000Y-31750000D03*
X31115000Y-29210000D03*
X31115000Y-31750000D03*
D23*
X36830000Y-25400000D03*
D24*
X34290000Y-25400000D03*
X31750000Y-25400000D03*
D32*
X28956000Y-20193000D03*
D33*
X28956000Y-22733000D03*
X28956000Y-25273000D03*
D34*
X48320960Y-32623760D03*
X48320960Y-33274000D03*
X48320960Y-33924240D03*
X45659040Y-33924240D03*
X45659040Y-33274000D03*
X45659040Y-32623760D03*
D35*
X6825000Y-10795000D03*
X6825000Y-9525000D03*
X6825000Y-8255000D03*
X6825000Y-6985000D03*
X12225000Y-6985000D03*
X12225000Y-8255000D03*
X12225000Y-9525000D03*
X12225000Y-10795000D03*
D25*
X19453860Y-9840000D03*
X19453860Y-7940000D03*
X22456140Y-8890000D03*
D36*
X40840000Y-46675000D03*
X40840000Y-47625000D03*
X40840000Y-48575000D03*
X37900000Y-48575000D03*
X37900000Y-46675000D03*
D31*
X8255000Y-21590000D03*
X8255000Y-24130000D03*
X10795000Y-21590000D03*
X10795000Y-24130000D03*
X13335000Y-21590000D03*
X13335000Y-24130000D03*
D30*
X15875000Y-21590000D03*
D31*
X15875000Y-24130000D03*
D19*
X23400000Y-12700000D03*
X27400000Y-12700000D03*
D37*
X3810000Y-28448000D03*
D38*
X3810000Y-30448000D03*
X3810000Y-32448000D03*
X3810000Y-34448000D03*
X3810000Y-36448000D03*
X3810000Y-38448000D03*
X3810000Y-40448000D03*
X3810000Y-42448000D03*
X20710000Y-42448000D03*
X20710000Y-40448000D03*
X20710000Y-38448000D03*
X20710000Y-36448000D03*
X20710000Y-34448000D03*
X20710000Y-32448000D03*
X20710000Y-30448000D03*
X20710000Y-28448000D03*
M02*
